<?xml version="1.0" encoding="UTF-8"?>
<svg viewBox="0 0 21 23" version="1.1" xmlns="http://www.w3.org/2000/svg" xmlns:xlink="http://www.w3.org/1999/xlink">
    <defs>
        <path d="M0,0 L1440,0 L1440,1112 L0,1112 L0,0 Z" id="path-1"></path>
        <filter x="-0.4%" y="-0.5%" width="100.9%" height="101.2%" filterUnits="objectBoundingBox" id="filter-2">
            <feOffset dx="1" dy="1" in="SourceAlpha" result="shadowOffsetOuter1"></feOffset>
            <feGaussianBlur stdDeviation="2" in="shadowOffsetOuter1" result="shadowBlurOuter1"></feGaussianBlur>
            <feComposite in="shadowBlurOuter1" in2="SourceAlpha" operator="out" result="shadowBlurOuter1"></feComposite>
            <feColorMatrix values="0 0 0 0 0   0 0 0 0 0   0 0 0 0 0  0 0 0 0.153846154 0" type="matrix" in="shadowBlurOuter1"></feColorMatrix>
        </filter>
    </defs>
    <g id="Argon-Commander" stroke="none" stroke-width="1" fill="none" fill-rule="evenodd">
        <g id="Dashboard" transform="translate(-1360, -365)" xlink:href="#path-1">
            <use fill="black" fill-opacity="1" filter="url(#filter-2)" xlink:href="#path-1"></use>
            <path stroke="#979797" stroke-width="1" d="M1439.5,0.5 L1439.5,1111.5 L0.5,1111.5 L0.5,0.5 L1439.5,0.5 Z" stroke-linejoin="square"></path>
            <g id="Group-4" stroke-width="1" fill-rule="evenodd" transform="translate(28, 250.5)" fill="currentColor">
                <path d="M1335.29898,123.375 C1333.75352,123.375 1332.5717,124.566667 1332.5717,126.125 C1332.5717,127.683333 1333.75352,128.875 1335.29898,128.875 C1336.84443,128.875 1338.02625,127.683333 1338.02625,126.125 C1338.02625,124.566667 1336.84443,123.375 1335.29898,123.375 Z M1335.29898,127.958333 C1334.29898,127.958333 1333.48079,127.133333 1333.48079,126.125 C1333.48079,125.116667 1334.29898,124.291667 1335.29898,124.291667 C1336.29898,124.291667 1337.11716,125.116667 1337.11716,126.125 C1337.11716,127.133333 1336.29898,127.958333 1335.29898,127.958333 Z M1335.29898,115.125 C1333.75352,115.125 1332.5717,116.316667 1332.5717,117.875 C1332.5717,119.433333 1333.75352,120.625 1335.29898,120.625 C1336.84443,120.625 1338.02625,119.433333 1338.02625,117.875 C1338.02625,116.316667 1336.84443,115.125 1335.29898,115.125 Z M1335.29898,119.708333 C1334.29898,119.708333 1333.48079,118.883333 1333.48079,117.875 C1333.48079,116.866667 1334.29898,116.041667 1335.29898,116.041667 C1336.29898,116.041667 1337.11716,116.866667 1337.11716,117.875 C1337.11716,118.883333 1336.29898,119.708333 1335.29898,119.708333 Z M1335.29898,131.625 C1333.75352,131.625 1332.5717,132.816667 1332.5717,134.375 C1332.5717,135.933333 1333.75352,137.125 1335.29898,137.125 C1336.84443,137.125 1338.02625,135.933333 1338.02625,134.375 C1338.02625,132.816667 1336.84443,131.625 1335.29898,131.625 Z M1335.29898,136.208333 C1334.29898,136.208333 1333.48079,135.383333 1333.48079,134.375 C1333.48079,133.366667 1334.29898,132.541667 1335.29898,132.541667 C1336.29898,132.541667 1337.11716,133.366667 1337.11716,134.375 C1337.11716,135.383333 1336.29898,136.208333 1335.29898,136.208333 Z M1339.84443,116.041667 L1352.5717,116.041667 L1352.5717,116.958333 L1339.84443,116.958333 L1339.84443,116.041667 Z M1339.84443,118.791667 L1346.20807,118.791667 L1346.20807,119.708333 L1339.84443,119.708333 L1339.84443,118.791667 Z M1348.02625,118.791667 L1349.84443,118.791667 L1349.84443,119.708333 L1348.02625,119.708333 L1348.02625,118.791667 Z M1343.48079,135.291667 L1349.84443,135.291667 L1349.84443,136.208333 L1343.48079,136.208333 L1343.48079,135.291667 Z M1339.84443,135.291667 L1341.66261,135.291667 L1341.66261,136.208333 L1339.84443,136.208333 L1339.84443,135.291667 Z M1339.84443,127.041667 L1344.38988,127.041667 L1344.38988,127.958333 L1339.84443,127.958333 L1339.84443,127.041667 Z M1346.20807,127.041667 L1349.84443,127.041667 L1349.84443,127.958333 L1346.20807,127.958333 L1346.20807,127.041667 Z M1339.84443,124.291667 L1352.5717,124.291667 L1352.5717,125.208333 L1339.84443,125.208333 L1339.84443,124.291667 Z M1339.84443,132.541667 L1352.5717,132.541667 L1352.5717,133.458333 L1339.84443,133.458333 L1339.84443,132.541667 Z" id="activity" fill-rule="nonzero"></path>
            </g>
        </g>
    </g>
</svg>