<?xml version="1.0" encoding="UTF-8"?>
<svg viewBox="0 0 18 20" version="1.1" xmlns="http://www.w3.org/2000/svg" xmlns:xlink="http://www.w3.org/1999/xlink">
    <g id="Argon-Commander" stroke="none" stroke-width="1" fill="none" fill-rule="evenodd">
        <g id="Dashboard-Copy-4" transform="translate(-205, -449)" fill="currentColor">
            <g id="ACTIVITY" transform="translate(165.1877, 211.7298)">
                <path d="M57.6790629,246.016253 L49.1754585,237.508385 C49.0955298,237.428456 48.9875901,237.384269 48.8745503,237.384269 C48.7615106,237.384269 48.6535311,237.429333 48.5736422,237.509222 L40.0954986,246.016253 C39.973932,246.13782 39.9382311,246.320548 40.0036961,246.479529 C40.0699979,246.63847 40.2247154,246.741349 40.3964068,246.741349 L45.0715205,246.741349 L45.0715205,255.959244 C45.0715205,256.19385 45.2619389,256.384269 45.4965453,256.384269 L52.2967433,256.384269 C52.5313497,256.384269 52.7217681,256.19385 52.7217681,255.959244 L52.7217681,246.741309 L57.3790313,246.741309 C57.5507227,246.741309 57.7054402,246.637593 57.771742,246.478652 C57.8380438,246.319711 57.8006295,246.13782 57.6790629,246.016253 Z" id="Path" fill-rule="nonzero"></path>
            </g>
        </g>
    </g>
</svg>