<?xml version="1.0" encoding="UTF-8"?>
<svg viewBox="0 0 23 23" version="1.1" xmlns="http://www.w3.org/2000/svg" xmlns:xlink="http://www.w3.org/1999/xlink">
    <g id="Argon-Commander" stroke="none" stroke-width="1" fill="none" fill-rule="evenodd">
        <g id="Dashboard-Copy-4" transform="translate(-205, -579)" fill="currentColor">
            <g id="ACTIVITY" transform="translate(165.1877, 211.7298)">
                <path d="M55.1310614,367.99448 C55.4228902,367.993735 55.7029502,368.108905 55.9097497,368.314671 L61.7177467,374.092868 C61.9245461,374.298623 62.041256,374.578111 62.0419168,374.869853 L62.0630473,383.062494 C62.0638075,383.354322 61.9486364,383.634383 61.7428282,383.841182 L55.9646408,389.649179 C55.7589403,389.855978 55.4794315,389.972688 55.1877105,389.973349 L46.9949822,389.99448 C46.7032404,389.99524 46.4231587,389.880069 46.2163372,389.67426 L40.4083186,383.896073 C40.2014968,383.690373 40.0848859,383.410864 40.0841379,383.119143 L40.0630473,374.926414 C40.0623029,374.634673 40.1774729,374.354591 40.3832387,374.14777 L46.1614359,368.339751 C46.3671908,368.132929 46.6466784,368.016318 46.9384205,368.01557 Z M51.0630439,382.518503 C50.0898833,382.518503 49.3010306,383.307355 49.3010306,384.280516 C49.3010306,385.253677 50.0898833,386.042529 51.0630439,386.042529 C52.0362045,386.042529 52.8250572,385.253677 52.8250572,384.280516 C52.8250572,383.307355 52.0362045,382.518503 51.0630439,382.518503 Z M51.0630439,371.946423 C50.0898833,371.946423 49.3010306,372.735311 49.3010306,373.708436 L49.3010306,378.994476 C49.3010306,379.967637 50.0898833,380.756489 51.0630439,380.756489 C52.0362045,380.756489 52.8250572,379.967637 52.8250572,378.994476 L52.8250572,373.708436 C52.8250572,372.735311 52.0362045,371.946423 51.0630439,371.946423 Z" id="Shape" fill-rule="nonzero"></path>
            </g>
        </g>
    </g>
</svg>