<?xml version="1.0" encoding="UTF-8"?>
<svg viewBox="0 0 22 23" version="1.1" xmlns="http://www.w3.org/2000/svg" xmlns:xlink="http://www.w3.org/1999/xlink">
    <g id="Argon-Commander" stroke="none" stroke-width="1" fill="none" fill-rule="evenodd">
        <g id="Dashboard-Copy-4" transform="translate(-205, -537)" fill="currentColor">
            <g id="ACTIVITY" transform="translate(165.1877, 211.7298)">
                <path d="M50.8041998,325.33781 C44.7390369,325.33781 39.8041998,330.272647 39.8041998,336.33781 C39.8041998,342.402973 44.7390369,347.33781 50.8041998,347.33781 C56.8693627,347.33781 61.8041998,342.402973 61.8041998,336.33781 C61.8041998,330.272647 56.8693627,325.33781 50.8041998,325.33781 Z M56.9520695,333.443073 L49.9219943,340.418011 C49.5084605,340.831545 48.8468063,340.859114 48.4057036,340.44558 L44.683899,337.054602 C44.2427963,336.641068 44.2152274,335.951845 44.6011923,335.510743 C45.0147261,335.06964 45.7039492,335.042071 46.1450519,335.455605 L49.0949266,338.157359 L55.3806409,331.871645 C55.8217437,331.430542 56.5109667,331.430542 56.9520695,331.871645 C57.3931722,332.312748 57.3931722,333.001971 56.9520695,333.443073 Z" id="Shape" fill-rule="nonzero"></path>
            </g>
        </g>
    </g>
</svg>