<?xml version="1.0" encoding="UTF-8"?>
<svg viewBox="0 0 25 25" version="1.1" xmlns="http://www.w3.org/2000/svg" xmlns:xlink="http://www.w3.org/1999/xlink">
    <g id="Argon-Commander" stroke="none" stroke-width="1" fill="none" fill-rule="evenodd">
        <g id="Dashboard-Copy-2" transform="translate(-390, -201)" fill="currentColor" fill-rule="nonzero">
            <g id="WALLET-OVERLAY" transform="translate(237, 53.4999)">
                <path d="M170.07885,147.857173 C170.397209,147.856361 170.702729,147.982001 170.928328,148.206473 L177.264325,154.50996 C177.489924,154.73442 177.617244,155.039316 177.617965,155.35758 L177.641018,164.295006 C177.641846,164.613365 177.516205,164.918885 177.291687,165.144484 L170.98821,171.48048 C170.763809,171.70608 170.45889,171.8334 170.140649,171.834121 L161.203128,171.857173 C160.884864,171.858001 160.579321,171.73236 160.353697,171.507842 L154.017677,165.204365 C153.792053,164.979965 153.664841,164.675046 153.664026,164.356805 L153.641018,155.419284 C153.640206,155.10102 153.765846,154.795476 153.990317,154.569853 L160.293805,148.233833 C160.518265,148.008209 160.82316,147.880997 161.141424,147.880181 Z M165.641013,163.701561 C164.579384,163.701561 163.718817,164.562128 163.718817,165.623758 C163.718817,166.685387 164.579384,167.545954 165.641013,167.545954 C166.702643,167.545954 167.56321,166.685387 167.56321,165.623758 C167.56321,164.562128 166.702643,163.701561 165.641013,163.701561 Z M165.641013,152.168384 C164.579384,152.168384 163.718817,153.028989 163.718817,154.09058 L163.718817,159.857169 C163.718817,160.918799 164.579384,161.779365 165.641013,161.779365 C166.702643,161.779365 167.56321,160.918799 167.56321,159.857169 L167.56321,154.09058 C167.56321,153.028989 166.702643,152.168384 165.641013,152.168384 Z" id="alert"></path>
            </g>
        </g>
    </g>
</svg>