<?xml version="1.0" encoding="UTF-8"?>
<svg viewBox="0 0 26 23" version="1.1" xmlns="http://www.w3.org/2000/svg" xmlns:xlink="http://www.w3.org/1999/xlink">
    <title>auction</title>
    <defs>
        <path d="M0,0 L1440,0 L1440,1112 L0,1112 L0,0 Z" id="path-1"></path>
        <filter x="-0.4%" y="-0.5%" width="100.9%" height="101.2%" filterUnits="objectBoundingBox" id="filter-2">
            <feOffset dx="1" dy="1" in="SourceAlpha" result="shadowOffsetOuter1"></feOffset>
            <feGaussianBlur stdDeviation="2" in="shadowOffsetOuter1" result="shadowBlurOuter1"></feGaussianBlur>
            <feComposite in="shadowBlurOuter1" in2="SourceAlpha" operator="out" result="shadowBlurOuter1"></feComposite>
            <feColorMatrix values="0 0 0 0 0   0 0 0 0 0   0 0 0 0 0  0 0 0 0.153846154 0" type="matrix" in="shadowBlurOuter1"></feColorMatrix>
        </filter>
    </defs>
    <g id="Argon-Commander" stroke="none" stroke-width="1" fill="none" fill-rule="evenodd">
        <g id="Dashboard" transform="translate(-1320, -365)" xlink:href="#path-1">
            <use fill="black" fill-opacity="1" filter="url(#filter-2)" xlink:href="#path-1"></use>
            <path stroke="#979797" stroke-width="1" d="M1439.5,0.5 L1439.5,1111.5 L0.5,1111.5 L0.5,0.5 L1439.5,0.5 Z" stroke-linejoin="square"></path>
            <g id="Group-4" stroke-width="1" fill-rule="evenodd" transform="translate(28, 250.5)" fill="currentColor">
                <path d="M1296.56003,131.367609 C1296.76208,131.367609 1296.92587,131.529472 1296.92587,131.729139 C1296.92587,131.928807 1296.76208,132.09067 1296.56003,132.09067 L1294.72072,132.090891 C1294.68959,132.093522 1294.66514,132.119346 1294.66514,132.15078 L1294.6651,134.215782 L1306.85429,134.215782 L1306.8543,132.15078 C1306.8543,132.117598 1306.82705,132.09067 1306.79342,132.09067 L1298.22566,132.09067 C1298.02362,132.09067 1297.85982,131.928807 1297.85982,131.729139 C1297.85982,131.529472 1298.02362,131.367609 1298.22566,131.367609 L1306.79342,131.367609 C1307.23114,131.367609 1307.58597,131.718263 1307.58597,132.15078 L1307.58563,134.215 L1308.22826,134.215741 C1308.62945,134.215741 1308.96105,134.510376 1309.01353,134.892641 L1309.02076,134.998912 L1309.02076,136.341829 C1309.02076,136.77436 1308.66592,137.125 1308.22826,137.125 L1293.29113,137.125 C1292.85343,137.125 1292.49863,136.77437 1292.49863,136.341829 L1292.49863,134.998912 C1292.49863,134.56637 1292.85343,134.215741 1293.29113,134.215741 L1293.93263,134.215 L1293.93346,132.15078 C1293.93346,131.754319 1294.23161,131.426622 1294.61843,131.374759 L1294.72596,131.367609 L1296.56003,131.367609 Z M1304.50039,115.359414 C1304.81667,115.046856 1305.32949,115.046856 1305.64572,115.35945 L1310.18695,119.847211 C1310.50322,120.159763 1310.50322,120.666471 1310.18695,120.979023 L1308.82447,122.325459 C1308.50825,122.637957 1307.99553,122.637957 1307.67926,122.325495 L1307.58263,122.231 L1306.22963,123.568 L1312.25859,129.526899 C1312.40146,129.668085 1312.40146,129.896993 1312.25859,130.03818 C1312.10733,130.17932 1311.88149,130.176799 1311.74122,130.03818 L1305.74131,124.108934 L1304.43143,125.403393 L1315.18573,136.03112 C1315.54747,136.38856 1316.13391,136.38856 1316.49566,136.031107 C1316.85738,135.673672 1316.85738,135.094111 1316.49564,134.736629 L1312.93439,131.217349 C1312.79152,131.076164 1312.79152,130.847255 1312.93439,130.706068 C1313.07725,130.564881 1313.30889,130.564879 1313.45176,130.706064 L1317.01301,134.225346 C1317.6605,134.865207 1317.6605,135.902603 1317.013,136.542413 C1316.36553,137.182206 1315.31585,137.182206 1314.66837,136.542413 L1303.88463,125.886 L1302.53063,127.224 L1302.62665,127.318512 C1302.91417,127.60265 1302.94031,128.047248 1302.70506,128.36056 L1302.62665,128.450324 L1301.26422,129.796755 C1300.94791,130.109251 1300.43523,130.109251 1300.11896,129.796795 L1295.57766,125.308912 C1295.26139,124.996362 1295.26139,124.489654 1295.57766,124.177102 L1296.94009,122.830714 C1297.25637,122.518157 1297.76919,122.518157 1298.08542,122.83075 L1298.18063,122.924 L1303.23363,117.931 L1303.13796,117.837612 C1302.85044,117.553475 1302.8243,117.108877 1303.05955,116.795565 L1303.13796,116.705801 Z M1308.22826,134.938802 L1293.29113,134.938802 C1293.25752,134.938802 1293.2303,134.965706 1293.2303,134.998912 L1293.2303,136.341829 C1293.2303,136.375035 1293.25752,136.401939 1293.29113,136.401939 L1308.22826,136.401939 C1308.26184,136.401939 1308.28909,136.375012 1308.28909,136.341829 L1308.28909,134.998912 C1308.28909,134.965729 1308.26184,134.938802 1308.22826,134.938802 Z M1297.45746,123.341996 L1296.09504,124.688383 C1296.0645,124.718562 1296.0645,124.767454 1296.09504,124.797633 L1300.6363,129.28548 C1300.66681,129.315621 1300.71634,129.315621 1300.74688,129.285442 L1302.10927,127.939043 C1302.13981,127.908864 1302.13981,127.859972 1302.10927,127.829793 L1299.26363,125.017 L1297.92203,123.691822 L1297.56801,123.341996 C1297.53749,123.311823 1297.48799,123.311823 1297.45746,123.341996 Z M1303.75059,118.443097 L1298.69808,123.436193 L1302.01399,126.713069 L1307.0665,121.720009 L1303.75059,118.443097 Z M1305.12831,115.870695 C1305.09779,115.840522 1305.04829,115.840522 1305.01776,115.870695 L1303.65534,117.217082 C1303.6248,117.247261 1303.6248,117.296153 1303.65534,117.326332 L1304.0093,117.676168 L1306.60963,120.246 L1308.1966,121.814179 C1308.21693,121.834269 1308.24571,121.840966 1308.27167,121.834269 L1308.3071,121.814178 L1309.66957,120.467742 C1309.70011,120.437563 1309.70011,120.388671 1309.66957,120.358492 Z" id="auction" fill-rule="nonzero"></path>
            </g>
        </g>
    </g>
</svg>