<?xml version="1.0" encoding="UTF-8"?>
<svg viewBox="0 0 35 34" version="1.1" xmlns="http://www.w3.org/2000/svg" xmlns:xlink="http://www.w3.org/1999/xlink">
    <g id="Argon-Commander" stroke="none" stroke-width="1" fill="none" fill-rule="evenodd">
        <path d="M32.375,8.5 L2.625,8.5 C1.45341667,8.5 0.5,7.54658333 0.5,6.375 L0.5,2.125 C0.5,0.953416667 1.45341667,0 2.625,0 L32.375,0 C33.5465833,0 34.5,0.953416667 34.5,2.125 L34.5,6.375 C34.5,7.54658333 33.5465833,8.5 32.375,8.5 Z M2.625,1.41666667 C2.23541667,1.41666667 1.91666667,1.734 1.91666667,2.125 L1.91666667,6.375 C1.91666667,6.766 2.23541667,7.08333333 2.625,7.08333333 L32.375,7.08333333 C32.7645833,7.08333333 33.0833333,6.766 33.0833333,6.375 L33.0833333,2.125 C33.0833333,1.734 32.7645833,1.41666667 32.375,1.41666667 L2.625,1.41666667 Z M32.375,21.25 L2.625,21.25 C1.45341667,21.25 0.5,20.2965833 0.5,19.125 L0.5,14.875 C0.5,13.7034167 1.45341667,12.75 2.625,12.75 L32.375,12.75 C33.5465833,12.75 34.5,13.7034167 34.5,14.875 L34.5,19.125 C34.5,20.2965833 33.5465833,21.25 32.375,21.25 Z M2.625,14.1666667 C2.23541667,14.1666667 1.91666667,14.484 1.91666667,14.875 L1.91666667,19.125 C1.91666667,19.516 2.23541667,19.8333333 2.625,19.8333333 L32.375,19.8333333 C32.7645833,19.8333333 33.0833333,19.516 33.0833333,19.125 L33.0833333,14.875 C33.0833333,14.484 32.7645833,14.1666667 32.375,14.1666667 L2.625,14.1666667 Z M32.375,34 L2.625,34 C1.45341667,34 0.5,33.0465833 0.5,31.875 L0.5,27.625 C0.5,26.4534167 1.45341667,25.5 2.625,25.5 L32.375,25.5 C33.5465833,25.5 34.5,26.4534167 34.5,27.625 L34.5,31.875 C34.5,33.0465833 33.5465833,34 32.375,34 Z M2.625,26.9166667 C2.23541667,26.9166667 1.91666667,27.234 1.91666667,27.625 L1.91666667,31.875 C1.91666667,32.266 2.23541667,32.5833333 2.625,32.5833333 L32.375,32.5833333 C32.7645833,32.5833333 33.0833333,32.266 33.0833333,31.875 L33.0833333,27.625 C33.0833333,27.234 32.7645833,26.9166667 32.375,26.9166667 L2.625,26.9166667 Z" id="Combined-Shape" fill="currentColor" fill-rule="nonzero" transform="translate(17.5, 17) rotate(90) translate(-17.5, -17)"></path>
    </g>
</svg>