<?xml version="1.0" encoding="UTF-8"?>
<svg viewBox="0 0 25 26" version="1.1" xmlns="http://www.w3.org/2000/svg" xmlns:xlink="http://www.w3.org/1999/xlink">
    <g id="Argon-Executables" stroke="none" stroke-width="1" fill="none" fill-rule="evenodd">
        <g id="Argon-App-Navbar" transform="translate(-1394, -27)" fill="currentColor" fill-rule="nonzero">
            <path d="M1407.625,27.25 C1408.375,27.25 1408.875,27.75 1408.875,28.5 L1408.875,30 C1409.875,30.25 1410.75,30.625 1411.5,31.125 L1412.625,30 C1413.125,29.5 1413.875,29.5 1414.375,30 L1416.125,31.75 C1416.625,32.25 1416.625,33 1416.125,33.5 L1415,34.625 C1415.5,35.5 1415.875,36.375 1416.125,37.25 L1417.75,37.25 C1418.5,37.25 1419,37.75 1419,38.375 L1419,40.875 C1419,41.625 1418.5,42.125 1417.75,42.125 L1416.375,42.125 C1416.125,43.125 1415.75,44 1415.25,44.75 L1416.375,45.875 C1416.875,46.375 1416.875,47.125 1416.375,47.625 L1414.625,49.375 C1414.125,49.875 1413.375,49.875 1412.875,49.375 L1411.75,48.25 C1410.875,48.75 1410,49.125 1409.125,49.375 L1409.125,51 C1409.125,51.75 1408.625,52.25 1407.875,52.25 L1405.375,52.25 C1404.625,52.25 1404.125,51.75 1404.125,51 L1404.125,49.5 C1403.125,49.25 1402.25,48.875 1401.5,48.375 L1400.375,49.5 C1399.875,50 1399.125,50 1398.625,49.5 L1396.875,47.75 C1396.375,47.25 1396.375,46.5 1396.875,46 L1398,44.875 C1397.5,44 1397.125,43.125 1396.875,42.25 L1395.25,42.25 C1394.5,42.25 1394,41.75 1394,41 L1394,38.5 C1394,37.75 1394.5,37.25 1395.25,37.25 L1396.875,37.25 C1397.125,36.375 1397.375,35.5 1397.875,34.625 L1396.75,33.5 C1396.25,33 1396.25,32.25 1396.75,31.75 L1398.625,30 C1399.125,29.5 1399.875,29.5 1400.375,30 L1401.375,31.125 C1402.25,30.625 1403.125,30.375 1403.875,30.125 L1403.875,28.5 C1403.875,27.75 1404.375,27.25 1405.125,27.25 Z M1406.5,33.5 C1403,33.5 1400.25,36.25 1400.25,39.75 C1400.25,43.25 1403,46 1406.5,46 C1410,46 1412.75,43.25 1412.75,39.75 C1412.75,36.25 1410,33.5 1406.5,33.5 Z M1406.5,36 C1408.57107,36 1410.25,37.6789322 1410.25,39.75 C1410.25,41.8210678 1408.57107,43.5 1406.5,43.5 C1404.42893,43.5 1402.75,41.8210678 1402.75,39.75 C1402.75,37.6789322 1404.42893,36 1406.5,36 Z" id="config"></path>
        </g>
    </g>
</svg>