<?xml version="1.0" encoding="UTF-8"?>
<svg viewBox="0 0 102 116" version="1.1" xmlns="http://www.w3.org/2000/svg" xmlns:xlink="http://www.w3.org/1999/xlink">
    <title>Combined Shape</title>
    <g id="Argon-Commander" stroke="none" stroke-width="1" fill="none" fill-rule="evenodd">
        <g id="Wireframe-Copy" transform="translate(-267.3133, -413.5)" fill="#000000" fill-rule="nonzero">
            <path d="M318.314434,414 C331.539197,414 343.999187,415.934266 353.389679,419.439907 C363.30204,423.139944 368.735544,428.273148 368.81026,433.847955 C368.813305,433.89997 368.813305,433.933282 368.813305,433.965391 L368.813305,509.034609 C368.813305,514.652973 363.373339,519.832589 353.391978,523.557812 C344.000893,527.065088 331.539371,529 318.314434,529 C305.087534,529 292.625926,527.065166 283.234734,523.55785 C273.254178,519.832099 267.813305,514.652167 267.813305,509.034609 L267.813305,433.965391 C267.813305,428.349518 273.25516,423.167495 283.234757,419.439876 C292.627228,415.934333 305.089418,414 318.314434,414 Z M271.328088,491.585477 L271.328088,492.703951 L271.329077,509.034638 C271.329077,517.6403 292.428346,525.46875 318.314434,525.46875 C344.200164,525.46875 365.298396,517.640466 365.298396,509.034609 L365.298396,491.58642 L364.464928,492.332218 C361.847866,494.674 358.108895,496.774759 353.391886,498.536283 C344.01093,502.044274 331.553602,503.976172 318.314434,503.976172 C305.089418,503.976172 292.627228,502.041839 283.234636,498.536251 C278.517941,496.774452 274.778781,494.673341 272.161573,492.331324 L271.328088,491.585477 Z M337.234161,511.853519 C337.458947,511.808084 337.691713,511.808084 337.917609,511.853745 C338.030394,511.876561 338.140716,511.910303 338.247025,511.954501 C338.353211,511.99911 338.456699,512.054333 338.554478,512.118761 C338.74489,512.244829 338.908674,512.409174 339.034989,512.601272 C339.098681,512.698598 339.153798,512.802598 339.199037,512.911032 C339.24248,513.016254 339.276188,513.127218 339.298983,513.240676 C339.322187,513.354915 339.333963,513.470121 339.334348,513.58565 C339.334433,514.174668 339.040525,514.726061 338.551429,515.053498 C338.456699,515.115902 338.353211,515.171125 338.245331,515.216441 C338.140716,515.259931 338.030394,515.293674 337.917609,515.316489 C337.80619,515.33938 337.694331,515.351133 337.582129,515.351889 C337.467027,515.351994 337.34935,515.340186 337.233741,515.316629 C337.120701,515.293496 337.009683,515.25954 336.90259,515.2153 C336.246899,514.942507 335.818393,514.298592 335.818563,513.584108 C335.818355,513.467642 335.829537,513.352496 335.851949,513.239311 C335.874472,513.127218 335.90818,513.016254 335.952324,512.909344 C336.040751,512.693616 336.169911,512.498612 336.332894,512.33427 C336.495033,512.174517 336.690722,512.044013 336.90546,511.953739 C337.009683,511.910695 337.120701,511.876739 337.234161,511.853519 Z M346.312011,509.569995 C346.537234,509.524351 346.769087,509.524351 346.99431,509.569995 C347.107096,509.592811 347.217418,509.626553 347.323727,509.670751 C347.43137,509.715069 347.532828,509.769209 347.628206,509.833037 C347.726012,509.897577 347.814422,509.969948 347.894776,510.050831 C347.975612,510.132409 348.048679,510.222283 348.112464,510.318695 C348.17675,510.415419 348.230794,510.517393 348.274381,510.623995 C348.320446,510.733352 348.353468,510.842058 348.374976,510.953329 C348.399007,511.071282 348.410757,511.186232 348.411051,511.301503 C348.411166,511.419441 348.399364,511.537859 348.375823,511.654186 C348.353468,511.769739 348.320446,511.878445 348.27645,511.982817 C348.231121,512.09192 348.176666,512.194077 348.112835,512.290276 C348.048681,512.388169 347.976512,512.476938 347.895881,512.557592 C347.813266,512.640384 347.723242,512.71467 347.62674,512.779745 C347.532828,512.842588 347.43137,512.896728 347.325332,512.940382 C347.217418,512.985244 347.107096,513.018986 346.99431,513.041802 C346.883098,513.064056 346.7689,513.075223 346.654435,513.074942 C346.537422,513.075223 346.423224,513.064056 346.310985,513.041596 C346.199226,513.018986 346.088904,512.985244 345.982595,512.941046 C345.874952,512.896728 345.773494,512.842588 345.678116,512.77876 C345.486078,512.649454 345.319951,512.482758 345.190229,512.288775 C345.130522,512.196499 345.075715,512.092551 345.030495,511.984303 C344.985876,511.878445 344.952854,511.769739 344.931346,511.658468 C344.906958,511.537859 344.895156,511.419441 344.895272,511.300729 C344.895565,511.186232 344.907314,511.071282 344.930346,510.958362 C344.952854,510.842058 344.985876,510.733352 345.029871,510.62898 C345.076038,510.516773 345.130438,510.412999 345.194049,510.314956 C345.25494,510.224134 345.329013,510.133752 345.41122,510.051158 C345.491899,509.969948 345.58031,509.897577 345.675382,509.834853 C345.773494,509.769209 345.874952,509.715069 345.98099,509.671415 C346.088904,509.626553 346.199226,509.592811 346.312011,509.569995 Z M355.379682,507.297573 C355.605577,507.251912 355.838343,507.251912 356.063129,507.297347 C356.176589,507.320567 356.287608,507.354523 356.3947,507.398762 C356.498813,507.442314 356.600459,507.496869 356.696201,507.560832 C356.793682,507.625155 356.882092,507.697526 356.962447,507.778409 C357.044979,507.86133 357.119052,507.951712 357.183957,508.048623 C357.246678,508.142997 357.300722,508.244971 357.344309,508.351574 C357.38911,508.460082 357.422818,508.571046 357.445613,508.684504 C357.467854,508.796414 357.479025,508.911374 357.478758,509.026654 C357.479432,509.149378 357.468209,509.267837 357.445263,509.384209 C357.422639,509.495473 357.388721,509.607131 357.344537,509.714821 C357.120765,510.260646 356.640474,510.657847 356.06465,510.773828 C355.960055,510.792835 355.844759,510.80228 355.729376,510.800307 C355.605087,510.800564 355.490897,510.789369 355.378656,510.766908 C355.266896,510.744299 355.156574,510.710556 355.050265,510.666358 C354.940707,510.621788 354.839253,510.568239 354.743804,510.505019 C354.65075,510.442248 354.560726,510.367962 354.478437,510.285497 C354.39748,510.204516 354.325311,510.115747 354.262744,510.020261 C354.197326,509.921655 354.142871,509.819498 354.098548,509.712799 C354.055199,509.607131 354.021281,509.495473 353.998084,509.381347 C353.974628,509.265437 353.962826,509.147019 353.962942,509.028307 C353.963235,508.91381 353.974984,508.79886 353.998016,508.685941 C354.021102,508.571046 354.05481,508.460082 354.098954,508.353173 C354.143198,508.244971 354.197242,508.142997 354.260941,508.047158 C354.388616,507.853002 354.5524,507.688657 354.743727,507.561985 C354.841164,507.496787 354.942622,507.442647 355.04866,507.398993 C355.156574,507.354131 355.266896,507.320389 355.379682,507.297573 Z M271.327016,466.560591 L271.327016,467.67925 L271.328998,483.991684 L271.329077,484.010781 C271.329077,492.616472 292.428346,500.444922 318.314434,500.444922 C343.941307,500.444922 364.875107,492.77242 365.29122,484.268717 L365.297924,484.010499 L365.29942,467.680127 L365.29942,466.561576 L364.465911,467.307511 C361.848805,469.649644 358.10949,471.750709 353.391886,473.512455 C343.99959,477.017933 331.537486,478.952344 318.314434,478.952344 C305.089418,478.952344 292.627228,477.018011 283.234636,473.512423 C278.517346,471.750401 274.777842,469.648985 272.160589,467.306616 L271.327016,466.560591 Z M337.234161,486.829691 C337.880228,486.698118 338.540786,486.943851 338.946675,487.455722 L339.034389,487.57653 C339.098681,487.67477 339.153798,487.77877 339.199037,487.887204 C339.24248,487.992426 339.276188,488.10339 339.298983,488.216848 C339.34594,488.444877 339.34594,488.677702 339.299466,488.90336 C339.276188,489.019188 339.24248,489.130152 339.198336,489.237062 C339.153798,489.343808 339.098681,489.447808 339.034389,489.546048 C338.908674,489.737232 338.74489,489.901577 338.553563,490.028249 C338.456699,490.092074 338.353211,490.147297 338.245331,490.192613 C338.140716,490.236103 338.030394,490.269846 337.917609,490.292661 C337.808793,490.314355 337.696745,490.325539 337.584409,490.325782 C337.46452,490.326561 337.347041,490.315362 337.231581,490.292366 C337.120701,490.269667 337.009683,490.235711 336.90259,490.191472 C336.690722,490.102393 336.495033,489.971889 336.32885,489.808105 C336.169911,489.647794 336.040751,489.45279 335.952816,489.238257 C335.90818,489.130152 335.874472,489.019188 335.851677,488.90573 C335.829537,488.79391 335.818355,488.678764 335.818565,488.563347 C335.819465,488.093584 336.004609,487.643136 336.333779,487.309548 C336.412018,487.233128 336.503893,487.158412 336.601974,487.092583 C336.696831,487.029213 336.798477,486.974657 336.90462,486.930262 C337.009683,486.886867 337.120701,486.852911 337.234161,486.829691 Z M346.312011,484.555229 C346.537234,484.509586 346.769087,484.509586 346.99431,484.555229 C347.107096,484.578045 347.217418,484.611788 347.323727,484.655986 C347.43137,484.700304 347.532828,484.754443 347.628206,484.818271 C347.726012,484.882811 347.814422,484.955183 347.894776,485.036065 C347.975612,485.117644 348.048679,485.207517 348.112464,485.30393 C348.175382,485.400083 348.2305,485.504083 348.275738,485.612517 C348.320446,485.718586 348.353468,485.827293 348.374976,485.938564 C348.422642,486.170189 348.422642,486.403014 348.376167,486.628672 C348.353468,486.745911 348.320446,486.854617 348.27645,486.958989 C348.2305,487.069121 348.175382,487.17312 348.111091,487.271361 C348.048679,487.365686 347.975612,487.455559 347.894319,487.537599 C347.814422,487.618021 347.726012,487.690392 347.63094,487.753116 C347.532828,487.81876 347.43137,487.8729 347.325332,487.916553 C347.217418,487.961415 347.107096,487.995158 346.99431,488.017974 C346.883098,488.040228 346.7689,488.051395 346.654435,488.051114 C346.537422,488.051395 346.423224,488.040228 346.310985,488.017767 C346.199226,487.995158 346.088904,487.961415 345.982595,487.917217 C345.874952,487.8729 345.773494,487.81876 345.678116,487.754932 C345.58031,487.690392 345.491899,487.618021 345.411545,487.537138 C345.330009,487.454411 345.254943,487.362818 345.188679,487.26491 C345.128681,487.17312 345.073564,487.069121 345.028326,486.960687 C344.984882,486.855465 344.951174,486.744501 344.928379,486.631043 C344.884058,486.404439 344.884058,486.168765 344.928874,485.93966 C344.951174,485.828702 344.984882,485.717738 345.029026,485.610829 C345.073564,485.504083 345.128681,485.400083 345.192973,485.301843 C345.254943,485.210385 345.330009,485.118792 345.41293,485.034665 C345.491899,484.955183 345.58031,484.882811 345.675382,484.820087 C345.773494,484.754443 345.874952,484.700304 345.98099,484.65665 C346.088904,484.611788 346.199226,484.578045 346.312011,484.555229 Z M355.379682,482.269214 C355.605577,482.223553 355.838343,482.223553 356.064789,482.269325 C356.290098,482.314639 356.504391,482.403885 356.695537,482.532028 C356.793682,482.596795 356.882092,482.669167 356.962447,482.750049 C357.043983,482.832776 357.119049,482.924369 357.185313,483.022278 C357.24531,483.114067 357.300428,483.218067 357.345666,483.326501 C357.38911,483.431723 357.422818,483.542687 357.445613,483.656145 C357.46835,483.770908 357.479533,483.889032 357.478729,484.007382 C357.477465,484.478596 357.291777,484.92819 356.962182,485.260452 C356.880701,485.343062 356.792127,485.416153 356.696837,485.479603 C356.504391,485.608615 356.290098,485.697861 356.064789,485.743175 C355.952684,485.765421 355.837377,485.776639 355.7218,485.776426 C355.605092,485.776707 355.490894,485.76554 355.378656,485.74308 C355.266896,485.720471 355.156574,485.686728 355.050265,485.64253 C354.942622,485.598212 354.841164,485.544073 354.745786,485.480245 C354.649535,485.416153 354.560961,485.343062 354.480491,485.261474 C354.149885,484.92819 353.964197,484.478596 353.962935,484.009442 C353.962741,483.891454 353.974521,483.77326 353.998098,483.657178 C354.021102,483.542687 354.05481,483.431723 354.098954,483.324813 C354.143492,483.218067 354.198609,483.114067 354.262901,483.015827 C354.325313,482.921502 354.39838,482.831628 354.479673,482.749589 C354.55957,482.669167 354.64798,482.596795 354.743052,482.534072 C354.841164,482.468427 354.942622,482.414288 355.04866,482.370634 C355.156574,482.325772 355.266896,482.292029 355.379682,482.269214 Z M365.29891,441.538852 L364.465442,442.284714 C361.848708,444.626404 358.109188,446.726933 353.389697,448.488602 C343.999781,451.994028 331.537773,453.928516 318.314434,453.928516 C305.089418,453.928516 292.627228,451.994183 283.234636,448.488594 C278.518096,446.726853 274.778863,444.625761 272.161554,442.28389 L271.328096,441.538143 L271.328096,458.963796 L271.329077,458.986953 C271.329077,467.586745 292.436383,475.421094 318.314434,475.421094 C344.192128,475.421094 365.297533,467.586911 365.29891,458.979106 L365.29891,441.538852 Z M337.24545,461.799066 C337.470236,461.753631 337.703003,461.753631 337.928898,461.799292 C338.041684,461.822108 338.152005,461.85585 338.258314,461.900048 C338.3645,461.944657 338.467989,461.99988 338.565767,462.064308 C338.656815,462.126424 338.748048,462.201709 338.831864,462.284892 C338.9111,462.364156 338.983269,462.452925 339.045836,462.54841 C339.111254,462.647017 339.165709,462.749174 339.210032,462.855873 C339.253008,462.961292 339.287127,463.073613 339.310711,463.188377 C339.333952,463.303235 339.345753,463.421653 339.345638,463.540365 C339.345345,463.654861 339.333595,463.769812 339.310564,463.882731 C339.287478,463.997626 339.25377,464.10859 339.209625,464.215499 C339.165382,464.323701 339.111338,464.425675 339.047639,464.521514 C338.983269,464.619732 338.9111,464.7085 338.830469,464.789154 C338.749194,464.870242 338.659679,464.943517 338.563679,465.007466 C338.467989,465.070511 338.3645,465.125734 338.25662,465.171051 C338.152005,465.21454 338.041684,465.248283 337.928898,465.271099 C337.81724,465.293337 337.702157,465.304532 337.586808,465.30424 C337.467032,465.304339 337.349347,465.292529 337.233741,465.268973 C337.120701,465.245839 337.009683,465.211883 336.90259,465.167644 C336.580181,465.035977 336.306436,464.810847 336.115423,464.520929 C336.050612,464.423409 335.996568,464.321435 335.952981,464.214833 C335.90818,464.106324 335.874472,463.99536 335.851677,463.881902 C335.829436,463.769993 335.818265,463.655033 335.818532,463.539752 C335.817858,463.417029 335.829081,463.29857 335.852027,463.182198 C335.875091,463.084135 335.912203,462.972417 335.959366,462.86487 C336.052276,462.641374 336.181861,462.446331 336.344797,462.281463 C336.424714,462.202784 336.516741,462.127341 336.61502,462.060774 C336.70812,461.998588 336.809767,461.944032 336.91591,461.899637 C337.020972,461.856242 337.131991,461.822286 337.24545,461.799066 Z M346.312011,459.511011 C346.537234,459.465367 346.769087,459.465367 346.99431,459.511011 C347.107096,459.533826 347.217418,459.567569 347.323727,459.611767 C347.43137,459.656085 347.532828,459.710224 347.628206,459.774052 C347.819914,459.902578 347.984588,460.068415 348.112284,460.261704 C348.176666,460.358736 348.231121,460.460892 348.275444,460.567591 C348.319677,460.673851 348.353117,460.783932 348.375405,460.896536 C348.399364,461.014951 348.411167,461.133376 348.411065,461.252103 C348.411349,461.372046 348.399594,461.48998 348.375976,461.605778 C348.353468,461.722082 348.320446,461.830789 348.27645,461.93516 C348.230646,462.046013 348.17606,462.14901 348.112058,462.246061 C347.985375,462.438717 347.821592,462.603061 347.630265,462.729733 C347.532828,462.794932 347.43137,462.849071 347.325332,462.892725 C347.217418,462.937587 347.107096,462.97133 346.99431,462.994146 C346.880648,463.017486 346.766424,463.029241 346.651888,463.029533 C346.539898,463.029241 346.425674,463.017486 346.313456,462.99444 C346.199226,462.97133 346.088904,462.937587 345.982595,462.893389 C345.874952,462.849071 345.773494,462.794932 345.678116,462.731104 C345.58031,462.666564 345.491899,462.594192 345.411545,462.51331 C345.246542,462.348659 345.117227,462.154322 345.029703,461.940195 C344.984882,461.831637 344.951174,461.720673 344.928379,461.607215 C344.905534,461.492345 344.894372,461.374452 344.895261,461.256338 C344.894568,461.130987 344.905779,461.01257 344.928729,460.896182 C344.951524,460.785331 344.985644,460.673011 345.029861,460.564575 C345.117475,460.353071 345.247228,460.158674 345.41065,459.995011 C345.493291,459.911235 345.581865,459.838144 345.677155,459.774693 C345.773494,459.710224 345.874952,459.656085 345.98099,459.612431 C346.088904,459.567569 346.199226,459.533826 346.312011,459.511011 Z M355.379682,457.256714 C355.605577,457.211053 355.838343,457.211053 356.063826,457.25663 C356.404448,457.325834 356.717504,457.493656 356.964355,457.73946 C357.042913,457.819799 357.118137,457.912189 357.184528,458.01088 C357.311112,458.201008 357.400236,458.416479 357.445503,458.643097 C357.489934,458.870249 357.489934,459.105923 357.445117,459.335027 C357.422818,459.445985 357.38911,459.556949 357.344966,459.663859 C357.300428,459.770605 357.24531,459.874605 357.181019,459.972845 C357.119052,460.065319 357.044979,460.155701 356.962772,460.238295 C356.882092,460.319505 356.793682,460.391876 356.69861,460.4546 C356.600459,460.520162 356.498813,460.574718 356.39267,460.619113 C356.287608,460.662508 356.176589,460.696464 356.063129,460.719684 C355.95023,460.74269 355.834931,460.754496 355.719316,460.754846 C355.607568,460.754554 355.493344,460.742798 355.381127,460.719753 C355.266896,460.696642 355.156574,460.6629 355.050265,460.618702 C354.942622,460.574384 354.841164,460.520245 354.745786,460.456417 C354.5524,460.328374 354.388616,460.164029 354.262301,459.971931 C354.198609,459.874605 354.143492,459.770605 354.098254,459.662171 C354.05481,459.556949 354.021102,459.445985 353.998307,459.332527 C353.95135,459.104498 353.95135,458.871673 353.997825,458.646015 C354.087996,458.181828 354.356656,457.77841 354.744485,457.520623 C354.841164,457.455927 354.942622,457.401788 355.04866,457.358134 C355.156574,457.313272 355.266896,457.279529 355.379682,457.256714 Z M318.314434,417.53125 C292.428346,417.53125 271.329077,425.3597 271.329077,433.965391 C271.329077,442.570632 292.427379,450.397266 318.314434,450.397266 C344.199121,450.397266 365.297533,442.569323 365.297533,433.965391 C365.297533,425.361301 344.19664,417.53125 318.314434,417.53125 Z" id="Combined-Shape"></path>
        </g>
    </g>
</svg>