<?xml version="1.0" encoding="UTF-8"?>
<svg viewBox="0 0 512 502" version="1.1" xmlns="http://www.w3.org/2000/svg" xmlns:xlink="http://www.w3.org/1999/xlink">
    <title>Combined Shape</title>
    <g id="Page-1" stroke="none" stroke-width="1" fill="none" fill-rule="evenodd">
        <g id="medical-report(1)" transform="translate(0, -5)" fill="currentColor" fill-rule="nonzero">
            <path d="M94.5103867,56.3371988 C98.6617598,56.3371988 102.027359,59.7027977 102.027359,63.8541707 C102.027359,68.0055438 98.6617598,71.3711427 94.5103867,71.3711427 L51.0532687,71.3711427 C31.1924267,71.3711427 15.0339438,87.5296255 15.0339438,107.390468 L15.0339438,455.469364 C15.0339438,475.330206 31.1924267,491.488689 51.0532687,491.488689 L362.678861,491.488689 C382.539703,491.488689 398.698186,475.330206 398.698186,455.469364 L398.698186,387.585094 C398.698186,383.433721 402.063785,380.068123 406.215158,380.068123 C410.366531,380.068123 413.731128,383.433721 413.731128,387.585094 L413.731128,455.468362 C413.731128,483.618921 390.828417,506.521631 362.677859,506.521631 L51.0532687,506.521631 C22.90271,506.521631 0,483.618921 0,455.468362 L0,107.390468 C0,79.2399089 22.90271,56.3371988 51.0532687,56.3371988 Z M37.5848596,178.011918 C41.7362326,178.011918 45.1018315,181.377516 45.1018315,185.528889 L45.1018315,455.469364 C45.1018315,458.750773 47.7718599,461.420802 51.0532687,461.420802 L362.677859,461.420802 C365.959267,461.420802 368.629296,458.750773 368.629296,455.469364 L368.629296,387.87976 C368.629296,383.728387 371.994895,380.362788 376.146268,380.362788 C380.297641,380.362788 383.66324,383.728387 383.66324,387.87976 L383.66324,455.469364 C383.66324,467.04049 374.248984,476.454745 362.677859,476.454745 L51.0532687,476.454745 C39.4821433,476.454745 30.0678877,467.04049 30.0678877,455.469364 L30.0678877,185.528889 C30.0678877,181.377516 33.4334865,178.011918 37.5848596,178.011918 Z M126.221986,341.273532 C134.797347,341.273532 141.774099,348.249282 141.774099,356.824643 L141.774099,395.773583 C141.774099,404.348944 134.797347,411.325696 126.221986,411.325696 L90.9002357,411.325696 C82.3248741,411.325696 75.3491242,404.348944 75.3491242,395.773583 L75.3491242,356.824643 C75.3491242,348.249282 82.3248741,341.273532 90.9002357,341.273532 Z M334.169492,392.578368 C338.320865,392.578368 341.686464,395.943967 341.686464,400.09534 C341.686464,404.246713 338.320865,407.612312 334.169492,407.612312 L164.086476,407.612312 C159.935103,407.612312 156.569505,404.246713 156.569505,400.09534 C156.569505,395.943967 159.935103,392.578368 164.086476,392.578368 Z M126.221986,356.307475 L90.9002357,356.307475 C90.6145908,356.307475 90.383068,356.538998 90.383068,356.824643 L90.383068,395.773583 C90.383068,396.059227 90.6145908,396.291752 90.9002357,396.291752 L126.221986,396.291752 C126.507631,396.291752 126.740156,396.059227 126.740156,395.773583 L126.740156,356.824643 C126.740156,356.538998 126.507631,356.307475 126.221986,356.307475 Z M408.730838,177.710236 C441.502831,162.414702 480.952901,173.833483 500.492017,204.268199 C510.326221,219.587788 514.033591,237.902138 510.931588,255.84064 C507.830586,273.77814 498.187815,289.785281 483.780285,300.912404 L458.380938,320.528694 C455.093516,323.065421 450.374862,322.459052 447.83613,319.173634 C445.299403,315.887214 445.905772,311.166556 449.191189,308.628826 L474.590536,289.013538 C479.052611,285.566756 482.928362,281.523628 486.153644,277.036496 L419.467078,277.036496 C416.162617,277.036496 413.24503,274.877622 412.278848,271.717487 L405.528608,249.640642 L383.195183,309.83956 C382.101714,312.787215 379.289364,314.741628 376.148272,314.741628 L376.113193,314.741628 C372.958069,314.726594 370.146722,312.743115 369.076305,309.774413 L345.544174,244.519078 L337.080064,275.125181 C336.179029,278.383538 333.214335,280.638629 329.834705,280.638629 L298.308525,280.638629 C300.904386,283.701545 303.820971,286.515899 307.053269,289.012536 L389.433267,352.636186 C390.250112,353.268614 391.392691,353.267612 392.210538,352.636186 L423.629476,328.370399 C426.915896,325.834674 431.636554,326.44004 434.174284,329.725458 C436.711012,333.011878 436.104643,337.732537 432.819225,340.270266 L401.399284,364.536054 C398.284251,366.941485 394.552826,368.144201 390.820399,368.144201 C387.087972,368.144201 383.356547,366.941485 380.242516,364.537056 L297.861515,300.912404 C283.453986,289.785281 273.812217,273.77814 270.710213,255.84064 C267.609211,237.902138 271.316582,219.586786 281.150786,204.268199 C300.690904,173.833483 340.13897,162.414702 372.912968,177.710236 L390.028611,185.69727 C390.53275,185.930797 391.110053,185.932801 391.614191,185.69727 Z M302.476936,344.459725 C306.628309,344.459725 309.993908,347.825324 309.993908,351.976697 C309.993908,356.12807 306.628309,359.493669 302.476936,359.493669 L164.086476,359.493669 C159.935103,359.493669 156.569505,356.12807 156.569505,351.976697 C156.569505,347.825324 159.935103,344.459725 164.086476,344.459725 Z M126.221986,242.326127 C134.797347,242.326127 141.774099,249.301877 141.774099,257.877238 L141.774099,296.826178 C141.774099,305.401539 134.797347,312.378292 126.221986,312.378292 L90.9002357,312.378292 C82.3248741,312.378292 75.3491242,305.401539 75.3491242,296.826178 L75.3491242,257.877238 C75.3491242,249.301877 82.3248741,242.326127 90.9002357,242.326127 Z M263.560069,293.893557 C267.711442,293.893557 271.077041,297.259155 271.077041,301.410528 C271.077041,305.561901 267.711442,308.9275 263.560069,308.9275 L164.086476,308.9275 C159.935103,308.9275 156.569505,305.561901 156.569505,301.410528 C156.569505,297.259155 159.935103,293.893557 164.086476,293.893557 Z M126.221986,257.360071 L90.9002357,257.360071 C90.6145908,257.360071 90.383068,257.591594 90.383068,257.877238 L90.383068,296.826178 C90.383068,297.111823 90.6145908,297.344348 90.9002357,297.344348 L126.221986,297.344348 C126.507631,297.344348 126.740156,297.111823 126.740156,296.826178 L126.740156,257.877238 C126.740156,257.591594 126.507631,257.360071 126.221986,257.360071 Z M487.840452,212.390538 C472.348474,188.260056 441.070855,179.207617 415.088191,191.333996 L397.971545,199.32103 C393.428287,201.441818 388.214516,201.440816 383.670255,199.32103 L366.555614,191.333996 C340.571948,179.207617 309.294329,188.259054 293.803353,212.390538 C286.005747,224.53596 283.06611,239.057748 285.525663,253.278856 C286.264331,257.548496 287.479074,261.675815 289.113765,265.60669 L324.11479,265.60669 L337.353681,217.735606 C338.22565,214.57948 341.040004,212.352452 344.311391,212.227169 C347.57977,212.117922 350.559498,214.108417 351.669003,217.188371 L376.247496,285.344254 L399.167245,223.564767 C400.287775,220.541942 403.198346,218.547439 406.434653,218.665706 C409.656929,218.759919 412.460258,220.898748 413.403387,223.981709 L425.029637,262.002553 L493.8851,262.003555 C494.844266,259.175169 495.601976,256.263595 496.118142,253.278856 C498.576693,239.056745 495.637056,224.53596 487.840452,212.390538 Z M251.532914,245.774914 C255.684287,245.774914 259.049886,249.140513 259.049886,253.291886 C259.049886,257.443259 255.684287,260.808857 251.532914,260.808857 L164.086476,260.808857 C159.935103,260.808857 156.569505,257.444261 156.569505,253.291886 C156.569505,249.140513 159.935103,245.774914 164.086476,245.774914 Z M126.221986,143.37772 C134.797347,143.37772 141.774099,150.354472 141.774099,158.929834 L141.774099,197.878773 C141.774099,206.454135 134.797347,213.430887 126.221986,213.430887 L90.9002357,213.430887 C82.3248741,213.430887 75.3491242,206.454135 75.3491242,197.878773 L75.3491242,158.929834 C75.3491242,150.354472 82.3248741,143.37772 90.9002357,143.37772 Z M251.532914,195.209747 C255.684287,195.209747 259.049886,198.575346 259.049886,202.726719 C259.049886,206.878092 255.684287,210.243691 251.532914,210.243691 L164.086476,210.243691 C159.935103,210.243691 156.569505,206.878092 156.569505,202.726719 C156.569505,198.575346 159.935103,195.209747 164.086476,195.209747 Z M126.221986,158.411664 L90.9002357,158.411664 C90.6145908,158.411664 90.383068,158.644189 90.383068,158.929834 L90.383068,197.878773 C90.383068,198.164418 90.6145908,198.396943 90.9002357,198.396943 L126.221986,198.396943 C126.507631,198.396943 126.740156,198.164418 126.740156,197.878773 L126.740156,158.929834 C126.740156,158.644189 126.507631,158.411664 126.221986,158.411664 Z M362.677859,86.4050865 C374.248984,86.4050865 383.66324,95.8193421 383.66324,107.390468 L383.66324,154.608076 C383.66324,158.759449 380.297641,162.125048 376.146268,162.125048 C371.994895,162.125048 368.629296,158.759449 368.629296,154.608076 L368.629296,107.390468 C368.629296,104.109059 365.959267,101.43903 362.677859,101.43903 L317.306418,101.43903 C313.155045,101.43903 309.789446,98.0734314 309.789446,93.9220584 C309.789446,89.7706854 313.155045,86.4050865 317.306418,86.4050865 Z M251.532914,147.091104 C255.684287,147.091104 259.049886,150.456703 259.049886,154.608076 C259.049886,158.759449 255.684287,162.125048 251.532914,162.125048 L164.086476,162.125048 C159.935103,162.125048 156.569505,158.759449 156.569505,154.608076 C156.569505,150.456703 159.935103,147.091104 164.086476,147.091104 Z M362.677859,56.3371988 C390.828417,56.3371988 413.731127,79.2399089 413.731127,107.390468 L413.731127,154.329447 C413.731127,158.48082 410.365528,161.846419 406.214155,161.846419 C402.062782,161.846419 398.697183,158.48082 398.697183,154.329447 L398.697183,107.390468 C398.697183,87.5296255 382.538701,71.3711427 362.677859,71.3711427 L319.220741,71.3711427 C315.069368,71.3711427 311.703769,68.0055438 311.703769,63.8541707 C311.703769,59.7027977 315.069368,56.3371988 319.220741,56.3371988 Z M96.4257112,86.4050865 C100.577084,86.4050865 103.941681,89.7706854 103.941681,93.9220584 C103.941681,98.0734314 100.576082,101.43903 96.4247089,101.43903 L51.0532687,101.43903 C47.7718599,101.43903 45.1018315,104.109059 45.1018315,107.390468 L45.1018315,153.49356 C45.1018315,157.644933 41.7362326,161.010532 37.5848596,161.010532 C33.4334865,161.010532 30.0678877,157.644933 30.0678877,153.49356 L30.0678877,107.390468 C30.0678877,95.8193421 39.4821433,86.4050865 51.0532687,86.4050865 Z M241.125416,5.4763646 C252.117233,5.4763646 261.060425,14.4195567 261.060425,25.4113741 L261.060425,27.8308368 L268.088293,27.8308368 C283.848878,27.8308368 296.669825,40.6527864 296.669825,56.4133708 L296.669825,80.0968437 C296.669825,95.8574281 283.848878,108.678375 268.088293,108.678375 L212.627072,108.678375 C208.475699,108.678375 205.1101,105.312777 205.1101,101.161403 C205.1101,97.0100305 208.475699,93.6444316 212.627072,93.6444316 L268.088293,93.6444316 C275.558159,93.6444316 281.635881,87.5667092 281.635881,80.0968437 L281.635881,56.4133708 C281.635881,48.942503 275.558159,42.8647806 268.088293,42.8647806 L256.06214,42.8647806 C250.528647,42.8647806 246.026482,38.3626156 246.026482,32.829122 L246.026482,25.4113741 C246.026482,22.7092733 243.827517,20.5103084 241.125416,20.5103084 L172.605711,20.5103084 C169.90361,20.5103084 167.704646,22.7092733 167.704646,25.4113741 L167.704646,32.829122 C167.704646,38.3626156 163.202481,42.8647806 157.668987,42.8647806 L145.642834,42.8647806 C138.172969,42.8647806 132.095246,48.942503 132.095246,56.4133708 L132.095246,80.0968437 C132.095246,87.5667092 138.172969,93.6444316 145.642834,93.6444316 L180.592745,93.6444316 C184.744118,93.6444316 188.109716,97.0100305 188.109716,101.161403 C188.109716,105.312777 184.744118,108.678375 180.592745,108.678375 L145.642834,108.678375 C129.883252,108.678375 117.061302,95.8574281 117.061302,80.0968437 L117.061302,56.4133708 C117.061302,40.6527864 129.88225,27.8308368 145.642834,27.8308368 L152.670702,27.8308368 L152.670702,25.4113741 C152.670702,14.4195567 161.613894,5.4763646 172.605711,5.4763646 Z M230.702884,53.7293107 C234.854257,53.7293107 238.219856,57.0949096 238.219856,61.2462826 C238.219856,65.3976556 234.854257,68.7632545 230.702884,68.7632545 L183.029246,68.7632545 C178.877873,68.7632545 175.512274,65.3976556 175.512274,61.2462826 C175.512274,57.0949096 178.877873,53.7293107 183.029246,53.7293107 Z" id="Combined-Shape"></path>
        </g>
    </g>
</svg>