<?xml version="1.0" encoding="UTF-8"?>
<svg viewBox="0 0 101 140" version="1.1" xmlns="http://www.w3.org/2000/svg" xmlns:xlink="http://www.w3.org/1999/xlink">
    <title>Combined Shape</title>
    <g id="Argon-Commander" stroke="none" stroke-width="1" fill="none" fill-rule="evenodd">
        <g id="Wireframe-Copy" transform="translate(-269.3133, -620.5)" fill="#000000" fill-rule="nonzero">
            <path d="M359.126742,706.636912 L362.147668,706.859479 L362.360894,709.881079 C362.551737,712.585505 362.081245,715.303842 361.009164,717.795061 L360.889239,718.062125 L361.124393,718.154516 C363.458211,719.105137 365.561002,720.574436 367.267149,722.454161 L367.547806,722.77123 L369.520733,725.056951 L367.549008,727.343709 C363.469599,732.074907 357.125517,734.12645 351.122357,732.793359 L350.793239,732.716125 L350.758782,732.809526 C347.901805,740.253528 342.96684,746.742016 336.567005,751.510667 L336.096119,751.856512 C329.017949,756.968014 320.534099,759.758801 311.635153,759.758801 C291.499303,759.758801 274.237912,745.399479 270.489199,725.74231 L269.696697,721.58666 L341.162239,721.586125 L341.172341,721.488556 C342.171097,712.706113 350.044419,705.96777 359.126742,706.636912 Z M344.565594,723.377036 C344.565594,724.317329 343.797785,725.08666 342.859353,725.08666 L273.927239,725.08666 C277.33972,742.980723 293.06557,756.258801 311.635153,756.258801 C319.995731,756.258801 327.730688,753.58039 334.043778,749.021394 C340.499054,744.348422 345.447151,737.737876 348.034949,730.044569 C348.319323,729.047289 349.343067,728.562895 350.253062,728.90482 C355.428658,730.785406 361.28675,729.246745 364.898292,725.058166 C363.078302,722.94963 360.632691,721.439462 357.902706,720.784107 C356.79365,720.527663 356.224903,719.216951 356.850525,718.219671 C358.357704,715.797704 359.068637,712.948331 358.869576,710.127451 C351.134619,709.557577 344.565594,715.76921 344.565594,723.377036 Z M367.313305,620.571951 C368.832088,620.571951 370.063305,621.803168 370.063305,623.321951 L370.063305,717 L366.563305,714 L366.563257,662.749951 L273.135257,662.749951 L273.135257,716 L269.635257,716 L269.635257,623.321951 C269.635257,621.803168 270.866474,620.571951 272.385257,620.571951 L367.313305,620.571951 Z M328.185685,695.27406 C329.124118,695.27406 329.891926,696.04339 329.891926,696.983683 L329.891926,714.336365 C329.891926,715.276658 329.124118,716.045989 328.185685,716.045989 L310.867345,716.045989 C309.928913,716.045989 309.161104,715.276658 309.161104,714.336365 L309.161104,696.983683 C309.189542,696.04339 309.928913,695.27406 310.867345,695.27406 L328.185685,695.27406 Z M303.843322,695.27406 C304.781754,695.27406 305.549562,696.04339 305.549562,696.983683 L305.549562,714.336365 C305.549562,715.276658 304.781754,716.045989 303.843322,716.045989 L286.524981,716.045989 C285.586549,716.045989 284.818741,715.276658 284.818741,714.336365 L284.818741,696.983683 C284.818741,696.04339 285.586549,695.27406 286.524981,695.27406 L303.843322,695.27406 Z M326.391104,698.77406 L312.661104,698.77406 L312.661104,712.54506 L326.391104,712.54506 L326.391104,698.77406 Z M302.048741,698.77406 L288.318741,698.77406 L288.318741,712.54506 L302.048741,712.54506 L302.048741,698.77406 Z M357.647825,694.892763 C358.586257,694.892763 359.354065,695.662038 359.354065,696.602263 C359.354065,697.542488 358.586257,698.311763 357.647825,698.311763 L339.978305,698.311763 C339.039873,698.311763 338.272065,697.542488 338.272065,696.602263 C338.272065,695.662038 339.039873,694.892763 339.978305,694.892763 L357.647825,694.892763 Z M316.014504,671.481795 C316.952936,671.481795 317.720744,672.251125 317.720744,673.191418 L317.720744,690.5441 C317.720744,691.484393 316.952936,692.253724 316.014504,692.253724 L298.696163,692.253724 C297.757731,692.253724 296.989923,691.484393 296.989923,690.5441 L296.989923,673.191418 C296.989923,672.251125 297.757731,671.481795 298.696163,671.481795 L316.014504,671.481795 Z M314.219923,674.981795 L300.489923,674.981795 L300.489923,688.752795 L314.219923,688.752795 L314.219923,674.981795 Z M288.647825,683.153346 C289.586257,683.153346 290.354065,683.922621 290.354065,684.862846 C290.354065,685.803071 289.586257,686.572346 288.647825,686.572346 L282.978305,686.572346 C282.039873,686.572346 281.272065,685.803071 281.272065,684.862846 C281.272065,683.922621 282.039873,683.153346 282.978305,683.153346 L288.647825,683.153346 Z M357.647825,683.153346 C358.586257,683.153346 359.354065,683.922621 359.354065,684.862846 C359.354065,685.803071 358.586257,686.572346 357.647825,686.572346 L325.978305,686.572346 C325.039873,686.572346 324.272065,685.803071 324.272065,684.862846 C324.272065,683.922621 325.039873,683.153346 325.978305,683.153346 L357.647825,683.153346 Z M288.647825,671.413929 C289.586257,671.413929 290.354065,672.183204 290.354065,673.123429 C290.354065,674.063654 289.586257,674.832929 288.647825,674.832929 L282.978305,674.832929 C282.039873,674.832929 281.272065,674.063654 281.272065,673.123429 C281.272065,672.183204 282.039873,671.413929 282.978305,671.413929 L288.647825,671.413929 Z M357.647825,671.413929 C358.586257,671.413929 359.354065,672.183204 359.354065,673.123429 C359.354065,674.063654 358.586257,674.832929 357.647825,674.832929 L325.978305,674.832929 C325.039873,674.832929 324.272065,674.063654 324.272065,673.123429 C324.272065,672.183204 325.039873,671.413929 325.978305,671.413929 L357.647825,671.413929 Z M366.563257,624.071951 L273.135257,624.071951 L273.135257,659.249951 L366.563257,659.249951 L366.563257,624.071951 Z M325.088969,631.152287 C325.91363,631.608185 326.16956,632.66245 325.714574,633.488765 L315.022413,652.009623 C314.567427,652.835938 313.515273,653.120874 312.690611,652.636483 C311.894387,652.180585 311.610021,651.12632 312.065006,650.300005 L322.757168,631.779147 C323.24059,630.952832 324.264307,630.667896 325.088969,631.152287 Z M308.112443,632.71946 C308.681199,633.460315 308.53901,634.543103 307.799627,635.112992 L298.983908,641.894666 L307.799627,648.647846 C308.53901,649.217735 308.681199,650.300523 308.112443,651.041378 C307.543687,651.782233 306.46305,651.924705 305.723667,651.354817 L295.144805,643.233904 C294.234795,642.550038 294.263233,641.182305 295.173243,640.498439 L305.723667,632.406021 C306.46305,631.836132 307.543687,631.978605 308.112443,632.71946 Z M332.027962,632.406021 L342.577971,640.498439 C343.459508,641.182305 343.516382,642.521544 342.606408,643.233904 L332.027962,651.354817 C331.288608,651.924705 330.208014,651.782233 329.63928,651.041378 C329.070547,650.300523 329.21273,649.217735 329.952084,648.647846 L338.767456,641.894666 L329.952084,635.112992 C329.21273,634.543103 329.070547,633.460315 329.63928,632.71946 C330.208014,631.978605 331.288608,631.836132 332.027962,632.406021 Z" id="Combined-Shape"></path>
        </g>
    </g>
</svg>