<?xml version="1.0" encoding="UTF-8"?>
<svg width="23px" height="22px" viewBox="0 0 23 22" version="1.1" xmlns="http://www.w3.org/2000/svg" xmlns:xlink="http://www.w3.org/1999/xlink">
    <title>edit</title>
    <g id="Argon-Commander" stroke="none" stroke-width="1" fill="none" fill-rule="evenodd">
        <g id="Bidding-Panel" transform="translate(-503, -612)" fill="#000000" fill-rule="nonzero">
            <g id="Group" transform="translate(28.0142, 253.5)">
                <g id="edit" transform="translate(475.7501, 359.0075)">
                    <path d="M18.75,7.3425 L10.37,15.7225 C10.08,16.0125 9.7,16.1925 9.29,16.2325 L6.36,16.5025 C6.36,16.5025 6.28,16.5025 6.25,16.5025 C5.92,16.5025 5.6,16.3725 5.37,16.1325 C5.11,15.8725 4.98,15.5025 5.01,15.1325 L5.28,12.2025 C5.32,11.7925 5.5,11.4125 5.79,11.1225 L14.15,2.7425 L18.75,7.3425 Z M20.69,1.5125 L19.98,0.8025 C18.91,-0.2675 17.16,-0.2675 16.09,0.8025 L15.21,1.6825 L19.81,6.2825 L20.69,5.4025 C21.21,4.8825 21.5,4.1925 21.5,3.4625 C21.5,2.7325 21.21,2.0325 20.69,1.5225 L20.69,1.5125 Z M19.5,17.7525 L19.5,11.9425 C19.5,11.5325 19.16,11.1925 18.75,11.1925 C18.34,11.1925 18,11.5325 18,11.9425 L18,17.7525 C18,18.9925 16.99,20.0025 15.75,20.0025 L3.75,20.0025 C2.51,20.0025 1.5,18.9925 1.5,17.7525 L1.5,5.7425 C1.5,4.5025 2.51,3.4925 3.75,3.4925 L9.56,3.4925 C9.97,3.4925 10.31,3.1525 10.31,2.7425 C10.31,2.3325 9.97,1.9925 9.56,1.9925 L3.75,1.9925 C1.68,1.9925 0,3.6725 0,5.7425 L0,17.7425 C0,19.8125 1.68,21.4925 3.75,21.4925 L15.75,21.4925 C17.82,21.4925 19.5,19.8125 19.5,17.7425 L19.5,17.7525 Z" id="Shape"></path>
                </g>
            </g>
        </g>
    </g>
</svg>