<?xml version="1.0" encoding="UTF-8"?>
<svg viewBox="0 0 62 68" version="1.1" xmlns="http://www.w3.org/2000/svg" xmlns:xlink="http://www.w3.org/1999/xlink">
    <g id="Page-1" stroke="none" stroke-width="1" fill="none" fill-rule="evenodd">
        <g id="export" transform="translate(-3, 0)" fill="currentColor" fill-rule="nonzero">
            <path d="M52.946,23.348 C59.305,23.348 64.286,27.239 64.287,32.207 L64.287,58.813 C64.287,63.78 59.305,67.671 52.947,67.671 L14.724,67.671 C8.365,67.671 3.384,63.781 3.384,58.813 L3.384,32.207 C3.384,27.24 8.365,23.349 14.724,23.349 L24.834,23.349 L24.834,29.349 L14.724,29.349 C11.717,29.349 9.384,30.885 9.384,32.207 L9.384,58.812 C9.384,60.134 11.717,61.67 14.724,61.67 L52.946,61.67 C55.953,61.67 58.286,60.134 58.286,58.812 L58.286,32.206 C58.286,30.884 55.953,29.348 52.946,29.348 L42.834,29.348 L42.834,23.348 Z M33.958,0 C34.725,0 35.492,0.291 36.078,0.877 L45.035,9.834 C46.207,11.005 46.207,12.905 45.035,14.076 C44.449,14.662 43.681,14.955 42.914,14.955 C42.147,14.955 41.379,14.662 40.793,14.076 L36.834,10.117 L36.834,40.842 C36.834,42.499 35.491,43.842 33.834,43.842 C32.177,43.842 30.834,42.499 30.834,40.842 L30.834,10.32 L27.078,14.076 C26.492,14.662 25.725,14.955 24.957,14.955 C24.189,14.955 23.422,14.662 22.835,14.076 C21.663,12.905 21.663,11.005 22.835,9.834 L31.792,0.877 C32.378,0.291 33.145,0 33.912,0 Z" id="Combined-Shape"></path>
        </g>
    </g>
</svg>