<?xml version="1.0" encoding="UTF-8"?>
<svg viewBox="0 0 61 61" version="1.1" xmlns="http://www.w3.org/2000/svg" xmlns:xlink="http://www.w3.org/1999/xlink">
    <g id="Page-1" stroke="none" stroke-width="1" fill="none" fill-rule="evenodd">
        <g id="import" fill="currentColor" fill-rule="nonzero">
            <path d="M49.561,16.464 C55.921,16.464 60.902,20.355 60.903,25.324 L60.903,51.929 C60.903,56.895 55.92,60.786 49.563,60.786 L11.34,60.786 C4.981,60.786 0,56.897 0,51.929 L0,25.324 C0,20.357 4.981,16.466 11.34,16.466 L21.45,16.466 L21.45,22.466 L11.34,22.466 C8.333,22.466 6,24.002 6,25.324 L6,51.928 C6,53.249 8.333,54.786 11.34,54.786 L49.561,54.786 C52.569,54.786 54.902,53.249 54.902,51.928 L54.902,25.321 C54.902,23.999 52.569,22.464 49.561,22.464 L39.45,22.464 L39.45,16.464 Z M30.652,0.117 C32.309,0.117 33.652,1.461 33.652,3.117 L33.652,33.639 L37.408,29.884 C37.994,29.298 38.761,29.004 39.529,29.004 C40.298,29.004 41.064,29.298 41.65,29.883 C42.822,31.053 42.822,32.953 41.65,34.124 L32.693,43.081 C32.107,43.667 31.341,43.958 30.573,43.958 L30.528,43.958 C29.762,43.958 28.994,43.667 28.408,43.081 L19.451,34.124 C18.279,32.953 18.279,31.053 19.451,29.883 C20.037,29.297 20.805,29.003 21.572,29.003 C22.339,29.003 23.107,29.297 23.693,29.883 L27.652,33.841 L27.652,3.117 C27.652,1.461 28.995,0.117 30.652,0.117 Z" id="Combined-Shape"></path>
        </g>
    </g>
</svg>