<?xml version="1.0" encoding="UTF-8"?>
<svg viewBox="0 0 512 512" version="1.1" xmlns="http://www.w3.org/2000/svg" xmlns:xlink="http://www.w3.org/1999/xlink">
    <g id="Page-1" stroke="none" stroke-width="1" fill="none" fill-rule="evenodd">
        <g id="growth" fill="currentColor" fill-rule="nonzero">
            <path d="M373.926,4.376 C379.511,-1.434 389.553,-1.435 395.139,4.376 L507.606,116.842 C511.896,121.133 513.179,127.584 510.858,133.189 C508.537,138.794 503.067,142.449 497,142.449 L447.733,142.449 L447.733,496.982 C447.733,505.266 441.017,511.982 432.733,511.982 L336.333,511.982 C328.049,511.982 321.333,505.266 321.333,496.982 L321.333,142.449 L272.066,142.449 C266,142.449 260.53,138.794 258.208,133.189 C255.887,127.584 257.17,121.132 261.46,116.842 Z M272.067,208.849 C280.351,208.849 287.067,215.565 287.067,223.849 L287.067,496.982 C287.067,505.266 280.351,511.982 272.067,511.982 L175.667,511.982 C167.383,511.982 160.667,505.266 160.667,496.982 L160.667,223.849 C160.667,215.565 167.383,208.849 175.667,208.849 Z M111.4,337.382 L15,337.382 C6.716,337.382 0,344.098 0,352.382 L0,496.982 C0,505.266 6.716,511.982 15,511.982 L111.4,511.982 C119.684,511.982 126.4,505.266 126.4,496.982 L126.4,352.382 C126.4,344.098 119.684,337.382 111.4,337.382 L111.4,337.382 Z" id="Combined-Shape"></path>
        </g>
    </g>
</svg>