<svg viewBox="0 0 26 26" version="1.1" xmlns="http://www.w3.org/2000/svg" xmlns:xlink="http://www.w3.org/1999/xlink">
    <g id="Argon-Commander" stroke="none" stroke-width="1" fill="none" fill-rule="evenodd">
        <g id="-" transform="translate(-815, -700)" fill="currentColor" fill-rule="nonzero">
            <path d="M827.539316,700.986412 C834.44288,700.986412 840.039316,706.582848 840.039316,713.486412 C840.039316,720.389976 834.44288,725.986412 827.539316,725.986412 C820.635751,725.986412 815.039316,720.389976 815.039316,713.486412 C815.039316,706.582848 820.635751,700.986412 827.539316,700.986412 Z M827.539316,702.122789 C821.263339,702.122789 816.175693,707.210435 816.175693,713.486412 C816.175693,719.762389 821.263339,724.850035 827.539316,724.850035 C833.815292,724.850035 838.902939,719.762389 838.902939,713.486412 C838.902939,707.210435 833.815292,702.122789 827.539316,702.122789 Z M828.79498,711.878404 C829.143075,712.172887 829.337656,712.610191 829.323398,713.065904 C829.323398,713.16815 829.289316,713.344322 829.289316,713.599986 C829.267782,713.836998 829.222079,714.071178 829.152939,714.298863 L828.48248,716.605699 C828.422177,716.815123 828.372909,717.027525 828.334775,717.242076 C828.29537,717.429088 828.272568,717.619224 828.266611,717.81024 C828.238144,718.039683 828.315488,718.269615 828.476816,718.43524 C828.697616,718.566197 828.954208,718.623863 829.209775,718.600035 C829.408163,718.610191 829.606991,718.593004 829.800644,718.548765 C829.953769,718.510875 830.103818,718.46151 830.249521,718.40106 L830.067685,719.116978 C829.529794,719.321519 829.099863,719.478697 828.77789,719.58856 C828.410702,719.705601 828.026767,719.761265 827.641513,719.753355 C827.094394,719.786754 826.553573,719.621275 826.118808,719.287437 C825.757675,719.00443 825.547861,718.570152 825.550644,718.111314 C825.550595,717.921226 825.563876,717.731383 825.590439,717.54315 C825.623007,717.323277 825.666611,717.105211 825.721103,716.889732 L826.397226,714.571568 C826.459726,714.349986 826.510849,714.139781 826.550644,713.940904 C826.591562,713.754283 826.612509,713.563805 826.613144,713.37274 C826.637704,713.149351 826.56998,712.925621 826.425644,712.753404 C826.213144,712.612096 825.957773,712.549791 825.704062,712.577281 C825.523202,712.578648 825.343417,712.605455 825.16998,712.656822 C824.988193,712.713658 824.829062,712.764781 824.698398,712.81024 L824.891562,712.06024 C825.334726,711.885973 825.757089,711.736363 826.158603,711.611363 C826.525986,711.492857 826.908993,711.429674 827.29498,711.423863 C827.833603,711.388121 828.366806,711.549693 828.79498,711.878404 Z M828.783603,707.236412 C829.203329,707.225767 829.610751,707.378551 829.91998,707.662535 C829.967294,707.703746 830.011728,707.74818 830.052841,707.795494 C830.547421,708.363463 830.4879,709.224791 829.919931,709.719371 C829.272909,710.298131 828.294296,710.298131 827.647226,709.719371 C827.596591,709.675719 827.549277,709.628404 827.505624,709.577769 C827.015829,709.009752 827.079257,708.152281 827.647226,707.662535 C827.957089,707.379576 828.36412,707.226939 828.783603,707.236412 Z" id="Combined-Shape"></path>
        </g>
    </g>
</svg>