<?xml version="1.0" encoding="UTF-8"?>
<svg viewBox="0 0 476 512" version="1.1" xmlns="http://www.w3.org/2000/svg" xmlns:xlink="http://www.w3.org/1999/xlink">
    <title>Shape</title>
    <g id="Page-1" stroke="none" stroke-width="1" fill="none" fill-rule="evenodd">
        <g id="log-file" transform="translate(-18, 0)" fill="currentColor">
            <path d="M299.341535,453.511424 C269.647335,453.511424 248.351494,415.118922 273.246632,385.724663 C289.443468,366.828354 323.63679,371.927358 331.435267,397.72232 C334.134739,406.420621 320.937317,410.319859 318.537786,401.621558 C313.738723,386.024605 292.742824,383.925015 283.44464,394.722906 C274.146456,405.820738 273.246632,419.018161 281.34505,430.115993 C286.144112,437.014646 297.541886,446.012888 319.137668,433.415349 L319.137668,424.417106 L300.241359,424.417106 C291.243117,424.417106 291.243117,410.919742 300.241359,410.919742 C337.434095,410.919742 332.934974,406.12068 332.934974,437.314587 C332.934974,439.414177 331.735208,441.813708 329.635618,443.013474 C317.637961,450.512009 307.739895,453.511424 299.341535,453.511424 Z M436.114821,329.335677 L59.6883421,329.335677 C44.6912712,329.335677 32.3936731,341.633275 32.3936731,356.330404 L32.3936731,471.207967 C32.3936731,486.205038 44.6912712,498.202695 59.6883421,498.202695 L452.311658,498.202695 C467.308729,498.202695 479.306385,486.205038 479.306385,471.207967 L479.306385,356.330404 C479.306385,341.633275 467.308729,329.335677 452.311658,329.335677 L436.114821,329.335677 Z M429.51611,315.838313 L429.51611,98.380785 L373.127124,98.380785 C357.53017,98.380785 344.632689,85.483304 344.632689,69.8863503 L344.632689,13.4973638 L135.273579,13.4973638 C106.179262,13.4973638 82.4838899,37.4926772 82.4838899,66.5869947 L82.4838899,315.838313 L429.51611,315.838313 Z M443.013474,92.6818981 L443.013474,315.838313 L452.311658,315.838313 C474.807264,315.838313 493.103691,334.134739 493.103691,356.330404 L493.103691,471.207967 C493.103691,493.703574 474.807264,512 452.311658,512 L59.6883421,512 C37.1927358,512 18.8963093,493.703574 18.8963093,471.207967 L18.8963093,356.330404 C18.8963093,334.134739 37.1927358,315.838313 59.6883421,315.838313 L68.9865261,315.838313 L68.9865261,66.5869947 C68.9865261,29.9941418 98.6807264,0 135.273579,0 L351.531342,0 C353.630931,0 355.130639,0.899824253 356.630346,2.09958992 L440.613943,86.0831869 C442.413591,87.8828354 443.613357,89.9824253 443.013474,92.6818981 Z M358.429994,23.3954306 L358.429994,69.8863503 C358.429994,77.9847686 365.028705,84.5834798 373.127124,84.5834798 L419.917985,84.5834798 L358.429994,23.3954306 Z M380.325718,277.14587 L140.972466,277.14587 C131.974224,277.14587 131.974224,263.348565 140.972466,263.348565 L380.325718,263.348565 C389.32396,263.348565 389.32396,277.14587 380.325718,277.14587 Z M380.325718,224.656122 L140.972466,224.656122 C131.974224,224.656122 131.974224,211.158758 140.972466,211.158758 L380.325718,211.158758 C389.32396,211.158758 389.32396,224.656122 380.325718,224.656122 Z M380.325718,172.466315 L140.972466,172.466315 C131.974224,172.466315 131.974224,158.66901 140.972466,158.66901 L380.325718,158.66901 C389.32396,158.66901 389.32396,172.466315 380.325718,172.466315 Z M208.159344,453.211482 C183.864089,453.211482 170.966608,433.415349 170.966608,413.919156 C170.966608,403.721148 174.265964,394.123023 180.264792,386.924429 C186.863503,378.826011 196.76157,374.326889 208.159344,374.326889 C232.454599,374.326889 245.052138,394.123023 245.052138,413.919156 C245.052138,424.117165 242.052724,433.415349 236.053896,440.613943 C229.155243,449.012302 219.557118,453.211482 208.159344,453.211482 Z M208.159344,387.824253 C191.962507,387.824253 184.763913,401.021675 184.763913,413.919156 C184.763913,426.816637 191.962507,439.714118 208.159344,439.714118 C215.357938,439.714118 221.356766,437.014646 225.555946,431.915641 C229.455185,427.41652 231.554774,420.817809 231.554774,413.919156 C231.554774,401.021675 224.35618,387.824253 208.159344,387.824253 Z M378.226128,453.211482 C350.331576,453.211482 343.132982,423.517282 356.930287,423.517282 C360.529584,423.517282 363.82894,426.516696 363.82894,430.115993 C363.82894,442.713533 392.923257,442.713533 392.923257,430.115993 C392.923257,424.417106 390.223784,422.917399 377.026362,420.517868 C366.228471,418.718219 350.031634,415.718805 350.031634,397.422378 C350.031634,384.824839 362.629174,374.326889 378.226128,374.326889 C406.420621,374.326889 413.619215,404.321031 399.82191,404.321031 C395.922671,404.321031 392.923257,401.321617 392.923257,397.422378 C392.923257,385.12478 363.82894,385.12478 363.82894,397.422378 C363.82894,403.121265 366.528412,404.620972 379.425893,407.020504 C390.223784,409.120094 406.420621,412.119508 406.420621,430.115993 C406.420621,443.013474 393.823081,453.211482 378.226128,453.211482 Z M296.042179,124.77563 C290.043351,124.77563 287.043937,117.277094 291.243117,113.077914 L318.537786,85.7832455 L291.243117,58.188635 C284.944347,51.8898653 294.542472,42.2917399 300.841242,48.5905097 L333.234915,80.6842414 C335.634446,83.3837141 335.634446,87.8828354 333.234915,90.5823081 L300.841242,122.67604 C299.641476,123.875806 297.841828,124.77563 296.042179,124.77563 Z M224.35618,124.77563 C222.556532,124.77563 220.756883,123.875806 219.557118,122.67604 L187.463386,90.5823081 C184.763913,87.8828354 184.763913,83.3837141 187.463386,80.6842414 L219.557118,48.5905097 C225.855888,42.2917399 235.454013,51.8898653 229.155243,58.188635 L201.860574,85.7832455 L229.155243,113.077914 C233.354423,117.277094 230.355009,124.77563 224.35618,124.77563 Z M251.650849,125.975395 C247.151728,125.975395 243.852373,121.476274 245.052138,117.277094 L262.44874,52.4897481 C264.54833,43.791447 277.745753,47.390744 275.346221,55.7891037 L258.249561,120.876391 C257.349736,123.875806 254.650264,125.975395 251.650849,125.975395 Z M152.970123,453.211482 L112.17809,453.211482 C108.278852,453.211482 105.279438,450.212068 105.279438,446.612771 L105.279438,381.225542 C105.279438,372.227299 119.076743,372.227299 119.076743,381.225542 L119.076743,439.714118 L152.970123,439.714118 C161.968366,439.714118 161.968366,453.211482 152.970123,453.211482 Z" id="Shape"></path>
        </g>
    </g>
</svg>