<?xml version="1.0" encoding="UTF-8"?>
<svg viewBox="0 0 490 512" version="1.1" xmlns="http://www.w3.org/2000/svg" xmlns:xlink="http://www.w3.org/1999/xlink">
    <title>Shape</title>
    <g id="Page-1" stroke="none" stroke-width="1" fill="none" fill-rule="evenodd">
        <g id="detective" fill="currentColor" fill-rule="nonzero">
            <path d="M488.730469,488.238281 L463.222656,379.773438 C457.664062,356.144531 439.539062,338.050781 415.902344,332.539062 L370.496094,320.960938 L374.65625,315.679688 C377.75,311.753906 379.109375,306.863281 378.488281,301.910156 C377.867188,296.953125 375.339844,292.550781 371.375,289.515625 C359.605469,280.5 333.050781,264.042969 318.167969,254.976562 C326.847656,244.082031 333.871094,231.058594 334.144531,214.625 C334.144531,214.574219 334.117188,206.652344 334.117188,206.652344 C334.210938,206.652344 341.839844,205.976562 345.359375,203.875 C348.644531,201.917969 352.863281,197.933594 354.339844,190.027344 C354.339844,190.027344 358.300781,167.753906 358.339844,167.472656 C358.582031,167.402344 380.398438,159.929688 388.160156,155.648438 C402.960938,147.480469 410.617188,137.886719 410.582031,127.285156 C410.550781,118.375 402.109375,111.019531 384.78125,104.800781 C371.894531,100.175781 354.265625,96.1875 333.550781,93.207031 L327.8125,68.722656 C326.867188,64.6875 322.828125,62.183594 318.800781,63.128906 C314.765625,64.074219 312.261719,68.109375 313.207031,72.144531 L322,109.671875 C316.722656,114.175781 290.210938,121.882812 244.582031,122.042969 C198.96875,122.191406 172.382812,114.671875 167.074219,110.203125 C167.074219,110.203125 186.113281,26.359375 186.128906,26.285156 C188.015625,17.988281 197.234375,13.28125 205.066406,16.636719 L232.046875,28.207031 C239.230469,31.285156 247.476562,31.300781 254.671875,28.25 C254.671875,28.25 283.414062,16.050781 283.4375,16.042969 C291.234375,12.734375 300.378906,17.398438 302.304688,25.617188 L305.171875,37.847656 C306.117188,41.882812 310.152344,44.390625 314.1875,43.4375 C318.21875,42.496094 320.722656,38.460938 319.777344,34.425781 C319.777344,34.425781 316.914062,22.203125 316.914062,22.195312 C312.894531,5.054688 293.808594,-4.652344 277.578125,2.230469 L248.8125,14.4375 C245.359375,15.902344 241.402344,15.894531 237.960938,14.417969 C237.960938,14.417969 210.992188,2.855469 210.980469,2.851562 C194.644531,-4.152344 175.421875,5.6875 171.5,22.964844 L155.414062,93.820312 C134.722656,96.945312 117.117188,101.050781 104.261719,105.765625 C86.976562,112.105469 78.589844,119.515625 78.621094,128.425781 C78.65625,138.523438 85.664062,147.664062 99.171875,155.480469 C107.277344,160.171875 131.550781,168.371094 132.125,168.53125 C132.15625,168.714844 136.25,190.824219 136.25,190.824219 C137.765625,198.660156 142.015625,202.613281 145.3125,204.550781 C148.785156,206.589844 156.414062,207.25 156.574219,207.25 C156.574219,207.25 156.601562,215.183594 156.601562,215.234375 C156.976562,231.125 163.636719,243.777344 171.992188,254.390625 C156.921875,263.558594 129.859375,280.296875 117.832031,289.511719 C113.863281,292.550781 111.335938,296.953125 110.714844,301.90625 C110.09375,306.863281 111.453125,311.753906 114.546875,315.675781 L119.074219,321.421875 L72.199219,333.71875 C48.605469,339.394531 30.601562,357.609375 25.207031,381.277344 L20.191406,403.285156 C19.269531,407.324219 21.796875,411.34375 25.835938,412.265625 C26.398438,412.394531 26.957031,412.457031 27.511719,412.457031 C30.933594,412.457031 34.023438,410.097656 34.816406,406.621094 L39.835938,384.609375 C43.957031,366.523438 57.726562,352.605469 75.773438,348.289062 C75.824219,348.277344 75.878906,348.265625 75.929688,348.25 L129.207031,334.273438 L148.347656,358.558594 L133.605469,378.226562 C131.226562,381.402344 131.730469,385.878906 134.757812,388.445312 C134.757812,388.445312 239.71875,477.433594 239.757812,477.464844 C241.113281,478.601562 242.835938,479.242188 244.605469,479.242188 C246.335938,479.242188 248.0625,478.644531 249.457031,477.460938 L354.453125,388.445312 C357.480469,385.878906 357.984375,381.398438 355.605469,378.226562 L340.863281,358.558594 L360.339844,333.847656 L412.28125,347.089844 C412.332031,347.105469 412.386719,347.117188 412.4375,347.128906 C430.511719,351.320312 444.378906,365.144531 448.625,383.203125 L474.136719,491.667969 C474.425781,492.894531 474.421875,496.996094 471.1875,496.996094 L410.066406,496.996094 L390.742188,406.15625 C389.878906,402.105469 385.894531,399.527344 381.84375,400.382812 C377.792969,401.246094 375.207031,405.226562 376.066406,409.28125 L394.726562,496.996094 L94.722656,496.996094 L112.566406,410.183594 C113.402344,406.128906 110.789062,402.160156 106.730469,401.328125 C102.667969,400.496094 98.707031,403.105469 97.871094,407.164062 L79.40625,496.996094 L18.054688,496.996094 C15.277344,496.996094 14.78125,494.503906 15.066406,493.25 L26.78125,441.855469 C27.703125,437.816406 25.171875,433.796875 21.136719,432.875 C17.09375,431.953125 13.074219,434.480469 12.152344,438.519531 C12.152344,438.519531 0.457031,489.847656 0.441406,489.914062 C-2.09375,501.03125 6.664062,512.003906 18.027344,512.003906 L471.207031,512.003906 C483.035156,512.003906 491.320312,499.246094 488.730469,488.238281 Z M339.582031,187.339844 C339.054688,190.171875 335.496094,191.710938 334.066406,191.667969 L334.003906,173.363281 C336.851562,172.796875 339.648438,172.207031 342.386719,171.585938 L339.582031,187.339844 Z M93.632812,128.679688 C95.554688,124.976562 111.949219,116.164062 151.800781,109.582031 C150.589844,122.28125 169.402344,128.628906 182.664062,131.527344 C198.980469,135.09375 221.121094,137.046875 243.929688,137.046875 C267.246094,136.964844 289.945312,134.851562 306.5625,131.101562 C319.800781,128.109375 338.28125,121.78125 337.351562,108.941406 L337.269531,108.941406 C377.167969,115.253906 393.625,123.953125 395.570312,127.636719 C395.253906,133.875 384.453125,144.097656 354.804688,152.875 C325.679688,161.496094 286.742188,166.363281 245.167969,166.574219 L244.210938,166.578125 C203.015625,166.578125 163.515625,161.988281 134.566406,153.632812 C104.863281,145.0625 93.992188,134.914062 93.632812,128.679688 Z M150.984375,188.035156 L148.105469,172.472656 C150.835938,173.0625 153.621094,173.625 156.457031,174.15625 L156.519531,192.265625 C155.089844,192.316406 151.523438,190.800781 150.984375,188.035156 Z M171.46875,176.660156 C193.496094,179.878906 218.886719,181.582031 244.230469,181.582031 L244.230469,181.574219 C270.230469,181.433594 296.527344,179.507812 319.011719,176.007812 L319.144531,214.445312 C318.777344,234.492188 304.28125,248.964844 291.488281,261.734375 C291.488281,261.734375 266.191406,287.019531 245.621094,287.371094 C225.050781,287.160156 199.582031,262.050781 199.582031,262.050781 C186.699219,249.371094 172.105469,235 171.601562,214.957031 L171.46875,176.660156 Z M269.050781,394.574219 L266.714844,375.628906 L271.441406,373.382812 L276.082031,377.933594 L269.050781,394.574219 Z M213.121094,377.929688 L217.757812,373.382812 L222.488281,375.628906 L220.148438,394.574219 L213.121094,377.929688 Z M227.59375,342.730469 L206.84375,363.074219 L192.671875,329.515625 C203.414062,336.207031 215.214844,340.664062 227.59375,342.730469 Z M232.285156,363.671875 L229.171875,362.195312 L244.601562,347.066406 L260.027344,362.195312 L256.914062,363.671875 L232.285156,363.671875 Z M282.355469,363.074219 L261.34375,342.472656 C274.015625,340.15625 286.054688,335.335938 296.917969,328.1875 C296.90625,328.484375 282.355469,363.074219 282.355469,363.074219 L282.355469,363.074219 Z M282.15625,297.488281 C282.371094,303.972656 284.785156,310.476562 288.640625,315.667969 C275.566406,324.261719 260.476562,328.871094 244.683594,329.050781 C244.617188,329.050781 244.550781,329.050781 244.484375,329.054688 C228.601562,329.183594 213.390625,324.863281 200.113281,316.476562 C204.136719,311.214844 206.640625,304.539062 206.828125,297.8125 L206.8125,288.722656 C216.890625,296.253906 229.238281,302.230469 245.582031,302.371094 L245.644531,302.371094 L245.761719,302.371094 C260.863281,302.136719 272.523438,296.941406 282.117188,290.15625 L282.15625,297.488281 Z M149.84375,381.574219 L163.804688,362.945312 C165.84375,360.226562 165.796875,356.472656 163.695312,353.804688 L126.324219,306.390625 C125.53125,305.386719 125.933594,302.203125 126.949219,301.425781 C139.105469,292.113281 168.902344,273.8125 182.113281,265.800781 C184.460938,268.214844 191.152344,274.808594 191.765625,275.410156 L191.839844,296.9375 L191.839844,297.132812 C191.839844,297.140625 191.835938,297.246094 191.835938,297.253906 L191.835938,297.375 C191.6875,302.566406 183.285156,311.503906 182.695312,312.078125 C180.117188,314.585938 174.746094,326.765625 178.878906,335.417969 L225.445312,445.667969 L149.84375,381.574219 Z M244.601562,452.464844 L231.847656,422.269531 L237.226562,378.675781 L251.972656,378.675781 L257.355469,422.269531 L244.601562,452.464844 Z M325.394531,362.945312 L339.355469,381.574219 L263.753906,445.671875 L310.320312,335.421875 C314.25,327.199219 309.984375,315.21875 306.375,311.617188 C305.582031,310.824219 297.308594,301.816406 297.148438,296.988281 C297.148438,296.984375 297.144531,296.789062 297.144531,296.785156 L297.074219,277.332031 C298.488281,275.949219 306.011719,268.433594 308.019531,266.363281 C322.054688,274.886719 350.378906,292.332031 362.25,301.425781 C363.269531,302.207031 363.667969,305.386719 362.875,306.394531 L325.507812,353.804688 C323.402344,356.472656 323.355469,360.226562 325.394531,362.945312 Z" id="Shape"></path>
        </g>
    </g>
</svg>