<?xml version="1.0" encoding="UTF-8"?>
<svg viewBox="0 0 46 47" version="1.1" xmlns="http://www.w3.org/2000/svg" xmlns:xlink="http://www.w3.org/1999/xlink">
    <defs>
        <path d="M0,0 L1440,0 L1440,1106 L0,1106 L0,0 Z" id="path-1"></path>
        <filter x="-0.4%" y="-0.5%" width="100.9%" height="101.2%" filterUnits="objectBoundingBox" id="filter-2">
            <feOffset dx="1" dy="1" in="SourceAlpha" result="shadowOffsetOuter1"></feOffset>
            <feGaussianBlur stdDeviation="2" in="shadowOffsetOuter1" result="shadowBlurOuter1"></feGaussianBlur>
            <feComposite in="shadowBlurOuter1" in2="SourceAlpha" operator="out" result="shadowBlurOuter1"></feComposite>
            <feColorMatrix values="0 0 0 0 0   0 0 0 0 0   0 0 0 0 0  0 0 0 0.153846154 0" type="matrix" in="shadowBlurOuter1"></feColorMatrix>
        </filter>
    </defs>
    <g id="Argon-Commander" stroke="none" stroke-width="1" fill="none" fill-rule="evenodd">
        <g id="Dashboard" transform="translate(-37, -101)" xlink:href="#path-1">
            <use fill="black" fill-opacity="1" filter="url(#filter-2)" xlink:href="#path-1"></use>
            <path stroke="#979797" stroke-width="1" d="M1439.5,0.5 L1439.5,1105.5 L0.5,1105.5 L0.5,0.5 L1439.5,0.5 Z" stroke-linejoin="square"></path>
            <path d="M79.1636719,101.875 C79.6578125,101.875 80.0621094,102.279376 80.0621094,102.773613 L80.0621094,124.825576 L82.5507812,126.254371 C82.8292969,126.407135 83,126.703677 83,127.027178 C83,127.143998 82.9730469,127.260818 82.928125,127.368651 C82.85625,127.548374 82.7214844,127.701138 82.5507812,127.799985 L80.4304687,129.031085 L82.5507812,130.244213 C82.8292969,130.396977 83,130.693519 83,131.01702 C83,131.340521 82.8292969,131.637063 82.5507812,131.789827 L80.7,132.868163 L82.5507812,133.928526 C82.8292969,134.08129 83,134.377833 83,134.701333 C83,135.024834 82.8292969,135.321376 82.5507812,135.483127 L80.7,136.561462 L82.5507812,137.621826 C82.8292969,137.77459 83,138.071132 83,138.394633 C83,138.718133 82.8292969,139.014676 82.5507812,139.176426 L67.7445312,147.749194 C67.6097656,147.830069 67.4480469,147.875 67.2953125,147.875 C67.1425781,147.875 66.9808594,147.839055 66.8460937,147.75818 L57.0710938,142.150835 C57.0171875,142.402447 56.8644531,142.618114 56.6398437,142.752906 C56.4960938,142.833781 56.3433594,142.869726 56.190625,142.869726 C56.0378906,142.869726 55.8851562,142.824795 55.7414062,142.74392 L48.2035156,138.367674 C47.925,138.21491 47.7542969,137.918368 47.7542969,137.594867 L47.7542969,136.804088 L37.4582031,130.9002 C37.0269531,130.657575 36.8832031,130.109421 37.1257812,129.678087 C37.3683594,129.246752 37.9164062,129.102974 38.3476562,129.3456 L47.7542969,134.746264 L47.7542969,133.128761 L37.4582031,127.224873 C37.0269531,126.973261 36.8832031,126.425107 37.1257812,125.993773 C37.3683594,125.562439 37.9164063,125.418661 38.3476562,125.661286 L47.7542969,131.052964 L47.7542969,129.435461 L37.4582031,123.531574 C37.0269531,123.288948 36.8832031,122.740794 37.1257813,122.30946 C37.3683594,121.878126 37.9164063,121.734348 38.3476562,121.976973 L47.7453125,127.368651 L47.7453125,125.436633 L37.4492188,119.532746 C37.2785156,119.433898 37.14375,119.281134 37.071875,119.101411 C37.0269531,118.993578 37,118.876758 37,118.759938 C37,118.436438 37.1707031,118.139895 37.4402344,117.978145 L52.021875,109.234641 C52.3003906,109.063904 52.6507813,109.063904 52.9292969,109.225654 L60.2335937,113.422177 L60.2335937,102.773613 C60.2335937,102.279376 60.6378906,101.875 61.1320312,101.875 Z M78.903125,137.594867 L67.7355469,144.064881 C67.6007813,144.145756 67.4390625,144.190687 67.2863281,144.190687 C67.1335937,144.190687 66.971875,144.154742 66.8371094,144.073867 L57.0800781,138.475508 L57.0800781,140.093011 L67.2773438,145.942982 L80.2867188,138.394633 L78.903125,137.594867 Z M78.903125,133.910554 L67.7355469,140.380567 C67.6007813,140.461443 67.4390625,140.506373 67.2863281,140.506373 C67.1335937,140.506373 66.971875,140.470429 66.8371094,140.389554 L57.0800781,134.791195 L57.0800781,136.408698 L67.2773438,142.258669 L80.2867188,134.710319 L78.903125,133.910554 Z M49.5421875,126.470038 L49.5421875,137.091644 L55.2832031,140.425498 L55.2832031,129.758962 L49.5421875,126.470038 Z M78.6335938,130.06449 L67.7355469,136.38174 C67.6007813,136.462615 67.4390625,136.507545 67.2863281,136.507545 C67.2503906,136.507545 67.2054687,136.507545 67.1695313,136.498559 C67.0527344,136.489573 66.9449219,136.453629 66.8371094,136.390726 L57.9246094,131.277618 L57.0800781,130.792367 L57.0800781,132.724385 L67.2773438,138.574355 L80.2867188,131.026006 L78.6335938,130.06449 Z M71.1765625,121.770292 L69.5953125,122.668905 L73.3777344,124.843549 C73.6652344,125.005299 73.8359375,125.319813 73.8269531,125.6523 C73.8179688,125.984787 73.6203125,126.281329 73.3238281,126.425107 C72.8925781,126.631788 72.7398437,126.856442 72.7398437,126.964275 C72.7398437,127.081095 72.9195313,127.332707 73.4046875,127.548374 C73.7101562,127.683166 73.9167969,127.979708 73.9347656,128.321181 C73.9527344,128.662654 73.7820313,128.977168 73.4855469,129.147905 L70.1074219,131.106881 C69.9726562,131.196743 69.8109375,131.232687 69.6582031,131.232687 C69.4695313,131.232687 69.2808594,131.17877 69.128125,131.061951 C68.696875,130.756422 67.9960937,130.567713 67.2503906,130.567713 C66.5136719,130.567713 65.8128906,130.756422 65.3816406,131.061951 C65.0941406,131.259645 64.7167969,131.277618 64.4113281,131.106881 L59.5867187,128.339153 L57.9964844,129.237766 L67.2773438,134.566541 L80.3046875,127.018192 L71.1765625,121.770292 Z M67.7535156,123.711296 L61.3925781,127.32372 L64.8425781,129.300669 C65.5253906,128.968182 66.3699219,128.779474 67.2414062,128.779474 C68.121875,128.779474 68.9664063,128.959196 69.6492188,129.300669 L71.4011719,128.285236 C71.0867187,127.898833 70.925,127.458512 70.9160156,126.991234 C70.9160156,126.550913 71.0597656,126.137551 71.3292969,125.76912 L67.7535156,123.711296 Z M64.528125,116.971699 L52.4980469,123.774199 L50.4675781,124.924424 L56.190625,128.204361 L70.2691406,120.206705 L64.528125,116.971699 Z M66.8640625,125.535481 C67.4660156,125.535481 67.9242188,125.912898 67.9242188,126.434094 C67.9242188,126.955289 67.4660156,127.341693 66.8640625,127.341693 C66.684375,127.341693 66.5136719,127.305748 66.3609375,127.233859 C66.0195312,127.081095 65.8039062,126.775567 65.8039062,126.434094 C65.8039062,126.101607 66.0015625,125.814051 66.325,125.6523 C66.4867188,125.580411 66.6753906,125.535481 66.8640625,125.535481 Z M52.4890625,111.040853 L39.6683594,118.741966 L48.64375,123.891019 L50.2339844,122.992406 L46.271875,120.718915 C45.984375,120.557164 45.8136719,120.24265 45.8226563,119.910163 C45.840625,119.56869 46.0382812,119.272148 46.3347656,119.12837 C46.7660156,118.912703 46.9277344,118.688049 46.9277344,118.580216 C46.9277344,118.472382 46.7660156,118.265701 46.4335938,118.085979 C46.1550781,117.933214 45.9753906,117.636672 45.9664063,117.313172 C45.9664063,116.989671 46.128125,116.684142 46.4066406,116.522392 L49.9195313,114.410651 C50.1980469,114.248901 50.5394531,114.239915 50.8179688,114.392679 C51.2582031,114.635305 51.878125,114.770097 52.5160156,114.770097 C53.171875,114.770097 53.8007813,114.626319 54.2410156,114.374707 C54.5195313,114.212957 54.8609375,114.212957 55.1394531,114.374707 L60.2605469,117.322158 L61.8507813,116.423545 L52.4890625,111.040853 Z M78.2652344,103.672226 L62.0214844,103.672226 L62.0214844,114.455582 L63.665625,115.399126 L63.7734375,115.336223 L63.7734375,108.093402 C63.7734375,107.599165 64.1777344,107.194789 64.671875,107.194789 C65.4265625,107.194789 66.0464844,106.574746 66.0464844,105.819911 C66.0464844,105.325674 66.4507813,104.921298 66.9449219,104.921298 L73.3417969,104.921298 C73.8359375,104.921298 74.2402344,105.325674 74.2402344,105.819911 C74.2402344,106.574746 74.8601563,107.194789 75.6148438,107.194789 C76.1089844,107.194789 76.5132813,107.599165 76.5132813,108.093402 L76.5132813,122.776739 L78.2652344,123.783185 L78.2652344,103.672226 Z M54.6542969,116.171933 C54.0253906,116.432531 53.2886719,116.576309 52.5160156,116.576309 C51.7703125,116.576309 51.0605469,116.441517 50.440625,116.198891 L48.3652344,117.447963 C48.5988281,117.789436 48.7246094,118.17584 48.715625,118.57123 C48.715625,119.020536 48.5628906,119.433898 48.2933594,119.80233 L52.0488281,121.959001 L58.4367187,118.346576 Z M72.578125,106.718524 L67.7175781,106.718524 C67.4210938,107.742943 66.6035156,108.551695 65.5792969,108.857223 L65.5792969,115.497973 L67.1425781,116.378614 C67.7625,115.444056 68.8316406,114.850972 69.9996094,114.850972 C71.9042969,114.850972 73.4496094,116.396586 73.4496094,118.301646 C73.4496094,118.930675 73.2789063,119.532746 72.9734375,120.053941 C72.9824219,120.107858 72.9914063,120.152789 72.9914063,120.206705 C72.9914063,120.377442 72.9375,120.539192 72.8566406,120.673984 L74.7164063,121.743334 L74.7164063,108.857223 C73.6921875,108.560681 72.8835938,107.742943 72.578125,106.718524 Z M52.9292969,117.744506 C53.5851562,117.744506 54.0703125,118.166854 54.0703125,118.715008 C54.0703125,119.263162 53.5851563,119.68551 52.9292969,119.68551 C52.740625,119.68551 52.5519531,119.640579 52.3902344,119.56869 C52.021875,119.40694 51.7882812,119.074453 51.7882812,118.715008 C51.7882812,118.355563 52.0039062,118.041048 52.3542969,117.870312 C52.525,117.789436 52.7226562,117.744506 52.9292969,117.744506 Z M69.9996094,116.648198 C69.4875,116.648198 69.0203125,116.890823 68.7148438,117.268241 L71.5539062,118.876758 C71.6167969,118.697036 71.6527344,118.508327 71.6527344,118.301646 C71.6527344,117.394047 70.9070313,116.648198 69.9996094,116.648198 Z M69.7660156,110.079337 C70.3679688,110.079337 70.8621094,110.58256 70.8621094,111.175645 C70.8621094,111.786702 70.3769531,112.271953 69.7660156,112.271953 C69.1550781,112.271953 68.6699219,111.777715 68.6699219,111.175645 C68.6699219,110.564588 69.1640625,110.079337 69.7660156,110.079337 Z" id="Combined-Shape" fill="currentColor" fill-rule="nonzero"></path>
        </g>
    </g>
</svg>