<?xml version="1.0" encoding="UTF-8"?>
<svg viewBox="0 0 512 512" version="1.1" xmlns="http://www.w3.org/2000/svg" xmlns:xlink="http://www.w3.org/1999/xlink">
    <g stroke="none" stroke-width="1" fill="none" fill-rule="evenodd">
        <path d="M463.748,48.251 C399.412,-16.085 294.735,-16.084 230.399,48.252 C186.454,92.197 171.19,156.958 190.218,215.713 L4.396,401.536 C1.583,404.349 0.001,408.157 0.001,412.142 L0.001,497 C0.001,505.291 6.71,512 15.001,512 L99.859,512 C103.843,512 107.652,510.418 110.464,507.605 L131.675,486.379 C134.912,483.142 136.494,478.601 135.967,474.045 L133.33,451.252 L164.912,448.278 C172.09,447.604 177.759,441.935 178.433,434.757 L181.407,403.175 L204.2,405.826 C208.433,406.397 212.696,404.976 215.904,402.135 C219.097,399.279 220.928,395.206 220.928,390.929 L220.928,363 L248.35,363 C252.334,363 256.143,361.418 258.955,358.605 L297.422,320.647 C356.162,339.69 419.803,325.576 463.748,281.601 C528.084,217.266 528.084,112.587 463.748,48.251 Z M421.313,154.321 C403.764,171.87 375.229,171.87 357.68,154.321 C340.131,136.772 340.131,108.237 357.68,90.688 C375.229,73.139 403.764,73.139 421.313,90.688 C438.862,108.237 438.861,136.772 421.313,154.321 Z" fill="currentColor" fill-rule="nonzero"></path>
    </g>
</svg>