<?xml version="1.0" encoding="UTF-8"?>
<svg viewBox="0 0 40 36" version="1.1" xmlns="http://www.w3.org/2000/svg" xmlns:xlink="http://www.w3.org/1999/xlink">
    <g id="Argon-Commander" stroke="none" stroke-width="1" fill="none" fill-rule="evenodd">
        <path d="M16.631173,1.36839835 C17.221887,1.36839835 17.6995623,1.84984265 17.6995623,2.44494612 L17.7035349,18.2179782 C17.7035349,18.5098288 17.8163327,18.778996 18.0043692,18.9723501 L29.0869666,30.1395772 C29.278735,30.3365703 29.3955054,30.6057375 29.3955054,30.8977094 C29.3955054,31.2275273 29.2487599,31.5230169 29.0154598,31.7202526 C25.9908649,34.385239 22.0333103,36 17.6995623,36 C8.2008294,36 0.5,28.2367259 0.5,18.6653368 C0.5,9.45760862 7.62889504,1.92189553 16.631173,1.36839835 Z M38.4277585,19.5788559 C39.0222043,19.5788559 39.5,20.0640605 39.5,20.6590427 C39.5,20.7235749 39.4925363,20.7879858 39.4774886,20.8523967 C39.2065089,24.6771435 37.7017353,28.1531494 35.3617522,30.8900675 C35.1698635,31.1781577 34.8426655,31.3677514 34.4703243,31.3677514 C34.1617855,31.3677514 33.8793696,31.2349266 33.6838694,31.0226496 L24.1662366,21.4323375 C23.9668842,21.2353445 23.8390386,20.9622956 23.8390386,20.659164 C23.8390386,20.0640605 24.3205662,19.5788559 24.9112801,19.5788559 L38.4277585,19.5788559 Z M20.8294914,0 C29.4780874,0.534574199 36.3963141,7.5056304 36.9268371,16.2163878 C36.9268371,16.8153729 36.4454299,17.3005775 35.854716,17.3005775 L20.8294914,17.3005775 C20.2387775,17.3005775 19.7611021,16.8153729 19.7611021,16.2163878 L19.7611021,1.0803081 C19.7611021,0.485204628 20.2387775,0.00363903471 20.8294914,0 Z" id="Combined-Shape" fill="currentColor" fill-rule="nonzero"></path>
    </g>
</svg>