<?xml version="1.0" encoding="UTF-8"?>
<svg width="428px" height="456px" viewBox="0 0 428 456" version="1.1" xmlns="http://www.w3.org/2000/svg" xmlns:xlink="http://www.w3.org/1999/xlink">
    <title>Combined Shape</title>
    <g id="Page-1" stroke="none" stroke-width="1" fill="none" fill-rule="evenodd">
        <g id="recovery" transform="translate(-42, -28)" fill="#000000" fill-rule="nonzero">
            <path d="M275.2,29.472 C277.369853,28.3165779 279.984954,28.3752326 282.10082,29.6267801 C284.216687,30.8783276 285.527561,33.141909 285.56,35.6 L285.56,57.616 C287.629333,57.9093333 289.690667,58.232 291.744,58.584 C463.868,86.24 530.672,304.252 403.976,423.82 C324.124,503.42 186.04,502.544 106.776,422.472 C27.072,347.564 20.588,214.536 92.012,132.272 C100.601626,121.965888 115.367946,119.349135 126.976,126.076 C133.773411,130.095652 138.452001,136.908605 139.762759,144.69605 C141.073517,152.483496 138.883002,160.452635 133.776,166.476 C107.101035,197.971125 93.7003069,238.59495 96.4,279.78 C104.8,414.132 270.8,479.2 367.204,384.304 C460.436,295.74 411.56,135.336 285.56,112.304 L285.56,137.48 C285.555016,139.949462 284.248494,142.233372 282.122301,143.489385 C279.996108,144.745399 277.365238,144.787439 275.2,143.6 L182.82,92.688 C180.613532,91.4360605 179.250132,89.0948987 179.250132,86.558 C179.250132,84.0211013 180.613532,81.6799395 182.82,80.428 Z M271.56,47.456 L200.692,86.556 L271.56,125.628 L271.56,104.12 C271.579415,102.116362 272.451702,100.21593 273.958291,98.8948965 C275.464881,97.5738626 277.463007,96.9574088 279.452,97.2 C421.636,115.704 481.168,295.2 376.948,394.352 C343.191737,427.222631 297.489578,444.904283 250.4,443.312 C106.856,438.932 29.348,266.736 123.096,157.44 C126.340716,153.618603 127.055962,148.254791 124.925958,143.716693 C122.795953,139.178595 118.212813,136.301638 113.2,136.356 C109.163316,136.356564 105.335477,138.150314 102.752,141.252 C69.5720304,180.740416 53.0019349,231.559103 56.528,283.016 C68.032,451.108 272.564,530.96 394.28,413.72 C516.58,298.048 445.36,88 277.808,70.76 C274.25357,70.3759299 271.559739,67.3751202 271.56,63.8 L271.56,47.456 Z M285.748,164.28 C287.484694,164.31292 289.153781,164.959018 290.46,166.104 L331.948,203.864 C333.366324,205.218045 334.189237,207.07967 334.236,209.04 L334.236,350.168 C334.220574,363.697648 323.257645,374.662366 309.728,374.68 L202.224,374.68 C188.706708,374.651324 177.764,363.685322 177.764,350.168 L177.764,191.28 C177.781633,176.375622 189.859622,164.297633 204.764,164.28 Z M278.764,178.28 L204.764,178.28 C197.587953,178.288816 191.772816,184.103953 191.763987,191.28 L191.763987,350.168 C191.755141,355.956994 196.435033,360.660151 202.224,360.68 L309.744,360.68 C315.545314,360.671184 320.245392,355.969317 320.252,350.168 L320.252,216.04 L285.764,216.04 C281.898007,216.04 278.764,212.905993 278.764,209.04 L278.764,178.28 Z M270.272,302.448 C274.137993,302.448 277.272,305.582007 277.272,309.448 C277.272,313.313993 274.137993,316.448 270.272,316.448 L220.692,316.448 C216.826007,316.448 213.692,313.313993 213.692,309.448 C213.692,305.582007 216.826007,302.448 220.692,302.448 Z M291.308,266.292 C295.173993,266.292 298.308,269.426007 298.308,273.292 C298.308,277.157993 295.173993,280.292 291.308,280.292 L220.692,280.292 C216.826007,280.292 213.692,277.157993 213.692,273.292 C213.692,269.426007 216.826007,266.292 220.692,266.292 Z M291.308,230.144 C295.173993,230.144 298.308,233.278007 298.308,237.144 C298.308,241.009993 295.173993,244.144 291.308,244.144 L220.692,244.144 C216.826007,244.144 213.692,241.009993 213.692,237.144 C213.692,233.278007 216.826007,230.144 220.692,230.144 Z M292.744,187.116 L292.744,202.04 L309.144,202.04 L292.744,187.116 Z" id="Combined-Shape"></path>
        </g>
    </g>
</svg>