<?xml version="1.0" encoding="UTF-8"?>
<svg viewBox="0 0 512 512" version="1.1" xmlns="http://www.w3.org/2000/svg" xmlns:xlink="http://www.w3.org/1999/xlink">
    <title>Combined Shape</title>
    <g id="Page-1" stroke="none" stroke-width="1" fill="none" fill-rule="evenodd">
        <g id="top-secret" fill="currentColor" fill-rule="nonzero">
            <path d="M218.33,0 C239.112136,0 255.95,16.8378644 255.95,37.62 L255.95,45.14 C255.95,57.6378644 266.072136,67.76 278.57,67.76 L329.48,67.76 C333.622136,67.76 336.98,71.1178644 336.98,75.26 C336.98,79.4021356 333.622136,82.76 329.48,82.76 L278.57,82.76 C257.787864,82.76 240.95,65.9221356 240.95,45.14 L240.95,37.62 C240.95,25.1221356 230.827864,15 218.33,15 L60.2,15 C47.7109749,15 37.59,25.1232968 37.59,37.62 L37.5899539,286.130012 L67.764,286.13 L67.764,143.033 C67.764,122.254864 84.6048644,105.414 105.383,105.414 L406.577,105.414 C427.355136,105.414 444.196,122.254864 444.196,143.033 L444.196,286.13 L474.37,286.13 L474.37,105.38 C474.37,92.8894581 464.245187,82.76 451.76,82.76 L364.48,82.76 C360.337864,82.76 356.98,79.4021356 356.98,75.26 C356.98,71.1178644 360.337864,67.76 364.48,67.76 L451.76,67.76 C472.530999,67.76 489.37,84.6067268 489.37,105.38 L489.370886,289.25387 C502.651541,295.051258 511.96,308.300462 511.96,323.75 L511.96,474.34 C511.96,495.120204 495.124067,511.96 474.35,511.96 L37.62,511.96 C16.8378644,511.96 0,495.122136 0,474.34 L0,323.75 C0,308.298357 9.30894956,295.052844 22.5899201,289.255514 L22.59,37.62 C22.59,16.8397957 39.4259333,0 60.2,0 L218.33,0 Z M406.577,120.414 L105.383,120.414 C92.8891356,120.414 82.764,130.539136 82.764,143.033 L82.764,286.13 L110.47,286.13 C114.612136,286.13 117.97,289.487864 117.97,293.63 C117.97,297.772136 114.612136,301.13 110.47,301.13 L37.62,301.13 C25.15523,301.13 15,311.238764 15,323.75 L15,474.34 C15,486.837864 25.1221356,496.96 37.62,496.96 L474.35,496.96 C486.839025,496.96 496.96,486.836703 496.96,474.34 L496.96,323.75 C496.96,313.213507 489.755936,304.376911 480.037717,301.853302 L479.939333,301.82916 C478.151041,301.372223 476.278144,301.13 474.35,301.13 L145.47,301.13 C141.327864,301.13 137.97,297.772136 137.97,293.63 C137.97,289.487864 141.327864,286.13 145.47,286.13 L429.196,286.13 L429.196,143.033 C429.196,130.539136 419.070864,120.414 406.577,120.414 Z M425.401,406.606 C429.543136,406.606 432.901,409.963864 432.901,414.106 C432.901,418.248136 429.543136,421.606 425.401,421.606 L410.312,421.606 L410.312,474.345 C410.312,478.487136 406.954136,481.845 402.812,481.845 C398.669864,481.845 395.312,478.487136 395.312,474.345 L395.312,421.606 L380.222,421.606 C376.079864,421.606 372.722,418.248136 372.722,414.106 C372.722,409.963864 376.079864,406.606 380.222,406.606 L425.401,406.606 Z M282.335,406.606 C294.782732,406.606 304.895,416.70344 304.895,429.166 C304.895,440.65053 296.303678,450.13682 285.20033,451.545575 L302.697301,469.041699 C305.626233,471.970631 305.626233,476.719369 302.697301,479.648301 C299.768369,482.577233 295.019631,482.577233 292.090699,479.648301 L274.775,462.333 L274.775,474.345 C274.775,478.487136 271.417136,481.845 267.275,481.845 C263.132864,481.845 259.775,478.487136 259.775,474.345 L259.775,414.106 C259.775,409.963864 263.132864,406.606 267.275,406.606 L282.335,406.606 Z M169.387,406.606 C173.529136,406.606 176.887,409.963864 176.887,414.106 C176.887,418.248136 173.529136,421.606 169.387,421.606 L154.298,421.606 L154.298,436.726 L169.387,436.726 C173.529136,436.726 176.887,440.083864 176.887,444.226 C176.887,448.368136 173.529136,451.726 169.387,451.726 L154.298,451.726 L154.298,466.844 L169.387,466.845 C173.447917,466.845 176.755018,470.072474 176.883146,474.102269 L176.887,474.345 C176.887,478.487136 173.529136,481.845 169.387,481.845 L146.798,481.845 C142.655864,481.845 139.298,478.487136 139.298,474.345 L139.298,414.106 C139.298,409.963864 142.655864,406.606 146.798,406.606 L169.387,406.606 Z M350.103,406.606 C354.245136,406.606 357.603,409.963864 357.603,414.106 C357.603,418.248136 354.245136,421.606 350.103,421.606 L335.013,421.606 L335.013,436.726 L350.103,436.726 C354.245136,436.726 357.603,440.083864 357.603,444.226 C357.603,448.368136 354.245136,451.726 350.103,451.726 L335.013,451.726 L335.013,466.844 L350.103,466.845 C354.163917,466.845 357.471018,470.072474 357.599146,474.102269 L357.603,474.345 C357.603,478.487136 354.245136,481.845 350.103,481.845 L327.513,481.845 C323.370864,481.845 320.013,478.487136 320.013,474.345 L320.013,414.106 C320.013,409.963864 323.370864,406.606 327.513,406.606 L350.103,406.606 Z M116.678125,406.606 C120.820261,406.606 124.178125,409.963864 124.178125,414.106 C124.178125,418.248136 120.820261,421.606 116.678125,421.606 L101.618,421.606 C97.4471356,421.606 94.058,424.995136 94.058,429.166 C94.058,433.339357 97.4496162,436.726 101.618,436.726 C107.675306,436.726 113.368787,439.136725 117.573301,443.339699 C126.379965,452.146363 126.379501,466.4241 117.573301,475.230301 C113.370115,479.433487 107.67531,481.845 101.618,481.845 L86.558,481.845 C82.4158644,481.845 79.058,478.487136 79.058,474.345 C79.058,470.202864 82.4158644,466.845 86.558,466.845 L101.618,466.845 C103.653828,466.845 105.547135,466.043263 106.966699,464.623699 C109.915189,461.675209 109.915345,456.894946 106.96767,453.947272 C105.547376,452.527497 103.654455,451.726 101.618,451.726 C89.1702683,451.726 79.058,441.62856 79.058,429.166 C79.058,416.710864 89.1628644,406.606 101.618,406.606 L116.678125,406.606 Z M239.033342,407.808761 C243.043613,408.845589 245.454066,412.937071 244.417239,416.947342 C243.380411,420.957613 239.288929,423.368066 235.278658,422.331239 C227.584236,420.3419 219.364079,422.505523 213.633046,428.236555 C204.797985,437.064108 204.797985,451.386892 213.635301,460.216699 C219.36424,465.945638 227.583523,468.109085 235.278834,466.119716 C239.289131,465.082986 243.380554,467.493538 244.417284,471.503834 C245.454014,475.514131 243.043462,479.605554 239.033166,480.642284 C226.243185,483.948712 212.549789,480.344391 203.030954,470.825555 C188.332015,456.139108 188.332015,432.311892 203.028699,417.627699 C212.549696,408.106703 226.244126,404.5022 239.033342,407.808761 Z M282.335,421.606 L274.775,421.606 L274.775,436.726 L282.335,436.726 C286.505864,436.726 289.895,433.336864 289.895,429.166 C289.895,424.992643 286.503384,421.606 282.335,421.606 Z M264.776875,316.737198 C285.285259,320.065577 299.212405,339.389092 295.884026,359.897476 C292.555647,380.405861 273.232132,394.333007 252.723747,391.004627 C232.215363,387.676248 218.288217,368.352733 221.616596,347.844349 C224.944975,327.335964 244.26849,313.408818 264.776875,316.737198 Z M208.04,316.248 C212.182136,316.248 215.54,319.605864 215.54,323.748 C215.54,327.890136 212.182136,331.248 208.04,331.248 L192.951,331.248 L192.951,383.987 C192.951,388.129136 189.593136,391.487 185.451,391.487 C181.308864,391.487 177.951,388.129136 177.951,383.987 L177.951,331.248 L162.861,331.248 C158.718864,331.248 155.361,327.890136 155.361,323.748 C155.361,319.605864 158.718864,316.248 162.861,316.248 L208.04,316.248 Z M318.98,316.248 L319.04,316.248 L334.04,316.248 C346.487732,316.248 356.6,326.34544 356.6,338.808 C356.6,351.263136 346.495136,361.368 334.04,361.368 L326.48,361.368 L326.48,383.987 C326.48,388.129136 323.122136,391.487 318.98,391.487 C314.837864,391.487 311.48,388.129136 311.48,383.987 L311.48,323.748 C311.48,319.605864 314.837864,316.248 318.98,316.248 Z M236.423096,350.247349 C234.421857,362.578329 242.795767,374.196888 255.126747,376.198127 C267.457727,378.199366 279.076287,369.825457 281.077526,357.494476 C283.078765,345.163496 274.704855,333.544937 262.373875,331.543698 C250.042895,329.542459 238.424335,337.916368 236.423096,350.247349 Z M334.04,331.248 L326.48,331.248 L326.48,346.368 L334.04,346.368 C338.210864,346.368 341.6,342.978864 341.6,338.808 C341.6,334.634643 338.208384,331.248 334.04,331.248 Z M383.987,240.95 C388.129136,240.95 391.487,244.307864 391.487,248.45 C391.487,252.592136 388.129136,255.95 383.987,255.95 L127.973,255.95 C123.830864,255.95 120.473,252.592136 120.473,248.45 C120.473,244.307864 123.830864,240.95 127.973,240.95 L383.987,240.95 Z M383.987,195.771 C388.129136,195.771 391.487,199.128864 391.487,203.271 C391.487,207.413136 388.129136,210.771 383.987,210.771 L127.973,210.771 C123.830864,210.771 120.473,207.413136 120.473,203.271 C120.473,199.128864 123.830864,195.771 127.973,195.771 L383.987,195.771 Z M383.987,150.592 C388.129136,150.592 391.487,153.949864 391.487,158.092 C391.487,162.234136 388.129136,165.592 383.987,165.592 L127.973,165.592 C123.830864,165.592 120.473,162.234136 120.473,158.092 C120.473,153.949864 123.830864,150.592 127.973,150.592 L383.987,150.592 Z" id="Combined-Shape"></path>
        </g>
    </g>
</svg>