<?xml version="1.0" encoding="UTF-8"?>
<svg width="496px" height="496px" viewBox="0 0 496 496" version="1.1" xmlns="http://www.w3.org/2000/svg" xmlns:xlink="http://www.w3.org/1999/xlink">
    <title>Shape</title>
    <g id="Page-1" stroke="none" stroke-width="1" fill="none" fill-rule="evenodd">
        <g id="cloud-database" transform="translate(-8, -8)" fill="#000000" fill-rule="nonzero">
            <path d="M127.96,305.748 C127.96,310.163 124.381,313.742 119.966,313.742 L96.126,313.742 C47.531,313.742 7.996,274.221 7.996,225.641 C7.996,191.638 27.362,161.091 57.789,146.333 C57.778,145.593 57.772,144.836 57.772,144.06 C57.772,69.035 118.797,7.997 193.807,7.997 C227.668,7.997 259.795,20.364 284.818,42.925 C296.769,39.176 309.202,37.279 321.848,37.279 C383.318,37.279 434.933,82.005 444.028,142.172 C479.602,154.205 504.004,187.786 504.004,225.642 C504.004,246.142 496.73,266.142 483.522,281.959 C480.69,285.349 475.651,285.799 472.262,282.971 C468.873,280.141 468.42,275.1 471.25,271.712 C482.062,258.764 488.016,242.403 488.016,225.642 C488.016,193.18 466.08,164.553 434.672,156.027 C431.495,155.165 429.172,152.444 428.818,149.172 C422.906,94.497 376.92,53.267 321.848,53.267 C309.388,53.267 297.171,55.379 285.538,59.546 C282.669,60.572 279.471,59.881 277.283,57.764 C254.782,35.982 225.136,23.986 193.806,23.986 C127.612,23.986 73.759,77.852 73.759,144.062 C73.759,146.572 73.82,148.83 73.945,150.965 C74.144,154.373 72.157,157.531 68.999,158.827 C41.652,170.046 23.983,196.273 23.983,225.642 C23.983,265.405 56.345,297.755 96.125,297.755 L119.965,297.755 C124.381,297.754 127.96,301.333 127.96,305.748 L127.96,305.748 Z M245.37,246.079 L266.63,246.079 C271.045,246.079 274.624,242.5 274.624,238.085 C274.624,233.67 271.045,230.091 266.63,230.091 L245.37,230.091 C240.955,230.091 237.376,233.67 237.376,238.085 C237.376,242.5 240.955,246.079 245.37,246.079 Z M245.37,314.649 L266.63,314.649 C271.045,314.649 274.624,311.07 274.624,306.655 C274.624,302.24 271.045,298.661 266.63,298.661 L245.37,298.661 C240.955,298.661 237.376,302.24 237.376,306.655 C237.376,311.07 240.955,314.649 245.37,314.649 Z M266.63,367.26 L245.37,367.26 C240.955,367.26 237.376,370.839 237.376,375.254 C237.376,379.669 240.955,383.248 245.37,383.248 L266.63,383.248 C271.045,383.248 274.624,379.669 274.624,375.254 C274.624,370.839 271.045,367.26 266.63,367.26 Z M478.376,338.131 C474.563,340.355 473.274,345.25 475.498,349.063 C483.687,363.106 488.016,379.171 488.016,395.521 C488.016,446.522 446.524,488.015 395.522,488.015 C379.693,488.015 364.183,483.909 350.492,476.281 C353.026,474.863 354.699,472.115 354.585,469.013 C354.427,464.701 350.881,461.313 346.602,461.313 C346.503,461.313 346.404,461.314 346.303,461.318 L327.792,461.998 C325.339,462.088 323.063,463.301 321.619,465.287 C320.175,467.273 319.725,469.813 320.397,472.174 L325.471,490.004 C326.471,493.519 329.673,495.812 333.156,495.812 C333.88,495.812 334.617,495.713 335.348,495.505 C338.361,494.647 340.468,492.169 341.01,489.286 C357.475,498.851 376.301,504.002 395.522,504.002 C455.339,504.002 504.004,455.337 504.004,395.521 C504.004,376.344 498.922,357.494 489.309,341.009 C487.085,337.196 482.19,335.907 478.376,338.131 L478.376,338.131 Z M316.175,443.029 C318.446,446.816 317.217,451.725 313.43,453.996 C312.143,454.767 310.726,455.135 309.327,455.135 C306.61,455.135 303.962,453.75 302.464,451.251 C295.912,440.323 291.383,428.346 289.008,415.899 C278.368,416.987 267.305,417.547 256,417.547 C199.33,417.547 141.962,403.205 141.962,375.793 L141.962,170.025 C141.962,142.631 199.33,128.299 256,128.299 C312.67,128.299 370.038,142.632 370.038,170.025 L370.038,290.099 C378.214,288.122 386.746,287.067 395.521,287.067 C414.82,287.067 433.62,292.215 450.061,301.785 C450.603,298.901 452.71,296.421 455.724,295.564 C459.969,294.356 464.392,296.819 465.6,301.065 L470.673,318.895 C471.346,321.258 470.894,323.8 469.447,325.787 C468,327.774 465.721,328.985 463.265,329.072 L444.755,329.724 C444.659,329.727 444.564,329.729 444.469,329.729 C440.184,329.729 436.637,326.333 436.486,322.017 C436.377,318.931 438.036,316.196 440.551,314.776 C426.888,307.155 411.405,303.056 395.52,303.056 C344.534,303.056 303.054,344.536 303.054,395.522 C303.056,412.287 307.592,428.715 316.175,443.029 L316.175,443.029 Z M157.95,170.025 C157.95,178.77 192.557,195.792 256,195.792 C319.443,195.792 354.05,178.771 354.05,170.025 C354.05,161.289 319.443,144.286 256,144.286 C192.557,144.286 157.95,161.29 157.95,170.025 Z M157.95,238.624 C157.95,247.36 192.557,264.363 256,264.363 C319.443,264.363 354.05,247.36 354.05,238.624 L354.05,192.442 C333.066,205.201 294.376,211.78 256,211.78 C217.624,211.78 178.935,205.201 157.95,192.442 L157.95,238.624 Z M157.949,307.194 C157.949,315.939 192.557,332.961 256,332.961 C275.532,332.961 294.388,331.231 310.753,327.954 C322.122,313.72 336.992,302.403 354.049,295.317 L354.049,261.025 C333.065,273.775 294.375,280.35 255.999,280.35 C217.623,280.35 178.934,273.775 157.949,261.025 L157.949,307.194 L157.949,307.194 Z M287.171,400.017 C287.109,398.521 287.067,397.023 287.067,395.522 C287.067,377.744 291.367,360.952 298.982,346.13 C285.471,347.985 270.9,348.948 256,348.948 C217.624,348.948 178.935,342.369 157.95,329.61 L157.95,375.792 C157.95,384.538 192.557,401.559 256,401.559 C266.689,401.559 277.136,401.035 287.171,400.017 L287.171,400.017 Z M395.521,445.694 C378.894,445.694 363.382,437.476 354.028,423.711 C351.548,420.06 346.576,419.112 342.924,421.593 C339.273,424.074 338.324,429.046 340.806,432.697 C353.139,450.846 373.594,461.681 395.522,461.681 C432.003,461.681 461.683,432.002 461.683,395.521 C461.683,359.056 432.003,329.389 395.522,329.389 C384.023,329.389 372.886,332.396 363.088,337.912 C362.284,335.358 360.224,333.264 357.439,332.555 C353.154,331.468 348.809,334.053 347.721,338.332 L343.158,356.275 C342.553,358.656 343.075,361.183 344.576,363.128 C346.076,365.073 348.388,366.22 350.844,366.239 L369.382,366.381 L369.444,366.381 C373.831,366.381 377.403,362.842 377.436,358.448 C377.462,355.085 375.404,352.196 372.472,350.993 C379.519,347.346 387.404,345.376 395.522,345.376 C423.188,345.376 445.695,367.871 445.695,395.521 C445.694,423.187 423.188,445.694 395.521,445.694 L395.521,445.694 Z" id="Shape"></path>
        </g>
    </g>
</svg>