<?xml version="1.0" encoding="UTF-8"?>
<svg viewBox="0 0 8 10" version="1.1" xmlns="http://www.w3.org/2000/svg" xmlns:xlink="http://www.w3.org/1999/xlink">
    <title>secure</title>
    <g id="Argon-Commander" stroke="none" stroke-width="1" fill="none" fill-rule="evenodd">
        <g id="Wireframe-Copy-5" transform="translate(-137.3133, -269.5)" fill="#000000">
            <g id="Group" transform="translate(129.3133, 264.5)">
                <path d="M15.5547448,8.75 L14.9714114,8.75 L14.9714114,7.91666016 C14.9714114,6.30839844 13.7502578,5 12.2491953,5 C10.7481328,5 9.52697913,6.30839844 9.52697913,7.91666016 L9.52697913,8.75 L8.9436458,8.75 C8.83616663,8.75 8.74919528,8.84318359 8.74919528,8.95833984 L8.74919528,14.1666797 C8.74919528,14.6262695 9.09801038,15 9.52697913,15 L14.9714297,15 C15.4003802,15 15.7491953,14.6262695 15.7491953,14.1666602 L15.7491953,8.95833984 C15.7491953,8.84318359 15.6622239,8.75 15.5547448,8.75 Z M12.8313984,13.1020117 C12.8374687,13.1608008 12.8198229,13.2198047 12.7829817,13.2639648 C12.7461406,13.3081055 12.6933489,13.3333398 12.6380963,13.3333398 L11.8603125,13.3333398 C11.8050599,13.3333398 11.7522682,13.3081055 11.715427,13.2639648 C11.6785859,13.2198242 11.6609218,13.1608203 11.6670104,13.1020117 L11.7896744,11.9201758 C11.5904843,11.7649414 11.4714297,11.519375 11.4714297,11.25 C11.4714297,10.7904102 11.8202448,10.4166602 12.2492135,10.4166602 C12.6781823,10.4166602 13.0269974,10.7903906 13.0269974,11.25 C13.0269974,11.519375 12.9079427,11.7649414 12.7087526,11.9201758 L12.8313984,13.1020117 Z M13.8047448,8.75 L10.6936458,8.75 L10.6936458,7.91666016 C10.6936458,6.99767578 11.3914765,6.25 12.2491953,6.25 C13.106914,6.25 13.8047448,6.99767578 13.8047448,7.91666016 L13.8047448,8.75 L13.8047448,8.75 Z" id="secure" fill-rule="nonzero"></path>
            </g>
        </g>
    </g>
</svg>