<?xml version="1.0" encoding="UTF-8"?>
<svg viewBox="0 0 406 466" version="1.1" xmlns="http://www.w3.org/2000/svg" xmlns:xlink="http://www.w3.org/1999/xlink">
    <title>Combined Shape</title>
    <g id="Page-1" stroke="none" stroke-width="1" fill="none" fill-rule="evenodd">
        <g id="cyber-security" transform="translate(-53, -23)" fill="currentColor" fill-rule="nonzero">
            <path d="M256,23 C261.7115,23 267.27925,24.11625 272.549,26.31775 L427.49725,91.0515 C440.9185,96.659 450.51225,108.545 453.1605,122.84675 C453.67775,125.641 465.65575,192.15125 450.8635,268.86275 C441.89425,315.37575 424.98425,356.33125 400.60325,390.592 C369.556,434.2205 326.89225,466.41375 273.79725,486.27775 C268.9695,488.08425 263.9085,489 258.75475,489 L253.2455,489 C248.09175,489 243.03075,488.08425 238.20275,486.27825 C185.1075,466.41375 142.444,434.2205 111.3965,390.59225 C87.0155,356.33175 70.10525,315.376 61.13625,268.86325 C46.3425,192.1435 58.322,125.6405 58.83925,122.84725 C61.488,108.545 71.08175,96.65875 84.50275,91.05175 L239.451,26.318 C244.72075,24.11625 250.28875,23 256,23 Z M256,39 C252.41725,39 248.9245,39.70025 245.61875,41.08125 L90.6705,105.815 C82.2515,109.33225 76.23325,116.7885 74.57175,125.76025 C74.077,128.432 62.619,192.04925 76.84675,265.8335 C85.379,310.08075 101.38925,348.93425 124.4325,381.31525 C153.59475,422.2945 193.75875,452.56725 243.80875,471.2925 C246.83725,472.42525 250.01225,472.99975 253.24525,472.99975 L258.7545,472.99975 C261.9875,472.99975 265.1625,472.42525 268.19125,471.29225 C318.241,452.5675 358.40475,422.29475 387.56725,381.31525 C410.61075,348.9345 426.62075,310.08075 435.15325,265.83325 C449.3795,192.05675 437.9225,128.43175 437.428,125.7595 C435.76675,116.7885 429.7485,109.33225 421.32925,105.81475 L266.38125,41.081 C263.07575,39.70025 259.58275,39 256,39 Z M259.0835,58.54875 L414.0315,123.2825 C416.5235,124.32375 418.322,126.55175 418.81375,129.2075 C418.93225,129.84625 421.72375,145.12825 422.8555,169.2085 C423.897,191.36975 423.651,225.5005 416.56475,262.24925 C408.5495,303.816 393.604,340.1825 372.14325,370.3395 C345.211,408.185 308.00475,436.18525 261.55725,453.56225 C260.6615,453.89775 259.712,454.0695 258.75475,454.0695 L253.2455,454.0695 C252.28825,454.0695 251.33875,453.8975 250.44225,453.56225 C203.99475,436.18525 166.7885,408.185 139.85625,370.3395 C118.39575,340.1825 103.45,303.81575 95.43475,262.24925 C88.3485,225.50075 88.1025,191.36975 89.14375,169.2085 C90.2755,145.128 93.06725,129.846 93.1855,129.2075 C93.67725,126.55175 95.47575,124.3235 97.96775,123.2825 L252.91575,58.54875 C254.889,57.72425 257.11,57.72425 259.0835,58.54875 Z M256,74.6005 L108.24675,136.32825 C107.363,142.3375 105.8365,154.4435 105.104,170.44375 C104.12875,191.744 104.401,224.5175 111.23625,259.6885 C128.48075,348.422 176.74225,408.4285 254.70375,438.0695 L257.296,438.0695 C335.401,408.37325 383.69475,348.2085 400.8545,259.21975 C411.858,202.15725 405.899,151.008 403.7505,136.3275 L256,74.6005 Z M256,142.92375 C271.44375,142.92375 285.9635,148.938 296.884,159.8585 C307.80475,170.779 313.81875,185.2985 313.81875,200.7425 L313.819458,222.570669 C324.770412,229.140144 332.11475,241.130924 332.11475,254.805 L332.11475,317.47 C332.11475,338.18075 315.26675,355.03 294.5575,355.03 L217.4425,355.03 C196.73325,355.03 179.885,338.18075 179.885,317.47 L179.885,254.805 C179.885,241.130934 187.229436,229.140162 198.180451,222.570683 L198.18125,200.7425 C198.18125,185.2985 204.1955,170.779 215.116,159.8585 C226.0365,148.938 240.556,142.92375 256,142.92375 Z M294.5575,233.245 L217.4425,233.245 C205.55575,233.245 195.885,242.91675 195.885,254.805 L195.885,317.47 C195.885,329.35825 205.55575,339.03 217.4425,339.03 L294.5575,339.03 C306.44425,339.03 316.11475,329.358 316.11475,317.47 L316.11475,254.805 C316.11475,242.91675 306.444,233.245 294.5575,233.245 Z M256,251.365 C268.222,251.365 278.165,261.30925 278.165,273.5325 C278.165,282.93509 272.280252,290.988857 264.000321,294.204239 L264,311.575 C264,315.99325 260.41825,319.575 256,319.575 C251.58175,319.575 248,315.99325 248,311.575 L247.999782,294.204239 C239.719896,290.988857 233.835,282.93509 233.835,273.5325 C233.835,261.30925 243.77825,251.365 256,251.365 Z M256,267.365 C252.6005,267.365 249.835,270.1315 249.835,273.5325 C249.835,276.932 252.60075,279.6975 256,279.6975 C259.39925,279.6975 262.165,276.93175 262.165,273.5325 C262.165,270.1315 259.3995,267.365 256,267.365 Z M256,158.92375 C232.941,158.92375 214.18125,177.68375 214.18125,200.7425 L214.1806,217.385366 C215.255737,217.292435 216.343684,217.245 217.4425,217.245 L294.5575,217.245 C295.656316,217.245 296.744262,217.292435 297.819398,217.385366 L297.81875,200.7425 C297.81875,177.6835 279.059,158.92375 256,158.92375 Z" id="Combined-Shape"></path>
        </g>
    </g>
</svg>