<?xml version="1.0" encoding="UTF-8"?>
<svg viewBox="0 0 512 512" version="1.1" xmlns="http://www.w3.org/2000/svg" xmlns:xlink="http://www.w3.org/1999/xlink">
    <g id="Page-1" stroke="none" stroke-width="1" fill="none" fill-rule="evenodd">
        <g id="smile(2)" fill="currentColor" fill-rule="nonzero">
            <path d="M256,0 C114.615104,0 0,114.615104 0,256 C0,397.384896 114.615104,512 256,512 C397.384896,512 512,397.384896 512,256 C512,114.615104 397.384896,0 256,0 L256,0 Z M363.183158,157.237895 C381.321352,157.237895 396.025263,171.941806 396.025263,190.08 C396.025263,208.218194 381.321352,222.922105 363.183158,222.922105 C345.044964,222.922105 330.341053,208.218194 330.341053,190.08 C330.341053,171.941806 345.044964,157.237895 363.183158,157.237895 L363.183158,157.237895 Z M148.816842,157.237895 C162.100234,157.237895 174.075657,165.239617 179.158991,177.51187 C184.242325,189.784124 181.432494,203.910099 172.039717,213.302875 C162.646941,222.695652 148.520966,225.505483 136.248713,220.422149 C123.976459,215.338815 115.974737,203.363392 115.974737,190.08 C115.974737,171.941806 130.678648,157.237895 148.816842,157.237895 L148.816842,157.237895 Z M394.105263,352.033684 C351.797895,395.823158 306.189474,417.92 258.290526,417.92 L254.922105,417.92 C191.326316,416.538947 141.810526,376.218947 118.063158,352.505263 C113.928014,348.417889 111.753514,342.747604 112.09532,336.943363 C112.437125,331.139122 115.26212,325.763252 119.848421,322.189474 C127.856481,315.934464 139.263612,316.597837 146.492632,323.738947 C165.726316,342.905263 206.416842,376.522105 255.966316,377.633684 C293.018947,378.341053 329.768421,360.421053 364.867368,324.277895 C370.586075,318.316031 379.357528,316.434818 387.018104,319.527228 C394.67868,322.619639 399.685986,330.063042 399.663236,338.324211 C399.654209,343.441036 397.662,348.355151 394.105263,352.033684 L394.105263,352.033684 Z" id="icon"></path>
        </g>
    </g>
</svg>