<?xml version="1.0" encoding="UTF-8"?>
<svg viewBox="0 0 512 512" version="1.1" xmlns="http://www.w3.org/2000/svg" xmlns:xlink="http://www.w3.org/1999/xlink">
    <g id="Page-1" stroke="none" stroke-width="1" fill="none" fill-rule="evenodd">
        <g id="smile(3)" fill="currentColor" fill-rule="nonzero">
            <path d="M256,0 C114.615104,0 0,114.615104 0,256 C0,397.384896 114.615104,512 256,512 C397.384896,512 512,397.384896 512,256 C512,114.615104 397.384896,0 256,0 L256,0 Z M349.709474,134.197895 C367.663158,134.197895 382.214737,158.787368 382.214737,189.136842 C382.214737,219.486316 367.663158,244.109474 349.709474,244.109474 C331.755789,244.109474 317.204211,219.486316 317.204211,189.136842 C317.204211,158.787368 331.755789,134.197895 349.709474,134.197895 Z M162.290526,134.197895 C180.210526,134.197895 194.762105,158.787368 194.762105,189.136842 C194.762105,219.486316 180.210526,244.109474 162.290526,244.109474 C144.370526,244.109474 129.785263,219.486316 129.785263,189.136842 C129.785263,158.787368 144.336842,134.197895 162.290526,134.197895 Z M403.503158,317.911579 C392.757895,379.250526 332.294737,421.793684 259.368421,421.793684 C186.442105,421.793684 125.945263,379.250526 115.2,317.911579 C115.095312,317.28809 115.039003,316.657437 115.031579,316.025263 C115.031579,307.166316 125.776842,301.44 135.242105,304.673684 C171.587368,317.237895 214.029474,323.637895 259.368421,323.637895 C304.707368,323.637895 347.115789,317.237895 383.528421,304.673684 C392.926316,301.305263 403.738947,307.132632 403.738947,316.025263 C403.708751,316.659144 403.629923,317.28977 403.503158,317.911579 L403.503158,317.911579 Z" id="icon"></path>
        </g>
    </g>
</svg>