<?xml version="1.0" encoding="UTF-8"?>
<svg viewBox="0 0 26 26" version="1.1" xmlns="http://www.w3.org/2000/svg" xmlns:xlink="http://www.w3.org/1999/xlink">
    <title>sad</title>
    <g id="Argon-Commander" stroke="none" stroke-width="1" fill="none" fill-rule="evenodd">
        <g id="Argon-Commander-Navbar---Mining" transform="translate(-1094, -28)" fill="currentColor">
            <g id="UNDERFUNDED" transform="translate(1079.0361, 18.75)">
                <path d="M27.963869,9.25 C20.795669,9.25 14.963869,15.0818 14.963869,22.25 C14.963869,29.4182 20.795669,35.25 27.963869,35.25 C35.1321477,35.25 40.963869,29.4182 40.963869,22.25 C40.963869,15.0818 35.1321477,9.25 27.963869,9.25 Z M21.3456871,19.7287879 C21.3456871,19.3143636 21.5142932,18.9078182 21.8073053,18.6146485 C22.100475,18.3216364 22.5062326,18.1530303 22.9214447,18.1530303 C23.335869,18.1530303 23.7424144,18.3216364 24.0355053,18.6146485 C24.3293053,18.9078182 24.4972023,19.3143636 24.4972023,19.7287879 C24.4972023,20.1432121 24.3293053,20.5497576 24.0355053,20.8428485 C23.7424144,21.1359394 23.335869,21.3045455 22.9214447,21.3045455 C22.5070205,21.3045455 22.100475,21.1358606 21.8073053,20.8428485 C21.5142932,20.5497576 21.3456871,20.1432121 21.3456871,19.7287879 Z M32.8107417,27.0968727 C32.3492811,27.5583333 31.6009538,27.5583333 31.1394144,27.0968727 C30.2911053,26.2486424 29.1634144,25.7815879 27.963869,25.7815879 C26.7641659,25.7815879 25.6365538,26.2487212 24.7882447,27.0968727 C24.557475,27.3276424 24.2550084,27.4430667 23.9526205,27.4430667 C23.6502326,27.4430667 23.3476871,27.3276424 23.1169174,27.0968727 C22.655378,26.6354121 22.655378,25.8870848 23.1168387,25.4255455 C24.4114811,24.130903 26.1329174,23.4178727 27.9637902,23.4178727 C27.963869,23.4178727 27.9637114,23.4178727 27.963869,23.4178727 C29.7947417,23.4178727 31.5160993,24.130903 32.8107417,25.4255455 C33.2722023,25.8870061 33.2722023,26.6353333 32.8107417,27.0968727 Z M34.1203538,20.8428485 C33.8272629,21.1359394 33.4207174,21.3045455 33.0062932,21.3045455 C32.591869,21.3045455 32.1853235,21.1358606 31.8921538,20.8428485 C31.5983538,20.5497576 31.4305356,20.1432121 31.4305356,19.7287879 C31.4305356,19.3143636 31.5983538,18.9078182 31.8921538,18.6146485 C32.1853235,18.3216364 32.5910811,18.1530303 33.0062932,18.1530303 C33.4207174,18.1530303 33.8272629,18.3216364 34.1203538,18.6146485 C34.4142326,18.9078182 34.5820508,19.3143636 34.5820508,19.7287879 C34.5820508,20.1432121 34.4141538,20.5497576 34.1203538,20.8428485 Z" id="sad" fill-rule="nonzero"></path>
            </g>
        </g>
    </g>
</svg>