<?xml version="1.0" encoding="UTF-8"?>
<svg viewBox="0 0 27 27" version="1.1" xmlns="http://www.w3.org/2000/svg" xmlns:xlink="http://www.w3.org/1999/xlink">
    <title>happy</title>
    <g id="Argon-Commander" stroke="none" stroke-width="1" fill="none" fill-rule="evenodd">
        <g id="Argon-Commander-Navbar---Vaulting" transform="translate(-1094, -27)" fill="currentColor">
            <g id="FULLY-FUNDED" transform="translate(1079.0362, 18.75)">
                <path d="M28,8.5 C20.8318,8.5 15,14.3318 15,21.5 C15,28.6682 20.8318,34.5 28,34.5 C35.1682,34.5 41,28.6682 41,21.5 C41,14.3318 35.1682,8.5 28,8.5 Z M21.3818182,18.9787879 C21.3818182,18.5643636 21.5496364,18.1578182 21.8434364,17.8646485 C22.1366061,17.5716364 22.5422848,17.4030303 22.9575758,17.4030303 C23.372,17.4030303 23.7785455,17.5716364 24.0716364,17.8646485 C24.3655152,18.1578182 24.5333333,18.5643636 24.5333333,18.9787879 C24.5333333,19.3932121 24.3655152,19.7997576 24.0716364,20.0928485 C23.7785455,20.3866485 23.372,20.5545455 22.9575758,20.5545455 C22.5431515,20.5545455 22.1366061,20.3866485 21.8434364,20.0928485 C21.5496364,19.7997576 21.3818182,19.3932121 21.3818182,18.9787879 Z M32.8469515,26.3468727 C31.5107879,27.6830364 29.7551576,28.3513152 28,28.3513152 C26.2444485,28.3513152 24.4895273,27.6833515 23.1530485,26.3468727 C22.6915091,25.8854121 22.6915091,25.1371636 23.1530485,24.6755455 C23.6145091,24.2140848 24.3628364,24.2140848 24.8243758,24.6755455 C26.5755152,26.4266061 29.4244848,26.4266061 31.1755455,24.6755455 C31.6370061,24.2140848 32.3853333,24.2140848 32.8468727,24.6755455 C33.3084909,25.1370848 33.3084909,25.8853333 32.8469515,26.3468727 Z M34.1564848,20.0928485 C33.8633939,20.3866485 33.4568485,20.5545455 33.0424242,20.5545455 C32.628,20.5545455 32.2214545,20.3866485 31.9282848,20.0928485 C31.6352727,19.7997576 31.4666667,19.394 31.4666667,18.9787879 C31.4666667,18.5635758 31.6352727,18.1578182 31.9282848,17.8646485 C32.2214545,17.5716364 32.628,17.4030303 33.0424242,17.4030303 C33.4568485,17.4030303 33.8633939,17.5716364 34.1564848,17.8646485 C34.4495758,18.1578182 34.6181818,18.5643636 34.6181818,18.9787879 C34.6181818,19.394 34.449497,19.7997576 34.1564848,20.0928485 Z" id="happy" fill-rule="nonzero"></path>
            </g>
        </g>
    </g>
</svg>