<?xml version="1.0" encoding="UTF-8"?>
<svg viewBox="0 0 484 494" version="1.1" xmlns="http://www.w3.org/2000/svg" xmlns:xlink="http://www.w3.org/1999/xlink">
    <g id="Page-1" stroke="none" stroke-width="1" fill="none" fill-rule="evenodd">
        <g id="success(1)" fill="currentColor" fill-rule="nonzero">
            <path d="M257.097656,1.59375 C269.097656,-3.207031 283.496094,3.195312 287.496094,15.992188 L289.898438,23.195312 C299.496094,20.792969 308.296875,21.59375 317.097656,25.59375 C320.296875,27.195312 323.496094,29.59375 326.695312,31.992188 C344.296875,47.195312 347.496094,73.59375 332.296875,91.195312 L309.097656,119.195312 C306.695312,138.394531 298.695312,155.992188 285.898438,170.394531 L267.496094,191.992188 L272.296875,203.992188 L305.898438,189.59375 C305.898438,188.792969 306.695312,188.792969 306.695312,188.792969 C319.496094,184.792969 333.097656,190.394531 337.898438,203.195312 L383.496094,325.59375 C387.496094,336.792969 382.695312,349.59375 371.496094,355.195312 L336.296875,372.792969 L350.695312,407.195312 L377.097656,407.195312 C387.496094,407.195312 396.296875,412.792969 399.496094,422.394531 L406.695312,441.59375 L273.898438,493.59375 L265.898438,473.59375 C261.898438,463.992188 264.296875,453.59375 271.496094,447.195312 L290.695312,428.792969 L276.296875,384.792969 L236.296875,379.992188 L6.695312,475.195312 L0.296875,460.792969 L145.097656,400.792969 L117.898438,319.195312 L5.898438,363.992188 L0.296875,348.792969 L195.496094,269.59375 L201.097656,242.394531 C202.695312,235.195312 206.695312,229.59375 212.296875,226.394531 L207.496094,214.394531 L181.097656,211.992188 C162.695312,210.394531 144.296875,203.195312 129.097656,191.992188 L91.496094,187.992188 C74.695312,185.59375 60.296875,174.394531 54.695312,158.394531 C47.496094,137.59375 57.097656,113.59375 77.898438,103.992188 L73.898438,93.59375 L73.898438,92.792969 C69.097656,80.792969 75.496094,67.195312 88.296875,62.394531 Z M375.496094,422.394531 L343.496094,422.394531 L309.097656,433.59375 L281.898438,459.195312 C280.296875,461.59375 279.496094,464.792969 280.296875,467.992188 L282.695312,472.792969 L385.097656,431.992188 L383.496094,427.195312 C381.898438,423.992188 379.496094,422.394531 375.496094,422.394531 Z M320.296875,378.394531 L306.695312,384.792969 C302.695312,387.195312 298.695312,387.992188 293.898438,387.195312 L304.296875,417.59375 L333.097656,407.992188 L320.296875,378.394531 Z M197.898438,286.394531 L165.898438,299.195312 L186.695312,361.59375 L171.496094,366.394531 L151.496094,305.59375 L133.097656,312.792969 L160.296875,394.394531 L225.097656,367.195312 L197.898438,286.394531 Z M321.898438,205.59375 C320.296875,201.59375 315.496094,199.992188 311.496094,201.59375 L221.898438,239.992188 C219.496094,240.792969 217.898438,243.195312 217.097656,245.59375 L211.496094,275.195312 L241.097656,363.992188 L295.496094,370.394531 C297.097656,370.394531 298.695312,370.394531 300.296875,369.59375 L363.496094,338.394531 C367.496094,336.792969 369.097656,332.792969 367.496094,328.792969 L363.496094,318.394531 L325.898438,331.195312 L321.097656,315.992188 L357.898438,303.992188 L348.296875,278.394531 L309.898438,291.195312 L305.097656,275.992188 L342.695312,263.195312 L333.097656,237.59375 L293.898438,250.394531 L289.097656,235.195312 L328.296875,222.394531 Z M59.496094,195.992188 L59.496094,203.992188 C59.496094,226.394531 77.097656,243.992188 99.496094,243.992188 L99.496094,259.992188 C77.097656,259.992188 59.496094,277.59375 59.496094,299.992188 L59.496094,307.992188 L43.496094,307.992188 L43.496094,299.992188 C43.496094,277.59375 25.898438,259.992188 3.496094,259.992188 L3.496094,243.992188 C25.898438,243.992188 43.496094,226.394531 43.496094,203.992188 L43.496094,195.992188 L59.496094,195.992188 Z M443.496094,195.992188 L443.496094,203.992188 C443.496094,226.394531 461.097656,243.992188 483.496094,243.992188 L483.496094,259.992188 C461.097656,259.992188 443.496094,277.59375 443.496094,299.992188 L443.496094,307.992188 L427.496094,307.992188 L427.496094,299.992188 C427.496094,277.59375 409.898438,259.992188 387.496094,259.992188 L387.496094,243.992188 C409.898438,243.992188 427.496094,226.394531 427.496094,203.992188 L427.496094,195.992188 L443.496094,195.992188 Z M51.496094,232.792969 C46.695312,240.792969 40.296875,247.195312 32.296875,251.992188 C40.296875,256.792969 46.695312,263.195312 51.496094,271.195312 C56.296875,263.195312 62.695312,256.792969 70.695312,251.992188 C62.695312,247.195312 56.296875,240.792969 51.496094,232.792969 Z M435.496094,232.792969 C430.695312,240.792969 424.296875,247.195312 416.296875,251.992188 C424.296875,256.792969 430.695312,263.195312 435.496094,271.195312 C440.296875,263.195312 446.695312,256.792969 454.695312,251.992188 C446.695312,247.195312 440.296875,240.792969 435.496094,232.792969 Z M269.097656,17.59375 C266.695312,16.792969 265.097656,16.792969 262.695312,17.59375 L93.898438,78.394531 C89.898438,79.992188 88.296875,84.792969 89.898438,88.792969 L110.695312,141.59375 C122.695312,172.792969 151.496094,193.59375 184.296875,196.792969 L219.496094,199.992188 L227.496094,219.992188 L256.296875,207.992188 L249.097656,188.792969 L273.898438,159.992188 C293.898438,136.792969 300.296875,104.792969 290.695312,75.195312 L273.097656,22.394531 C272.296875,19.992188 270.695312,18.394531 269.097656,17.59375 Z M84.296875,119.992188 C71.496094,126.394531 65.898438,140.792969 70.695312,154.394531 C73.898438,164.792969 83.496094,171.992188 94.695312,172.792969 L111.496094,174.394531 C105.097656,166.394531 99.496094,156.792969 95.496094,147.195312 Z M249.898438,39.992188 C252.296875,42.394531 293.097656,109.59375 249.097656,153.59375 L237.898438,142.394531 C273.097656,107.195312 237.097656,48.792969 236.296875,48.792969 Z M411.496094,35.992188 L411.496094,43.992188 C411.496094,66.394531 429.097656,83.992188 451.496094,83.992188 L451.496094,99.992188 C429.097656,99.992188 411.496094,117.59375 411.496094,139.992188 L411.496094,147.992188 L395.496094,147.992188 L395.496094,139.992188 C395.496094,117.59375 377.898438,99.992188 355.496094,99.992188 L355.496094,83.992188 C377.898438,83.992188 395.496094,66.394531 395.496094,43.992188 L395.496094,35.992188 L411.496094,35.992188 Z M403.496094,72.792969 C398.695312,80.792969 392.296875,87.195312 384.296875,91.992188 C392.296875,96.792969 398.695312,103.195312 403.496094,111.195312 C408.296875,103.195312 414.695312,96.792969 422.695312,91.992188 C414.695312,87.195312 408.296875,80.792969 403.496094,72.792969 Z M310.695312,39.992188 C305.898438,38.394531 301.097656,37.59375 295.496094,38.394531 L305.898438,69.59375 C308.296875,77.59375 309.898438,84.792969 310.695312,92.792969 L320.296875,80.792969 C321.898438,78.394531 323.496094,76.792969 324.296875,74.394531 C329.898438,60.792969 323.496094,45.59375 310.695312,39.992188 Z" id="Combined-Shape"></path>
        </g>
    </g>
</svg>