<?xml version="1.0" encoding="UTF-8"?>
<svg viewBox="0 0 22 22" version="1.1" xmlns="http://www.w3.org/2000/svg" xmlns:xlink="http://www.w3.org/1999/xlink">
    <title>Combined Shape</title>
    <g id="Page-1" stroke="none" stroke-width="1" fill="none" fill-rule="evenodd">
        <g id="ssh" transform="translate(-1, -1)" fill="currentColor" fill-rule="nonzero">
            <path d="M21,1.5 L3,1.5 C2.17,1.5 1.5,2.17 1.5,3 L1.5,5.5 L22.5,5.5 L22.5,3 C22.5,2.17 21.83,1.5 21,1.5 Z M5,4.75 C4.59,4.75 4.25,4.41 4.25,4 C4.25,3.59 4.59,3.25 5,3.25 C5.41,3.25 5.75,3.59 5.75,4 C5.75,4.41 5.41,4.75 5,4.75 Z M8,4.75 C7.59,4.75 7.25,4.41 7.25,4 C7.25,3.59 7.59,3.25 8,3.25 C8.41,3.25 8.75,3.59 8.75,4 C8.75,4.41 8.41,4.75 8,4.75 Z M11,4.75 C10.59,4.75 10.25,4.41 10.25,4 C10.25,3.59 10.59,3.25 11,3.25 C11.41,3.25 11.75,3.59 11.75,4 C11.75,4.41 11.41,4.75 11,4.75 Z M22.5,6.5 L22.5,21 C22.5,21.83 21.83,22.5 21,22.5 L3,22.5 C2.17,22.5 1.5,21.83 1.5,21 L1.5,6.5 L22.5,6.5 Z M19,18.5 L11,18.5 C10.72,18.5 10.5,18.72 10.5,19 C10.5,19.28 10.72,19.5 11,19.5 L19,19.5 C19.28,19.5 19.5,19.28 19.5,19 C19.5,18.72 19.28,18.5 19,18.5 Z M5.65,10.65 L5.65,10.64 C5.45,10.84 5.45,11.15 5.65,11.35 L8.3,14 L5.65,16.65 C5.46,16.85 5.46,17.17 5.65,17.36 C5.85,17.55 6.17,17.55 6.36,17.36 L9.36,14.36 C9.56,14.16 9.56,13.85 9.36,13.65 L6.36,10.65 C6.16,10.45 5.85,10.45 5.65,10.65 Z M14.97,8.5 C13.58,8.5 12.45,9.63 12.45,11.02 L12.45,11.62 C11.86,11.82 11.44,12.38 11.44,13.03 L11.44,15.79 C11.44,16.62 12.11,17.29 12.94,17.29 L17,17.29 C17.83,17.29 18.5,16.62 18.5,15.79 L18.5,13.03 C18.5,12.38 18.08,11.82 17.49,11.62 L17.49,11.02 C17.49,9.63 16.36,8.5 14.97,8.5 Z M17,12.53 C17.2761424,12.53 17.5,12.7538576 17.5,13.03 L17.5,15.79 C17.5,16.0661424 17.2761424,16.29 17,16.29 L12.94,16.29 C12.6638576,16.29 12.44,16.0661424 12.44,15.79 L12.44,13.03 C12.44,12.7538576 12.6638576,12.53 12.94,12.53 L17,12.53 Z M14.97,9.5 C15.81,9.5 16.49,10.18 16.49,11.02 L16.49,11.53 L13.45,11.53 L13.45,11.02 C13.45,10.18 14.13,9.5 14.97,9.5 Z" id="Combined-Shape"></path>
        </g>
    </g>
</svg>