<?xml version="1.0" encoding="UTF-8"?>
<svg viewBox="0 0 135 134" version="1.1" xmlns="http://www.w3.org/2000/svg" xmlns:xlink="http://www.w3.org/1999/xlink">
    <title>VAULT</title>
    <g id="Argon-Commander" stroke="none" stroke-width="1" fill="none" fill-rule="evenodd">
        <g id="Vaulting" transform="translate(-48, -937)" stroke="#000000">
            <g id="VAULT" transform="translate(48.5, 936.9999)">
                <path d="M123,0.5 C125.899495,0.5 128.524495,1.67525253 130.424621,3.5753788 C132.324747,5.47550506 133.5,8.10050506 133.5,11 L133.5,123 C133.5,125.899495 132.324747,128.524495 130.424621,130.424621 C128.524495,132.324747 125.899495,133.5 123,133.5 L11,133.5 C8.10050506,133.5 5.47550506,132.324747 3.5753788,130.424621 C1.67525253,128.524495 0.5,125.899495 0.5,123 L0.5,112.731027 L14.5,112.731797 L14.5,92.7317971 L0.5,92.7310275 L0.5,39.68201 L14.5,39.6822911 L14.5,19.6822911 L0.5,19.68201 L0.5,11 C0.5,8.10050506 1.67525253,5.47550506 3.5753788,3.5753788 C5.47550506,1.67525253 8.10050506,0.5 11,0.5 L123,0.5 Z" id="Combined-Shape"></path>
                <rect id="Rectangle" stroke-width="2" x="1.129447" y="23.6462863" width="9.5" height="11.4772727"></rect>
                <rect id="Rectangle" stroke-width="2" x="1.129447" y="96.6521573" width="9.5" height="11.4772727"></rect>
                <circle id="Oval" stroke-width="2" cx="67" cy="66.9827889" r="16.8365026"></circle>
                <circle id="Oval" stroke-width="2" cx="67" cy="66.9827889" r="10.1"></circle>
                <circle id="Oval" stroke-width="2" cx="67" cy="66.9827889" r="6.9"></circle>
                <path d="M44.1937692,45.0051449 L45.0652746,60.5179423 C43.9232196,60.2876183 42.7811593,60.172724 41.6391662,60.172724 C40.4971732,60.172724 39.3551129,60.2876183 38.2130578,60.5179423 L39.0845633,45.0051449 L44.1937692,45.0051449 Z" id="Rectangle" stroke-width="2" transform="translate(41.6392, 52.9051) rotate(-60) translate(-41.6392, -52.9051)"></path>
                <path d="M94.9154367,44.4522592 L95.7869422,59.9650566 C94.6448871,59.7347326 93.5028268,59.6198383 92.3608338,59.6198383 C91.2188407,59.6198383 90.0767804,59.7347326 88.9347254,59.9650566 L89.8062308,44.4522592 L94.9154367,44.4522592 Z" id="Rectangle" stroke-width="2" transform="translate(92.3608, 52.3523) rotate(60) translate(-92.3608, -52.3523)"></path>
                <path d="M69.5546029,87.7521573 L70.4261084,103.264955 C69.2840533,103.034631 68.1419931,102.919736 67,102.919736 C65.8580069,102.919736 64.7159467,103.034631 63.5738916,103.264955 L64.4453971,87.7521573 L69.5546029,87.7521573 Z" id="Rectangle" stroke-width="2" transform="translate(67, 95.6522) rotate(180) translate(-67, -95.6522)"></path>
            </g>
        </g>
    </g>
</svg>