<?xml version="1.0" encoding="UTF-8"?>
<svg width="40px" height="40px" viewBox="0 0 40 40" version="1.1" xmlns="http://www.w3.org/2000/svg" xmlns:xlink="http://www.w3.org/1999/xlink">
    <title>Group 2</title>
    <g id="Logos" stroke="none" stroke-width="1" fill="none" fill-rule="evenodd">
        <g id="Group-2" transform="translate(0.3028, 0.5)">
            <rect id="Rectangle" fill="#AF00C1" x="0" y="0" width="39" height="39"></rect>
            <circle id="Oval" fill="#AF00C1" cx="19.5" cy="19.5" r="17.5"></circle>
            <path d="M19.5,4.19536133 C23.5880273,4.19536133 27.4313281,5.78731445 30.322041,8.67795898 C33.2126855,11.5686719 34.8046387,15.4119727 34.8046387,19.5 C34.8046387,23.5880273 33.2126855,27.4313281 30.322041,30.322041 C27.4313281,33.2126855 23.5880273,34.8046387 19.5,34.8046387 C17.7221777,34.8046387 15.9800391,34.5024219 14.3219141,33.9063281 C14.0554492,33.8105566 13.9170898,33.5168848 14.0128613,33.2504883 C14.1086328,32.9839551 14.4023047,32.8456641 14.6687695,32.9414355 C16.215332,33.497334 17.8407813,33.779248 19.5,33.779248 C27.3735645,33.779248 33.779248,27.3735645 33.779248,19.5 C33.779248,11.6264355 27.3735645,5.22075195 19.5,5.22075195 C11.6264355,5.22075195 5.22075195,11.6264355 5.22075195,19.5 C5.22075195,24.7407715 8.08432617,29.5519727 12.6940039,32.0561133 C12.9427637,32.1912598 13.0349121,32.5025 12.8997656,32.7513281 C12.7646191,33.0000879 12.4533789,33.0922363 12.2045508,32.9570898 C7.26428711,30.2734375 4.19536133,25.1169531 4.19536133,19.5 C4.19536133,15.4119727 5.78731445,11.5686719 8.67795898,8.67795898 C11.5686719,5.78731445 15.4119727,4.19536133 19.5,4.19536133 Z M18.958943,10.1268985 L19.1484914,10.399756 L22.9786692,15.9147325 L25.8496997,15.1461223 L26.4612984,17.4286398 L24.4112956,17.977219 L25.093667,18.9590638 L26.7523134,18.5147223 L27.3639121,20.7972399 L26.5262933,21.0215504 L29.0552271,24.6606318 L29.4387853,25.2127688 L25.93654,26.1511926 L25.7479428,25.8722583 L23.0904952,21.9421697 L17.8957461,23.3340986 L17.5608064,28.0659987 L17.5369411,28.4018584 L14.0346986,29.3402814 L14.0908012,28.6703376 L14.4599479,24.2547179 L13.623827,24.4788845 L13.0122283,22.196367 L14.6693954,21.752239 L14.769424,20.5607507 L12.7212134,21.1102845 L12.1096147,18.827767 L14.9788715,18.0582718 L15.5398481,11.366689 L15.5675732,11.0356133 L18.958943,10.1268985 Z M21.0228278,18.8851562 L18.1578918,19.6528135 L18.0733181,20.8401607 L21.6897444,19.8711422 L21.0228278,18.8851562 Z M18.4797434,15.1236255 L18.3344979,17.1591344 L19.6230429,16.8138698 L18.4797434,15.1236255 Z" id="Combined-Shape" fill="#FFFFFF" fill-rule="nonzero"></path>
        </g>
    </g>
</svg>