<?xml version="1.0" encoding="UTF-8"?>
<svg viewBox="0 0 16 23" version="1.1" xmlns="http://www.w3.org/2000/svg" xmlns:xlink="http://www.w3.org/1999/xlink">
    <g id="Argon-Commander" stroke="none" stroke-width="1" fill="none" fill-rule="evenodd">
        <g id="dollar" transform="translate(0.6935, 0)" fill="currentColor" fill-rule="nonzero">
            <path d="M6.26028442,23 L6.47590942,0 L8.59622192,0 L8.38059692,23 L6.26028442,23 Z M10.5727844,7.58997192 C10.5009094,6.86644897 10.1921417,6.30342814 9.64648132,5.90090942 C9.10082092,5.49839071 8.36262817,5.29713135 7.43190308,5.29713135 C6.79700724,5.29713135 6.26002706,5.38667094 5.82096252,5.56575012 C5.38189799,5.74482931 5.04795532,5.98951314 4.81913452,6.29980164 C4.59031372,6.61009013 4.47412516,6.96349894 4.47056885,7.36002808 C4.46336263,7.68945516 4.53493347,7.97725932 4.68528137,8.22344055 C4.83562927,8.46962179 5.04617716,8.68105876 5.31692505,8.85775146 C5.58767293,9.03444417 5.89973958,9.18626607 6.253125,9.31321716 C6.60651042,9.44016825 6.98263753,9.54856567 7.38150635,9.63840942 L9.03463135,10.0337219 C9.83723551,10.2134094 10.5739543,10.4536011 11.2447876,10.7542969 C11.9156209,11.0549927 12.4978038,11.4242645 12.9913361,11.8621124 C13.4848684,12.2999603 13.8678975,12.8153687 14.1404236,13.4083374 C14.4129496,14.0013062 14.5510376,14.6805155 14.5546875,15.4459656 C14.5510376,16.569574 14.2659241,17.5434662 13.6993469,18.3676422 C13.1327698,19.1918182 12.3179057,19.8297089 11.2547546,20.2813141 C10.1916036,20.7329193 8.91011353,20.9587219 7.41028442,20.9587219 C5.92365112,20.9587219 4.63139852,20.7317261 3.53352661,20.2777344 C2.4356547,19.8237427 1.58036092,19.1490255 0.967645264,18.2535828 C0.354929606,17.3581401 0.0323811849,16.2473531 0,14.9212219 L3.76627808,14.9212219 C3.80820516,15.537026 3.98667603,16.0503754 4.30169067,16.4612701 C4.61670532,16.8721649 5.03805847,17.1806285 5.56575012,17.3866608 C6.09344177,17.5926931 6.6939209,17.6957092 7.3671875,17.6957092 C8.0272583,17.6957092 8.60048014,17.6004608 9.08685303,17.409964 C9.57322591,17.2194672 9.95117798,16.9541239 10.2207092,16.6139343 C10.4902405,16.2737447 10.6267843,15.8796021 10.6303406,15.4315063 C10.6267843,15.0182251 10.503717,14.6711334 10.2611389,14.3902313 C10.0185608,14.1093292 9.66545614,13.8697459 9.20182495,13.6714813 C8.73819377,13.4732168 8.17217814,13.2932251 7.50377808,13.1315063 L5.4984375,12.6355408 C3.94591878,12.258197 2.72074483,11.667334 1.82291565,10.8629517 C0.925086466,10.0585693 0.477996826,8.97716878 0.481646729,7.61875 C0.477996826,6.50590413 0.777756755,5.53229268 1.38092651,4.69791565 C1.98409627,3.86353861 2.81246033,3.21336466 3.86601868,2.7473938 C4.91957703,2.28142293 6.11779785,2.0484375 7.46068115,2.0484375 C8.82621257,2.0484375 10.0187012,2.28203125 11.038147,2.74921875 C12.0575928,3.21640625 12.85271,3.8665802 13.4234985,4.6997406 C13.9942871,5.532901 14.2874959,6.49631144 14.303125,7.58997192 L10.5727844,7.58997192 Z" id="Shape"></path>
        </g>
    </g>
</svg>