<?xml version="1.0" encoding="UTF-8"?>
<svg viewBox="0 0 20 24" version="1.1" xmlns="http://www.w3.org/2000/svg" xmlns:xlink="http://www.w3.org/1999/xlink">
    <g id="Argon-Commander" stroke="none" stroke-width="1" fill="none" fill-rule="evenodd">
        <g id="euro" transform="translate(0.39, 0.1463)" fill="currentColor" fill-rule="nonzero">
            <path d="M15.8170111,8.06701105 L14.7251032,10.4801136 L-9.09494702e-13,10.4801136 L0.898398659,8.06701105 L15.8170111,8.06701105 Z M13.7123191,12.6818182 L12.5146262,15.1477273 L-9.09494702e-13,15.1477273 L0.898398659,12.6818182 L13.7123191,12.6818182 Z M18.679227,2.04311301 L16.9090909,5.8125 C16.6155303,5.60700758 16.2621682,5.38204956 15.8490046,5.13762595 C15.435841,4.89320235 14.9639365,4.68329505 14.4332913,4.50790405 C13.9026462,4.33251306 13.3129735,4.24481756 12.6642733,4.24481756 C11.645641,4.24481756 10.7583368,4.50280114 10.002361,5.01876831 C9.24638505,5.53473548 8.65998054,6.3354335 8.24314742,7.42086237 C7.82631429,8.50629124 7.61789773,9.90182218 7.61789773,11.6074552 C7.61789773,13.3218032 7.82631429,14.7173055 8.24314742,15.793962 C8.65998054,16.8706184 9.24638505,17.6603079 10.002361,18.1630305 C10.7583368,18.665753 11.645641,18.9171143 12.6642733,18.9171143 C13.3101067,18.9171143 13.8968552,18.8327156 14.4245189,18.6639182 C14.9521827,18.4951209 15.416748,18.2925526 15.8182151,18.0562134 C16.2196822,17.8198742 16.5539514,17.6018825 16.8210227,17.4022383 L18.6088756,21.1716253 C17.8117898,21.8321367 16.9057654,22.3289823 15.8908026,22.6621621 C14.8758397,22.9953419 13.80033,23.1619318 12.6642733,23.1619318 C10.7443182,23.1619318 9.04496349,22.7054508 7.56620927,21.7924888 C6.08745506,20.8795268 4.9293814,19.5614282 4.0919883,17.838193 C3.25459521,16.1149579 2.83589866,14.0380452 2.83589866,11.6074552 C2.83589866,9.17675041 3.25459521,7.09539425 4.0919883,5.36338667 C4.9293814,3.6313791 6.08745506,2.30447943 7.56620927,1.38268766 C9.04496349,0.460895885 10.7443182,0 12.6642733,0 C13.8443641,0 14.9371319,0.176509048 15.942577,0.529527144 C16.9480221,0.88254524 17.8602387,1.38707386 18.679227,2.04311301 Z" id="Shape"></path>
        </g>
    </g>
</svg>