<?xml version="1.0" encoding="UTF-8"?>
<svg viewBox="0 0 18 24" version="1.1" xmlns="http://www.w3.org/2000/svg" xmlns:xlink="http://www.w3.org/1999/xlink">
    <g id="Argon-Commander" stroke="none" stroke-width="1" fill="none" fill-rule="evenodd">
        <g id="pound" transform="translate(0.699, 0.4545)" fill="currentColor" fill-rule="nonzero">
            <path d="M16.4422607,22.8536932 L0.0617509322,22.8536932 L0.0617509322,18.9258867 L16.4422607,18.9258867 L16.4422607,22.8536932 Z M12.0828857,13.8795111 L0,13.8795111 L0,10.1278409 L12.0828857,10.1278409 L12.0828857,13.8795111 Z M6.99247603,6.6844094 L7.34474876,16.0548983 C7.38442531,17.0588527 7.18521118,17.8965898 6.74710638,18.5681097 C6.30900158,19.2396296 5.55712521,19.8109834 4.49147727,20.2821711 L1.49715909,18.9258867 C1.81858502,18.855478 2.06260727,18.6870533 2.22922585,18.4206127 C2.39584443,18.154172 2.5074204,17.8341795 2.56395375,17.4606351 C2.6204871,17.0870907 2.64359353,16.70658 2.63327304,16.3191029 L2.29854514,6.6844094 C2.24430523,5.25181071 2.52284379,4.0379204 3.13416082,3.04273848 C3.74547785,2.04755656 4.5938508,1.291638 5.67927967,0.774982799 C6.76470855,0.2583276 7.9921875,-2.27373675e-13 9.36171653,-2.27373675e-13 C10.5124512,-2.27373675e-13 11.5358711,0.159250895 12.4319763,0.477752686 C13.3280815,0.796254476 14.0850895,1.24723122 14.7030002,1.83068293 C15.3209108,2.41413463 15.781434,3.10179462 16.0845698,3.89366289 C16.3877055,4.68553115 16.5186897,5.55706787 16.4775224,6.50827304 L12.0213068,6.38494318 C12.0404571,5.76261763 11.9326079,5.2635646 11.6977595,4.88778409 C11.462911,4.51200358 11.1458426,4.24043135 10.7465543,4.07306741 C10.347266,3.90570346 9.91202799,3.82202148 9.44084029,3.82202148 C8.97848233,3.82202148 8.56162054,3.92625843 8.19025491,4.13473233 C7.81888927,4.34320623 7.52532867,4.65881255 7.30957309,5.08155129 C7.09381751,5.50429003 6.98811849,6.03857607 6.99247603,6.6844094 Z" id="Shape"></path>
        </g>
    </g>
</svg>