<?xml version="1.0" encoding="UTF-8"?>
<svg viewBox="0 0 17 24" version="1.1" xmlns="http://www.w3.org/2000/svg" xmlns:xlink="http://www.w3.org/1999/xlink">
    <g id="Argon-Commander" stroke="none" stroke-width="1" fill="none" fill-rule="evenodd">
        <g id="rupee" transform="translate(0.8137, 0.7628)" fill="currentColor" fill-rule="nonzero">
            <path d="M15.5705233,5.59232955 L14.7691373,8.64822665 L0,8.64822665 L0.801558061,5.59232955 L15.5705233,5.59232955 Z M7.89981911,22.5454545 L0.369989569,13.5800448 L0.378761985,10.8323864 L4.09517045,10.8323864 C4.93044212,10.8323864 5.62584247,10.678267 6.18137152,10.3700284 C6.73690056,10.0617898 7.15522442,9.64272054 7.43634311,9.11282071 C7.71746179,8.58292088 7.8601999,7.98186701 7.86455744,7.30965909 C7.8601999,6.296875 7.56554991,5.46974506 6.98060747,4.82826926 C6.39566502,4.18679347 5.43385269,3.86605558 4.09517045,3.86605558 L0,3.86605558 L0.907171076,0 L4.09517045,0 C5.96960079,0 7.53172164,0.279971961 8.78153298,0.839915882 C10.0313443,1.3998598 10.9707383,2.19835039 11.5997148,3.23538763 C12.2286913,4.27242487 12.5453584,5.50724284 12.5497159,6.93984153 C12.5453584,7.89093203 12.4253827,8.75507239 12.1897888,9.53226263 C11.954195,10.3094529 11.589079,10.9963962 11.0944408,11.5930925 C10.5998027,12.1897888 9.96056297,12.6972702 9.17672175,13.1155368 C8.39288053,13.5338033 7.45053378,13.8618515 6.34968151,14.0996815 L13.078125,22.3428289 L13.078125,22.5454545 L7.89981911,22.5454545 Z M15.5968406,0 L14.7691373,3.10870361 L2.6157282,3.0999312 L3.44360352,0 L15.5968406,0 Z" id="Shape"></path>
        </g>
    </g>
</svg>