<?xml version="1.0" encoding="UTF-8"?>
<svg viewBox="0 0 53 54" version="1.1" xmlns="http://www.w3.org/2000/svg" xmlns:xlink="http://www.w3.org/1999/xlink">
    <title>bitcoin</title>
    <g id="Argon-Commander" stroke="none" stroke-width="1" fill="none" fill-rule="evenodd">
        <g id="Dashboard-Copy-2" transform="translate(-735, -188)" fill="#000000" fill-rule="nonzero">
            <g id="WALLET-OVERLAY" transform="translate(237, 53.4999)">
                <path d="M524.505,135.357173 C531.583398,135.357173 538.238107,138.113691 543.243398,143.118775 C548.248482,148.124066 551.005,154.778775 551.005,161.857173 C551.005,168.935572 548.248482,175.590281 543.243398,180.595572 C538.238107,185.600656 531.583398,188.357173 524.505,188.357173 C517.426602,188.357173 510.771893,185.600656 505.766602,180.595572 C500.761518,175.590281 498.005,168.935572 498.005,161.857173 C498.005,157.080031 499.290354,152.397087 501.722246,148.314638 C504.08323,144.350818 507.452457,141.05457 511.465654,138.781988 C511.838932,138.570919 512.312619,138.70197 512.523791,139.07504 C512.735066,139.448111 512.603809,139.921902 512.230738,140.133177 C508.4519,142.272949 505.279354,145.376865 503.056148,149.109224 C500.767521,152.951413 499.557734,157.359626 499.557734,161.857173 C499.557734,168.520888 502.152664,174.785654 506.864592,179.497581 C511.57652,184.209509 517.841285,186.804439 524.505,186.804439 C531.168715,186.804439 537.43348,184.209509 542.145408,179.497581 C546.857336,174.785654 549.452266,168.520888 549.452266,161.857173 C549.452266,155.193458 546.857336,148.928693 542.145408,144.216765 C537.43348,139.504837 531.168715,136.909908 524.505,136.909908 C521.23225,136.909908 518.051008,137.533693 515.049779,138.763976 C514.653004,138.926495 514.199605,138.736751 514.036982,138.339976 C513.874256,137.943201 514.064104,137.489802 514.460879,137.327179 C517.649885,136.019984 521.029256,135.357173 524.505,135.357173 Z M524.505,138.681577 C530.695441,138.681577 536.515297,141.092249 540.892662,145.469511 C545.269924,149.846876 547.680596,155.666732 547.680596,161.857173 C547.680596,168.047615 545.269924,173.86747 540.892662,178.244835 C536.515297,182.622097 530.695441,185.032769 524.505,185.032769 C521.812869,185.032769 519.174773,184.575126 516.663898,183.67247 C516.260395,183.527445 516.050879,183.082742 516.195904,182.679341 C516.34093,182.275734 516.785633,182.066322 517.189137,182.211347 C519.531074,183.053136 521.992469,183.480035 524.505,183.480035 C536.427826,183.480035 546.127861,173.779999 546.127861,161.857173 C546.127861,149.934347 536.427826,140.234312 524.505,140.234312 C512.582174,140.234312 502.882139,149.934347 502.882139,161.857173 C502.882139,169.793199 507.218408,177.078732 514.198777,180.870716 C514.575471,181.075367 514.71501,181.546673 514.510359,181.92347 C514.305709,182.300163 513.834402,182.439702 513.457605,182.235052 C505.976635,178.171236 501.329404,170.362845 501.329404,161.857173 C501.329404,155.666732 503.740076,149.846876 508.117338,145.469511 C512.494703,141.092249 518.314559,138.681577 524.505,138.681577 Z M520.863732,147.587327 C522.089142,147.593101 523.091118,148.620324 523.096896,149.877015 L523.101921,150.948534 L524.755417,150.956488 L524.75052,149.899686 C524.747565,149.276788 524.984824,148.694892 525.418431,148.261309 C525.836844,147.842838 526.390398,147.613933 526.976915,147.616769 C528.202626,147.622624 529.204275,148.649866 529.210079,149.906457 L529.215008,150.980736 C532.581076,151.098529 535.300663,153.942186 535.316807,157.406728 C535.322214,158.58841 535.01859,159.715151 534.432583,160.707499 C536.025662,161.99481 536.961835,163.931933 536.971632,166.030322 C536.980227,167.868828 536.277986,169.588133 534.994327,170.87162 C533.750484,172.1153 532.105246,172.795643 530.361839,172.787282 L529.316378,172.78225 L529.320012,173.561794 C529.32294,174.184791 529.085709,174.766587 528.652101,175.20017 C528.233588,175.618615 527.680134,175.847546 527.093617,175.84471 C525.86808,175.839009 524.866257,174.811613 524.860453,173.555022 L524.85669,172.760761 L523.203194,172.752808 L523.206829,173.532352 C523.209784,174.155249 522.972525,174.737145 522.538918,175.170728 C522.120505,175.5892 521.566951,175.818104 520.980434,175.815268 C520.789716,175.81432 520.604335,175.788653 520.427256,175.741204 C519.467167,175.483949 518.752321,174.586603 518.747397,173.525507 L518.743633,172.731246 L515.387405,172.715113 C514.162048,172.709139 513.160218,171.682169 513.154341,170.425452 C513.151513,169.802481 513.388771,169.220585 513.822379,168.787002 C514.240792,168.368531 514.794319,168.139726 515.380836,168.142562 L516.96069,168.150181 L516.901781,155.491124 L515.307237,155.483535 C514.081453,155.477553 513.080004,154.450364 513.0742,153.193773 C513.071272,152.570775 513.30853,151.98888 513.742238,151.555324 C514.160651,151.136852 514.714178,150.908048 515.300695,150.910884 L518.642233,150.927046 L518.637337,149.870244 C518.634409,149.247246 518.87164,148.665451 519.305248,148.231867 C519.723761,147.813422 520.277215,147.584491 520.863732,147.587327 Z M520.856165,149.140189 C520.687165,149.13938 520.526158,149.206728 520.403005,149.329979 C520.264558,149.468315 520.188956,149.657677 520.189843,149.86314 L520.198429,151.703681 C520.199361,151.910978 520.117446,152.1099 519.971028,152.256388 C519.824509,152.40285 519.625544,152.484675 519.418329,152.4837 L515.293101,152.463846 C515.124101,152.463037 514.963221,152.530311 514.839968,152.653536 C514.701621,152.791899 514.626019,152.98126 514.626907,153.186723 C514.628798,153.595216 514.937701,153.929401 515.31465,153.930845 L517.678294,153.942183 C518.104092,153.9445 518.44903,154.288983 518.450954,154.714953 L518.517013,168.926743 C518.517972,169.133939 518.436057,169.332862 518.289639,169.47935 C518.14312,169.625812 517.944155,169.707637 517.73694,169.706662 L515.373296,169.695324 C515.204323,169.694415 515.043416,169.76179 514.920036,169.885087 C514.781716,170.02335 514.706087,170.212812 514.706974,170.418275 C514.708866,170.826768 515.016977,171.160311 515.394718,171.162397 L519.520046,171.182278 C519.588413,171.1827 519.654675,171.191775 519.717768,171.20868 C520.04773,171.297093 520.290914,171.597379 520.292606,171.955021 L520.29993,173.518303 C520.301822,173.926796 520.610098,174.26092 520.987774,174.262452 C521.156774,174.263261 521.317781,174.195914 521.440934,174.072662 C521.579281,173.9343 521.654983,173.744965 521.653995,173.539475 L521.646798,171.976119 C521.645839,171.768922 521.727754,171.57 521.874273,171.423538 C522.020691,171.27705 522.219657,171.195225 522.426871,171.1962 L525.633156,171.211593 C526.059081,171.213837 526.403892,171.558393 526.405816,171.984363 L526.41314,173.547645 C526.415032,173.956138 526.723289,174.289935 527.100984,174.291794 C527.269984,174.292603 527.430891,174.225229 527.554144,174.102004 C527.692491,173.963642 527.768093,173.77428 527.767206,173.568817 L527.759882,172.005535 C527.758923,171.798338 527.840838,171.599415 527.987356,171.452954 C528.133775,171.306465 528.33274,171.22464 528.539955,171.225615 L530.369179,171.234466 C531.695069,171.240801 532.94776,170.722014 533.896343,169.773555 C534.884741,168.785288 535.425453,167.458444 535.418799,166.037445 C535.410229,164.200445 534.48822,162.524425 532.952479,161.554262 C532.767601,161.43753 532.640615,161.248326 532.602605,161.033023 C532.564468,160.817793 532.618937,160.596513 532.752545,160.423444 C533.419295,159.560112 533.769005,158.519344 533.763847,157.413925 C533.751439,154.733347 531.622986,152.542018 529.019634,152.529787 L528.438365,152.526964 C528.012714,152.524901 527.667729,152.18019 527.665705,151.754194 L527.657119,149.913654 C527.655128,149.505134 527.346451,149.170903 526.969275,149.169505 C526.800275,149.168696 526.639268,149.236043 526.516115,149.359294 C526.377768,149.497657 526.302066,149.686992 526.303054,149.892482 L526.311613,151.733123 C526.312572,151.94032 526.230657,152.139242 526.084138,152.285704 C525.93772,152.432192 525.738754,152.514017 525.53154,152.513042 L522.325255,152.497649 C521.89903,152.495325 521.554545,152.150748 521.552595,151.724879 L521.544009,149.884338 C521.542017,149.475819 521.233467,149.141515 520.856165,149.140189 Z M520.623531,162.197379 L530.32755,162.244088 C532.378651,162.253985 534.055163,163.946238 534.064834,166.0163 C534.069464,167.027699 533.68063,167.976108 532.969767,168.68691 C532.26815,169.3884 531.337027,169.772158 530.347757,169.767393 L520.643739,169.720684 C520.575372,169.720262 520.509109,169.711187 520.446016,169.694282 C520.115955,169.605842 519.872798,169.305456 519.871178,168.947941 L519.843458,162.977298 C519.842499,162.770101 519.924414,162.571178 520.070933,162.424717 C520.217351,162.278229 520.416317,162.196404 520.623531,162.197379 Z M521.399681,163.753833 L521.420178,168.171616 L530.35507,168.214677 C530.926824,168.217415 531.4654,167.995214 531.871756,167.588944 C532.287358,167.173363 532.514764,166.617441 532.511974,166.023523 C532.506342,164.801486 531.523023,163.802625 530.31991,163.796824 L521.399681,163.753833 Z M520.585219,153.956131 L529.041283,153.996813 C530.890091,154.005767 532.401257,155.529188 532.409882,157.39278 C532.414107,158.302905 532.063954,159.156547 531.423837,159.796499 C530.791023,160.429191 529.950804,160.775256 529.058072,160.77096 L520.602009,160.730279 C520.533642,160.729857 520.46738,160.720783 520.404287,160.703877 C520.074325,160.615464 519.831168,160.315078 519.829449,159.957536 L519.805146,154.736051 C519.804187,154.528854 519.886102,154.329931 520.032521,154.183443 C520.17904,154.036982 520.378005,153.955157 520.585219,153.956131 Z M521.361369,155.512586 L521.378549,159.181238 L529.065612,159.218198 C529.5408,159.220567 529.988399,159.035932 530.325952,158.69846 C530.670809,158.353729 530.859433,157.892547 530.857149,157.39993 C530.852409,156.384536 530.034842,155.554188 529.033743,155.549575 L521.361369,155.512586 Z" id="bitcoin"></path>
            </g>
        </g>
    </g>
</svg>