<?xml version="1.0" encoding="UTF-8"?>
<svg width="53px" height="53px" viewBox="0 0 53 53" version="1.1" xmlns="http://www.w3.org/2000/svg" xmlns:xlink="http://www.w3.org/1999/xlink">
    <title>Combined Shape</title>
    <g id="Page-1" stroke="none" stroke-width="1" fill="none" fill-rule="evenodd">
        <g id="bitcoin" transform="translate(0, -1)" fill="#000000" fill-rule="nonzero">
            <path d="M26.505,1.357073 C33.4507191,1.357073 39.978276,4.06086293 44.8898519,8.9722357 C49.8012101,13.883797 52.505,20.4113539 52.505,27.357073 C52.505,34.302793 49.8012102,40.8303499 44.8898373,45.7419259 C39.9782764,50.6532837 33.4507197,53.357073 26.505,53.357073 C19.5592803,53.357073 13.0317236,50.6532837 8.12014808,45.7419113 C3.20878984,40.8303499 0.505,34.302793 0.505,27.357073 C0.505,22.6698173 1.76611782,18.0753111 4.15180627,14.0704246 C6.46829426,10.1813083 9.77434791,6.94679253 13.712032,4.71697175 C13.8448813,4.64185261 14.0135567,4.68855233 14.0886627,4.82123938 C14.1638928,4.95408117 14.117166,5.12278347 13.9843482,5.19799994 C10.1299467,7.38055982 6.89425468,10.5462365 4.62658068,14.3532492 C2.29175772,18.2729928 1.057734,22.7696383 1.057734,27.357073 C1.057734,34.1534025 3.70534686,40.5453437 8.51103865,45.3510344 C13.3167306,50.1567264 19.7086709,52.804339 26.505,52.804339 C33.3013291,52.804339 39.6932694,50.1567264 44.4989614,45.3510344 C49.3046531,40.5453437 51.952266,34.1534025 51.952266,27.357073 C51.952266,20.5607439 49.3046534,14.1688036 44.4989614,9.36311161 C39.6932698,4.55741999 33.3013297,1.909808 26.505,1.909808 C23.1673124,1.909808 19.9216447,2.54624301 16.8601315,3.8012381 C16.7189339,3.85907261 16.5575247,3.79150738 16.4996304,3.65025401 C16.4416856,3.5089671 16.5092194,3.34763333 16.650501,3.28972736 C19.7792069,2.00724975 23.0941515,1.357073 26.505,1.357073 Z M26.505,4.681477 C32.562808,4.681477 38.2554967,7.03945326 42.5391128,11.3229686 C46.8226197,15.6065763 49.180596,21.299265 49.180596,27.357073 C49.180596,33.4148816 46.82262,39.1075694 42.5391044,43.3911858 C38.2554967,47.6746927 32.562808,50.032669 26.505,50.032669 C23.8703508,50.032669 21.289492,49.584939 18.8330489,48.7018512 C18.6894054,48.6502235 18.6148188,48.4919336 18.6664218,48.3483949 C18.7180608,48.2046834 18.8763175,48.1301293 19.0200214,48.1817785 C21.4164403,49.0431506 23.935069,49.479935 26.505,49.479935 C38.7039682,49.479935 48.627861,39.5560416 48.627861,27.357073 C48.627861,15.1581046 38.7039684,5.234212 26.505,5.234212 C14.3060316,5.234212 4.382139,15.1581046 4.382139,27.357073 C4.382139,35.4764311 8.81873062,42.9305264 15.9601027,46.809973 C16.0941742,46.8828116 16.1438375,47.0505933 16.0709832,47.1847304 C15.9981641,47.3187662 15.8303812,47.3684298 15.6962437,47.2955757 C8.37633836,43.3192533 3.829404,35.6794429 3.829404,27.357073 C3.829404,21.299265 6.18738026,15.6065763 10.4708956,11.3229602 C14.7545033,7.03945326 20.447192,4.681477 26.505,4.681477 Z M22.8613655,13.587156 C23.809691,13.5916839 24.5923722,14.3941544 24.5969013,15.3792139 L24.6019265,16.4507788 L24.6042491,16.9460458 L25.0995158,16.9484282 L26.7530118,16.9563822 L27.2577505,16.9588102 L27.2554116,16.4540711 L27.2505146,15.3972691 C27.2481898,14.9072087 27.4331125,14.4536155 27.7719746,14.1147722 C28.0962727,13.7904291 28.521742,13.6144739 28.9744974,13.6166632 C29.9230333,13.6211941 30.7055343,14.4235592 30.7100843,15.4086664 L30.7150133,16.4829301 L30.7172183,16.9635223 L31.1975216,16.9803301 C34.3001303,17.0889036 36.8019426,19.7178466 36.8168124,22.9089579 C36.8217971,23.9983404 36.5432003,25.036765 36.0020475,25.9531567 L35.7825043,26.3249325 L36.1183268,26.5962988 C37.6016048,27.7948834 38.4625902,29.593493 38.4718567,31.532575 C38.4796165,33.2380915 37.8297702,34.8291293 36.6407973,36.0179429 C35.4910794,37.1675101 33.9738914,37.7949073 32.3642369,37.7871877 L31.3187846,37.7821558 L30.8140304,37.7797263 L30.8163834,38.2844808 L30.8200174,39.0640248 C30.8223209,39.5541475 30.6374316,40.0076521 30.2985578,40.3465064 C29.9741548,40.6708567 29.5487338,40.8468107 29.0960124,40.844681 C28.147641,40.84021 27.3649976,40.0376985 27.3604477,39.0526126 L27.3566844,38.2582922 L27.3543381,37.7630488 L26.8590949,37.7606668 L25.2055989,37.7527138 L24.7008458,37.750286 L24.7031994,38.2550395 L24.7068344,39.0345835 C24.7091592,39.5246285 24.5242364,39.9782216 24.1853744,40.3170648 C23.8610767,40.6414083 23.4356078,40.8173631 22.9828516,40.8151738 C22.8376444,40.8144521 22.694863,40.7951716 22.5566676,40.7581416 C21.7990851,40.5551481 21.251196,39.842909 21.2473916,39.0230868 L21.2436274,38.2287765 L21.2412804,37.7335324 L20.7460364,37.7311518 L17.3898084,37.7150188 C16.4414751,37.7103954 15.6589422,36.90809 15.6543355,35.9230138 C15.6521108,35.4329254 15.8370649,34.9793033 16.1759222,34.6404656 C16.5001756,34.3161672 16.9255995,34.1402666 17.3784184,34.1424562 L18.9582787,34.1500752 L19.4630335,34.1525094 L19.4606846,33.6477543 L19.4017756,20.9886973 L19.3994707,20.493387 L18.9041607,20.4910297 L17.3096167,20.4834407 C16.3610994,20.4788118 15.5787391,19.6765115 15.5741265,18.6913529 C15.5718852,18.2011974 15.7568246,17.7476254 16.0957294,17.4088394 C16.4200342,17.0844888 16.8454576,16.9085886 17.2982774,16.9107782 L20.6398147,16.9269402 L21.1445661,16.9293815 L21.1422276,16.4246296 L21.1373316,15.3678276 C21.1350281,14.8776899 21.3199171,14.4241859 21.6587916,14.0853302 C21.9831942,13.7609803 22.4086152,13.5850263 22.8613655,13.587156 Z M22.8585371,14.1400605 C22.5548705,14.1386467 22.2660191,14.2595857 22.049311,14.4764663 C21.8154538,14.7101358 21.6883922,15.0280594 21.6898477,15.3651985 L21.6984344,17.2059134 C21.6987662,17.2797044 21.6695952,17.3505891 21.6173901,17.4028191 C21.5653748,17.4548141 21.4945239,17.483953 21.4206816,17.4836055 L17.2955074,17.4637518 C16.9918993,17.4622984 16.7032475,17.583099 16.4864548,17.7998424 C16.2524479,18.0338763 16.1254599,18.3517297 16.1268797,18.6887651 C16.1300398,19.3634476 16.6520368,19.9282104 17.3127346,19.9307413 L19.6758956,19.9420772 C19.8274882,19.9429022 19.950275,20.0656512 19.9509591,20.2171114 L20.0170184,34.4289671 C20.0173597,34.5026989 19.988197,34.5735603 19.9360011,34.6257811 C19.8839858,34.6777761 19.8131349,34.706915 19.7392926,34.7065675 L17.3756944,34.6952298 C17.0723221,34.6935977 16.7835709,34.8144914 16.5666016,35.0313147 C16.3325625,35.2652573 16.2055235,35.5832608 16.2069787,35.9203335 C16.210103,36.5948962 16.7310504,37.1586397 17.3919569,37.1622894 L21.5176364,37.1821722 C21.5420692,37.1823235 21.565905,37.1855268 21.5883636,37.1915443 C21.7072278,37.2233938 21.7920183,37.33188 21.7926116,37.4572865 L21.7999355,39.0205455 C21.8030602,39.6951786 22.3245393,40.2596658 22.9857458,40.2623479 C23.2890554,40.2638 23.577916,40.142861 23.7946294,39.9259733 C24.0285364,39.692041 24.1556101,39.3740864 24.1539892,39.036971 L24.1467927,37.4737172 C24.1464514,37.399986 24.175591,37.3292064 24.2277576,37.2770602 C24.2799329,37.22486 24.3507051,37.1957472 24.4245184,37.1960945 L27.6307556,37.2114872 C27.7824209,37.2122863 27.9051367,37.3349862 27.9058211,37.4865214 L27.9131455,39.0498875 C27.9162694,39.7243614 28.4375058,40.288429 29.0985135,40.2917203 C29.4021954,40.2931359 29.690864,40.1722415 29.9076572,39.9554976 C30.141668,39.7214614 30.2686564,39.4035994 30.2672013,39.0665585 L30.2598765,37.5030925 C30.2595354,37.4294017 30.2886753,37.3586212 30.3408406,37.3064762 C30.3930172,37.2542747 30.4637885,37.2251622 30.5376024,37.2255095 L32.3667597,37.2343601 C33.8265917,37.2413351 35.2072807,36.6694878 36.2498733,35.6270315 C37.3330671,34.5439812 37.9260638,33.0888274 37.9189831,31.5350251 C37.9094241,29.5278485 36.9000532,27.6930772 35.219519,26.6314451 C35.153656,26.5898591 35.1085159,26.5226077 35.0949908,26.4459963 C35.0813845,26.3692076 35.1007417,26.2905267 35.1483281,26.2288857 C35.8833453,25.2771589 36.2695176,24.1279342 36.2638416,22.911492 C36.2501784,19.9597611 33.902909,17.5432276 31.0219831,17.5296925 L30.4407933,17.5268699 C30.289265,17.5261355 30.1664196,17.4033081 30.1656994,17.2517184 L30.1571136,15.4112216 C30.1538254,14.7365527 29.6319962,14.1718579 28.9711282,14.1694084 C28.6679945,14.167957 28.3791345,14.2888953 28.162421,14.5057813 C27.9285122,14.7397171 27.8014389,15.0576712 27.8030598,15.394786 L27.8116184,17.235348 C27.8119596,17.309056 27.78282,17.3798356 27.7306534,17.4319818 C27.6784781,17.484182 27.6077059,17.5132948 27.5338926,17.5129475 L24.3276554,17.4975548 C24.1758755,17.4967271 24.053284,17.3741134 24.0525898,17.2224896 L24.0440036,15.3819056 C24.0409191,14.749341 23.5821355,14.2134439 22.9801464,14.1470032 Z M22.6211992,28.1972619 L32.3251429,28.2439822 C34.1008958,28.2525506 35.5564504,29.721717 35.5649154,31.5185458 C35.5688652,32.396766 35.232546,33.2169771 34.6162288,33.8332414 C34.008871,34.4404893 33.2058421,34.7714262 32.3501432,34.7673799 L22.6461479,34.7205898 C22.6217153,34.7204385 22.5978786,34.7172351 22.5754204,34.7112177 C22.4565335,34.6793619 22.3717406,34.5708588 22.3711729,34.4455754 L22.3434414,28.474876 C22.3431061,28.4011734 22.3722494,28.3303867 22.4244164,28.2782404 C22.4765947,28.2260372 22.547374,28.1969206 22.6211992,28.1972619 Z M22.8973445,28.7513062 L22.8996864,29.2560528 L22.9201834,33.6738358 L22.9224813,34.1691218 L23.4177669,34.1715102 L32.3526589,34.2146264 C33.0580534,34.2179433 33.7247039,33.942897 34.225272,33.4424348 C34.735544,32.9321886 35.0153777,32.2480144 35.0120243,31.5210956 C35.0050747,30.0264811 33.8014648,28.8038617 32.3223208,28.7967298 L23.4020907,28.7537388 L22.8973445,28.7513062 Z M22.5828895,19.956014 L31.038877,19.9967072 C32.6125003,20.0043285 33.9025334,21.3048263 33.909957,22.8950042 C33.9134996,23.6719243 33.6159119,24.3973579 33.0703292,24.9428 C32.5318174,25.481208 31.8197205,25.7745253 31.0604559,25.7709383 L22.6044167,25.7301848 C22.5799835,25.7300335 22.5561503,25.7268306 22.5336985,25.7208146 C22.4148806,25.6889775 22.3300461,25.580421 22.3294432,25.4550321 L22.3051293,20.233623 C22.304794,20.1599029 22.3339601,20.0890352 22.3861577,20.0368131 C22.4381753,19.9848161 22.5090348,19.9556729 22.5828895,19.956014 Z M22.8590107,20.5100583 L22.8613745,21.0148274 L22.8785545,24.6834794 L22.8808738,25.1787495 L23.3761435,25.1811322 L31.0632065,25.2181429 C31.6719121,25.2211205 32.2476379,24.9836772 32.679463,24.5519558 C33.1189235,24.1126558 33.3600392,23.5232286 33.3571896,22.8975326 C33.351124,21.6091803 32.312918,20.555364 31.0360469,20.5494803 L23.3637795,20.5124918 L22.8590107,20.5100583 Z" id="Combined-Shape"></path>
        </g>
    </g>
</svg>