<?xml version="1.0" encoding="UTF-8"?>
<svg viewBox="0 0 59 59" version="1.1" xmlns="http://www.w3.org/2000/svg" xmlns:xlink="http://www.w3.org/1999/xlink">
    <title>bitcoin-step1</title>
    <g id="Argon-Desktop" stroke="none" stroke-width="1" fill="none" fill-rule="evenodd">
        <g id="Frame-16" transform="translate(-534, -386)" fill="currentColor" fill-rule="nonzero">
            <path d="M585.69528,413.293775 L585.869422,413.410304 C588.29768,415.065313 589.902431,417.904131 589.902431,421.121834 L589.901446,425.087285 L590.608041,425.088086 C591.837377,425.088086 592.847062,426.075618 592.929068,427.32111 L592.934446,427.484969 L592.934446,442.485338 C592.934446,443.807014 591.890826,444.882285 590.608041,444.882285 L571.260913,444.882285 C569.978128,444.882285 568.934446,443.807014 568.934446,442.485403 L568.934577,435.967117 C569.299639,435.824649 569.660758,435.674303 570.017724,435.516288 L570.017478,442.485338 C570.017478,443.191744 570.57526,443.766408 571.260913,443.766408 L590.608041,443.766408 C591.293632,443.766408 591.851414,443.191744 591.851414,442.485338 L591.851414,427.484969 C591.851414,426.778563 591.293632,426.203899 590.608041,426.203899 L581.187185,426.203932 C581.436337,425.838552 581.676569,425.466604 581.907567,425.0884 L585.812446,425.087285 L585.812658,421.121834 C585.812658,420.016009 585.464228,418.992444 584.874537,418.161558 C584.992399,417.722363 585.098762,417.277944 585.193751,416.829325 C586.246113,417.936594 586.895878,419.452512 586.895878,421.121834 L586.895878,425.088086 L588.819461,425.088086 L588.819461,421.121834 C588.819461,418.426461 587.538752,416.033482 585.571353,414.554898 C585.622992,414.137687 585.66412,413.717116 585.69528,413.293775 Z M580.934383,430.593479 C582.490429,430.593479 583.756385,431.897752 583.756385,433.500895 C583.756385,434.363729 583.388222,435.166621 582.755557,435.715826 L583.364137,438.70426 C583.397606,438.86868 583.35738,439.039932 583.254595,439.170514 C583.151809,439.300967 582.997412,439.376764 582.834257,439.376764 L579.03451,439.376764 C578.871417,439.376764 578.71702,439.300903 578.614109,439.170514 C578.511261,439.039996 578.471035,438.868744 578.504505,438.704131 L579.113272,435.715955 C578.480482,435.166621 578.112318,434.363729 578.112318,433.500895 C578.112318,431.897752 579.378275,430.593479 580.934383,430.593479 Z M580.934383,431.70942 C579.975469,431.70942 579.195413,432.513086 579.195413,433.500959 C579.195413,434.112942 579.498202,434.676971 580.005435,435.009549 C580.195742,435.134266 580.290957,435.367393 580.244663,435.594848 L579.701521,438.260822 L582.167308,438.260822 L581.624291,435.594654 C581.577934,435.367264 581.673338,435.134137 581.863519,435.009356 C582.370627,434.676971 582.673416,434.11307 582.673291,433.500959 C582.673291,432.513086 581.893235,431.70942 580.934383,431.70942 Z M559.382285,386.032285 C566.153723,386.032285 572.519179,388.668931 577.307511,393.457064 C582.09564,398.245392 584.732285,404.610848 584.732285,411.382285 C584.732285,418.153723 582.09564,424.519179 577.307506,429.307511 C572.519179,434.09564 566.153723,436.732285 559.382285,436.732285 C552.610848,436.732285 546.245392,434.09564 541.45706,429.307506 C536.668931,424.519179 534.032285,418.153723 534.032285,411.382285 C534.032285,406.812331 535.261888,402.332641 537.588126,398.427555 C539.846633,394.635783 543.069743,391.482416 546.908904,389.308387 C547.196004,389.146047 547.560297,389.246906 547.722659,389.533745 C547.885142,389.820658 547.784214,390.185048 547.497286,390.34754 C543.838392,392.419393 540.766614,395.424702 538.613954,399.038628 C536.397812,402.759129 535.226426,407.02753 535.226426,411.382285 C535.226426,417.834328 537.739242,423.900839 542.301487,428.463084 C546.863732,433.025329 552.930243,435.538145 559.382285,435.538145 C565.834328,435.538145 571.900839,433.025329 576.463084,428.463084 C581.025329,423.900839 583.538145,417.834328 583.538145,411.382285 C583.538145,404.930243 581.025329,398.863732 576.463084,394.301487 C571.900839,389.739242 565.834328,387.226426 559.382285,387.226426 C556.213525,387.226426 553.133005,387.830478 550.226971,389.021738 C549.921823,389.146727 549.573142,389.00077 549.448082,388.695643 C549.32294,388.390509 549.468897,388.041826 549.774074,387.916746 C552.824646,386.666295 556.057166,386.032285 559.382285,386.032285 Z M559.382285,389.23124 C565.299318,389.23124 570.861411,391.535122 575.04548,395.719093 C579.229448,399.90316 581.53333,405.465253 581.53333,411.382285 C581.53333,417.299318 579.229448,422.861411 575.045478,427.04548 C570.861411,431.229448 565.299318,433.53333 559.382285,433.53333 C556.808956,433.53333 554.287585,433.09592 551.88782,432.233208 C551.577512,432.121679 551.416365,431.779688 551.527896,431.469457 C551.63942,431.159083 551.981386,430.997984 552.291758,431.109537 C554.561736,431.92546 556.947423,432.33919 559.382285,432.33919 C570.938036,432.33919 580.33919,422.938036 580.33919,411.382285 C580.33919,399.826534 570.938036,390.425381 559.382285,390.425381 C547.826534,390.425381 538.425381,399.826534 538.425381,411.382285 C538.425381,419.073836 542.628113,426.135013 549.393374,429.810143 C549.683079,429.967534 549.79037,430.330004 549.632988,430.619772 C549.475603,430.909466 549.113133,431.016757 548.823365,430.859375 C541.673033,426.975168 537.23124,419.512018 537.23124,411.382285 C537.23124,405.465253 539.535122,399.90316 543.719093,395.71909 C547.90316,391.535122 553.465253,389.23124 559.382285,389.23124 Z M555.877717,397.800876 C556.973783,397.806087 557.872134,398.727145 557.877318,399.854898 L557.882154,400.885996 L557.882851,401.034576 L558.031431,401.035291 L559.622531,401.042945 L559.773952,401.043673 L559.773251,400.892252 L559.768539,399.875329 C559.765885,399.315811 559.978473,398.794358 560.367311,398.405542 C560.741688,398.031112 561.235923,397.826718 561.760195,397.829253 C562.856447,397.83449 563.754607,398.75545 563.759816,399.883233 L563.764559,400.916968 L563.76522,401.061146 L563.909311,401.066188 C567.073925,401.176931 569.620971,403.853406 569.636101,407.100481 C569.64117,408.208263 569.357328,409.266239 568.806081,410.199723 L568.740218,410.311256 L568.840965,410.392665 C570.345799,411.608668 571.219305,413.433473 571.228626,415.398657 C571.236564,417.12787 570.576561,418.743822 569.36973,419.950491 C568.201065,421.119003 566.656327,421.757792 565.018831,421.749939 L564.012823,421.745096 L563.861397,421.744368 L563.862103,421.895794 L563.8656,422.645921 C563.868231,423.205516 563.655676,423.726879 563.266829,424.115704 C562.892325,424.490147 562.398161,424.694527 561.873944,424.692039 C560.777845,424.686893 559.879533,423.765784 559.874324,422.638013 L559.870702,421.873707 L559.869998,421.725134 L559.721425,421.724419 L558.130326,421.716766 L557.9789,421.716037 L557.979606,421.867463 L557.983103,422.61759 C557.985758,423.177104 557.773169,423.698557 557.384332,424.087373 C557.009954,424.461803 556.515719,424.666196 555.991447,424.663661 C555.823194,424.662825 555.657554,424.640458 555.497241,424.597502 C554.623889,424.363488 553.996302,423.547644 553.991948,422.609608 L553.988327,421.845305 L553.987623,421.696732 L553.83905,421.696018 L550.609472,421.680493 C549.513405,421.675149 548.615226,420.754275 548.609952,419.626531 C548.607411,419.066936 548.820023,418.545481 549.208845,418.15668 C549.583185,417.782288 550.077379,417.577953 550.601704,417.580488 L552.121943,417.587819 L552.27337,417.58855 L552.272665,417.437123 L552.215979,405.255767 L552.215288,405.107174 L552.066695,405.106466 L550.532322,405.099163 C549.436041,405.093813 548.538044,404.172922 548.532787,403.045113 C548.530204,402.485476 548.742809,401.964037 549.131713,401.575269 C549.506068,401.200861 550.000262,400.996526 550.524587,400.999061 L553.74003,401.014614 L553.891455,401.015346 L553.890753,400.863921 L553.886042,399.846998 C553.883412,399.287399 554.095966,398.766036 554.484813,398.377211 C554.859318,398.002768 555.353482,397.798388 555.877717,397.800876 Z M555.871761,398.995162 C555.668723,398.994244 555.475489,399.075161 555.328974,399.221792 C555.167172,399.383465 555.078941,399.604228 555.079966,399.841505 L555.088228,401.612643 C555.088945,401.772024 555.025974,401.925041 554.913315,402.037753 C554.800678,402.150346 554.647656,402.21328 554.48827,402.21253 L550.518728,402.193425 C550.31568,402.192453 550.122551,402.273277 549.975918,402.419877 C549.814119,402.581694 549.725927,402.802447 549.726917,403.03967 C549.729141,403.512588 550.090308,403.903347 550.538166,403.905063 L552.812471,403.915972 C553.140056,403.917755 553.405217,404.182834 553.406696,404.51026 L553.470262,418.185776 C553.470999,418.345076 553.408029,418.498085 553.295375,418.610792 C553.182738,418.723385 553.029715,418.786319 552.870329,418.785569 L550.595894,418.774659 C550.392982,418.773567 550.199792,418.854451 550.052987,419.001158 C549.891204,419.162874 549.802973,419.383733 549.803998,419.620975 C549.806188,420.093913 550.16656,420.48389 550.614959,420.486366 L554.58472,420.505498 C554.636889,420.50582 554.68794,420.512681 554.736881,420.525794 C554.994618,420.594855 555.17757,420.828934 555.178851,421.099792 L555.185899,422.604076 C555.188089,423.077136 555.548823,423.46762 555.997176,423.469439 C556.20014,423.470411 556.393414,423.389492 556.539952,423.242836 C556.701765,423.081005 556.790004,422.860221 556.788864,422.623024 L556.781939,421.118694 C556.781201,420.959371 556.844181,420.806393 556.956876,420.693742 C557.069485,420.58108 557.222479,420.518144 557.381871,420.518894 L560.467149,420.533707 C560.794793,420.535433 561.059895,420.8005 561.061374,421.127995 L561.068422,422.63231 C561.070612,423.105254 561.431197,423.495467 561.879569,423.497707 C562.082598,423.498646 562.275762,423.417751 562.422421,423.271126 C562.58422,423.109309 562.672412,422.888556 562.671387,422.651332 L562.66434,421.146987 C562.663602,420.987676 562.726582,420.834698 562.839277,420.722048 C562.951886,420.609385 563.10488,420.546449 563.264272,420.547199 L565.024449,420.555716 C566.340525,420.562004 567.584333,420.046849 568.525297,419.106008 C569.504852,418.126584 570.040831,416.811308 570.034241,415.404108 C570.025757,413.585384 569.112329,411.924983 567.591104,410.963989 C567.448913,410.87421 567.351267,410.728735 567.322036,410.563157 C567.292701,410.397605 567.334563,410.22745 567.437337,410.094322 C568.099397,409.237063 568.446859,408.203036 568.44174,407.106007 C568.429424,404.445214 566.315623,402.269038 563.72726,402.256877 L563.16795,402.254161 C562.840523,402.252574 562.575273,401.987363 562.573717,401.659838 L562.565455,399.888765 C562.563149,399.415751 562.202114,399.025059 561.754125,399.023398 C561.551213,399.022426 561.35794,399.103346 561.211401,399.250001 C561.049589,399.411832 560.96135,399.632616 560.96249,399.869813 L560.970726,401.640972 C560.971463,401.800288 560.908483,401.953266 560.795788,402.065916 C560.683179,402.178579 560.530185,402.241514 560.370793,402.240765 L557.285515,402.225952 C556.957717,402.224165 556.69279,401.95919 556.69129,401.631655 L556.683028,399.860556 C556.680722,399.387504 556.319791,398.996816 555.871761,398.995162 Z M555.646565,411.859638 L564.984394,411.904598 C566.875475,411.913723 568.422449,413.475175 568.431447,415.385165 C568.435645,416.318479 568.077219,417.192629 567.421566,417.848225 C566.774677,418.494998 565.91711,418.8484 565.005283,418.844008 L555.667454,418.799061 C555.615285,418.798739 555.564234,418.791878 555.515294,418.778765 C555.257515,418.709693 555.07455,418.475567 555.073323,418.204797 L555.046636,412.459445 C555.045912,412.300128 555.108892,412.14715 555.221587,412.034499 C555.334195,411.921837 555.48719,411.858901 555.646565,411.859638 Z M556.243447,413.056645 L556.24415,413.208069 L556.263873,417.459143 L556.264563,417.607729 L556.413149,417.608445 L565.010875,417.649908 C565.601137,417.652709 566.157816,417.423041 566.577105,417.00384 C567.005448,416.57552 567.239979,416.002089 567.237134,415.39071 C567.231311,414.133022 566.21901,413.104725 564.978488,413.098743 L556.394871,413.057375 L556.243447,413.056645 Z M555.609715,403.929388 L563.746666,403.968541 C565.443158,403.976757 566.830952,405.375819 566.838906,407.087054 C566.842751,407.922891 566.521574,408.705852 565.933981,409.293293 C565.353346,409.873817 564.583275,410.191005 563.764266,410.1871 L555.627299,410.147917 C555.575131,410.147595 555.52408,410.140734 555.475139,410.127621 C555.217449,410.058573 555.034471,409.824429 555.033169,409.553612 L555.009777,404.529187 C555.009046,404.369888 555.072016,404.216879 555.18467,404.104171 C555.297307,403.991578 555.450329,403.928645 555.609715,403.929388 Z M556.206574,405.126388 L556.207284,405.277819 L556.223815,408.808031 L556.224511,408.956612 L556.373092,408.957327 L563.770078,408.992916 C564.267351,408.995372 564.73651,408.801885 565.089632,408.448848 C565.449845,408.088766 565.647112,407.606516 565.64475,407.092544 C565.639785,406.033428 564.786721,405.16753 563.740823,405.162712 L556.358005,405.127118 L556.206574,405.126388 Z" id="bitcoin-step1"></path>
        </g>
    </g>
</svg>
