<?xml version="1.0" encoding="UTF-8"?>
<svg viewBox="0 0 54 54" version="1.1" xmlns="http://www.w3.org/2000/svg" xmlns:xlink="http://www.w3.org/1999/xlink">
    <title>mining</title>
    <g id="Argon-Commander" stroke="none" stroke-width="1" fill="none" fill-rule="evenodd">
        <g id="Dashboard-Copy-2" transform="translate(-402, -188)" fill="#282828" fill-rule="nonzero">
            <g id="WALLET-OVERLAY" transform="translate(237, 53.4999)">
                <path d="M208.315109,183.760936 C208.563021,183.746268 208.808901,183.735636 209.062267,183.735636 C209.537961,183.735636 209.968158,183.766407 210.369414,183.829827 L210.280404,183.815913 C210.358542,183.827668 210.43521,183.840517 210.510465,183.854402 C210.7777,183.903704 211.027135,183.966049 211.26146,184.038722 C211.313394,184.054829 211.364585,184.071443 211.415064,184.088535 C212.096591,184.324068 212.729759,184.681361 213.424832,185.173109 C213.52452,185.243635 213.603046,185.300177 213.776887,185.426097 C215.260734,186.500912 216.007148,186.825349 217.593068,186.825349 C218.01614,186.825349 218.358982,187.168059 218.358982,187.591047 C218.358982,188.014075 218.016203,188.357173 217.593171,188.357173 C217.127465,188.357173 216.705372,188.32766 216.311353,188.266883 L216.356217,188.273714 C216.284582,188.262743 216.214187,188.25085 216.144986,188.238083 C215.81416,188.177047 215.510616,188.096022 215.229248,188.000159 C214.552063,187.764629 213.922015,187.408469 213.230706,186.919376 C213.13103,186.848857 213.052495,186.792308 212.878654,186.666388 C211.394808,185.591573 210.648377,185.267136 209.06237,185.267136 C207.630522,185.267136 206.768972,185.589924 205.63081,186.390464 C205.52446,186.465266 205.439676,186.526237 205.246189,186.666388 C204.190014,187.431524 203.360351,187.894849 202.44178,188.138314 L202.465428,188.132374 C202.391616,188.152059 202.316698,188.170555 202.240557,188.187836 L202.44178,188.138314 C202.342726,188.164569 202.242638,188.188266 202.14112,188.20951 L202.240557,188.187836 C202.155292,188.207188 202.068492,188.225015 201.979993,188.241281 L202.14112,188.20951 C202.054676,188.227599 201.967195,188.24391 201.878433,188.258504 L201.979993,188.241281 C201.886682,188.25843 201.791482,188.273844 201.694197,188.287477 L201.878433,188.258504 C201.810715,188.269638 201.742252,188.279774 201.672935,188.288939 C201.319473,188.335674 200.94381,188.357173 200.531569,188.357173 C200.067897,188.357173 199.647454,188.327916 199.254903,188.267675 L199.292233,188.273351 C199.222813,188.262695 199.154558,188.251174 199.087425,188.23883 C198.818659,188.18941 198.567886,188.126803 198.332376,188.053762 C198.27661,188.036467 198.2217,188.018587 198.16761,188.000159 C197.490451,187.764659 196.860349,187.408486 196.169004,186.919376 L196.052082,186.836122 C195.991245,186.792516 195.921254,186.74194 195.816949,186.666388 C194.333102,185.591573 193.586688,185.267136 192.000768,185.267136 C190.568827,185.267136 189.707258,185.589927 188.56907,186.390489 C188.46273,186.465285 188.377953,186.526249 188.184483,186.666388 C187.263613,187.333497 186.507591,187.775953 185.711331,188.040321 C185.326467,188.165507 184.910786,188.257827 184.447896,188.311034 L184.524653,188.301827 C184.487092,188.306319 184.44928,188.310527 184.411201,188.314456 C184.059904,188.350701 183.685927,188.363132 183.276792,188.354585 C183.002005,188.348831 182.746154,188.334293 182.504301,188.309828 C181.741888,188.221879 181.114477,188.032209 180.572469,187.79064 C180.009342,187.528543 179.438798,187.161797 178.754832,186.666388 C177.271062,185.591629 176.524437,185.267136 174.938238,185.267136 C173.352058,185.267136 172.605595,185.591573 171.121748,186.666388 C170.947892,186.792308 170.869338,186.848865 170.769667,186.919376 C170.078287,187.408482 169.4482,187.764642 168.770528,188.000135 C168.443392,188.111765 168.085731,188.203257 167.689946,188.266512 L167.855412,188.239023 C167.785311,188.251672 167.714359,188.263282 167.642462,188.273866 C167.26167,188.329923 166.854387,188.357173 166.406819,188.357173 C165.98379,188.357173 165.641018,188.014077 165.641018,187.591047 C165.641018,187.168018 165.98379,186.825246 166.406819,186.825246 C167.993018,186.825246 168.739643,186.500753 170.223413,185.425994 C170.397254,185.300074 170.475779,185.243533 170.575467,185.173006 C171.268829,184.68247 171.900601,184.325726 172.580578,184.090327 C172.897333,183.982477 173.242615,183.893654 173.623335,183.831029 L173.489658,183.853624 C173.568053,183.839485 173.647513,183.826644 173.728167,183.815085 C174.101618,183.761563 174.500681,183.735533 174.938238,183.735533 C175.19787,183.735533 175.44963,183.746714 175.696694,183.768567 L175.697018,182.814173 L175.703905,177.282116 L170.718514,177.27549 C170.295484,177.27549 169.952712,176.932718 169.952712,176.509688 L169.952712,171.124421 C169.952712,170.701391 170.295484,170.358619 170.718514,170.358619 L171.277855,170.358619 L171.284482,169.369979 C171.284482,168.946949 171.627254,168.604177 172.050283,168.604177 C172.473313,168.604177 172.816085,168.946949 172.816085,169.369979 L172.816085,170.351993 L174.000922,170.358619 L174.007549,163.64717 C174.007549,163.22414 174.350321,162.881368 174.773351,162.881368 C175.19638,162.881368 175.539152,163.22414 175.539152,163.64717 L175.539152,170.351993 L186.357406,170.358619 L186.364033,168.031206 C186.364033,167.379744 186.894145,166.849632 187.545607,166.849632 L196.454383,166.849632 C197.105846,166.849632 197.635957,167.379744 197.635957,168.031206 L197.635957,170.351993 L208.454211,170.358619 L208.460838,158.331833 C208.460838,158.00928 208.198506,157.746915 207.87592,157.746915 L176.124173,157.746915 C175.801655,157.746915 175.539255,158.009315 175.539255,158.331833 L175.539255,160.558899 C175.539255,160.981861 175.196448,161.3247 174.773454,161.3247 C174.35046,161.3247 174.007652,160.981861 174.007652,160.558899 L174.007652,158.331833 C174.007652,157.164801 174.957141,156.215312 176.124173,156.215312 L179.868185,156.215312 L182.394819,138.405657 C182.448326,138.027942 182.771616,137.747169 183.153065,137.747169 L184.176687,137.747169 L184.183314,136.122975 C184.183314,135.700013 184.526121,135.357173 184.949115,135.357173 C185.372109,135.357173 185.714917,135.700013 185.714917,136.122975 L185.714917,137.740543 L186.745166,137.747169 C187.126717,137.747169 187.450006,138.027941 187.503411,138.405656 L190.023484,156.209614 L193.353444,156.215312 L193.360071,146.77507 C193.360071,146.352108 193.702879,146.009268 194.125872,146.009268 L196.075996,146.009268 L204.383368,142.575889 C204.77473,142.414463 205.22217,142.600174 205.38371,142.991055 C205.545251,143.381941 205.359388,143.829769 204.968544,143.991294 L200.117591,145.996415 L200.134018,145.996173 L200.120122,146.002539 L201.420018,146.002173 L202.723411,146.009165 C202.978189,146.009165 203.21362,146.135551 203.355037,146.34194 L203.409672,146.435155 L204.369337,148.373332 L204.374018,148.368173 L206.339018,146.669173 L213.494473,140.481184 L213.475018,140.489173 L213.490135,140.476175 L210.790018,141.592173 L207.847641,142.801239 C207.48922,142.949381 207.08318,142.805565 206.893475,142.47945 L206.847299,142.386072 C206.685758,141.995187 206.871621,141.547358 207.262465,141.385834 L217.300635,137.236658 C217.648005,137.093299 218.047752,137.222671 218.244919,137.542264 C218.442087,137.861857 218.378374,138.277433 218.094516,138.523308 L216.065501,140.280633 L216.063213,149.322436 C216.063213,149.745398 215.720405,150.088237 215.297411,150.088237 C214.874417,150.088237 214.53161,149.745398 214.53161,149.322436 L214.53161,141.623591 L214.524018,141.629173 L210.586018,145.034173 L205.079099,149.795714 L206.919998,153.524503 C207.037522,153.761899 207.024046,154.043101 206.884362,154.268147 C206.744672,154.493203 206.498588,154.630116 206.233738,154.630116 L202.465832,154.630116 L202.459206,156.208686 L207.87592,156.215312 C209.042953,156.215312 209.992441,157.164801 209.992441,158.331833 L209.992441,170.351993 L211.177279,170.358619 L211.183905,169.369979 C211.183905,168.946949 211.526677,168.604177 211.949707,168.604177 C212.372737,168.604177 212.715509,168.946949 212.715509,169.369979 L212.715509,170.351993 L213.281476,170.358619 C213.704506,170.358619 214.047278,170.701391 214.047278,171.124421 L214.047278,176.509688 C214.047278,176.932718 213.704506,177.27549 213.281476,177.27549 L208.302713,177.27549 L208.296086,183.762069 Z M199.949673,177.27549 L196.115442,177.27549 L196.108815,178.38844 C196.108815,179.302837 195.364792,180.046859 194.450395,180.046859 L192.772372,180.046859 L192.765745,183.763099 C192.88695,183.77446 193.003983,183.787462 193.11746,183.802286 C193.859554,183.902955 194.470976,184.101753 195.000669,184.348968 C195.524821,184.602967 196.059704,184.951213 196.715181,185.425994 C198.038783,186.384851 198.688904,186.700016 199.949038,186.801434 L199.956196,183.593885 C199.956196,183.170856 200.298969,182.828084 200.721998,182.828084 C201.145028,182.828084 201.4878,183.170856 201.4878,183.593885 L201.4878,186.753735 L201.548843,186.745114 C202.57759,186.59555 203.155094,186.289894 204.347648,185.425993 C205.381518,184.677268 205.920231,184.355884 206.759931,184.079084 L206.764483,177.282116 L201.494529,177.27549 L201.487903,180.505511 C201.487903,180.928541 201.145131,181.271313 200.722101,181.271313 C200.299072,181.271313 199.956299,180.928541 199.956299,180.505511 L199.949673,177.27549 Z M187.884549,177.275387 L184.050318,177.275387 L184.043691,186.794828 L184.087698,186.791435 C185.326899,186.692768 185.977443,186.373845 187.285942,185.425993 C187.932379,184.957749 188.46156,184.612577 188.978224,184.359887 C189.414286,184.153857 189.90644,183.980719 190.48191,183.868289 C190.715081,183.825946 190.961515,183.793729 191.22811,183.769699 L191.234142,180.053383 L189.549595,180.046756 C188.635198,180.046756 187.891175,179.302734 187.891175,178.388337 L187.884549,177.275387 Z M182.505461,177.27549 L177.242135,177.27549 L177.235508,184.072585 C177.441926,184.141766 177.630118,184.213257 177.811744,184.29272 L177.713915,184.249343 C177.791206,184.281888 177.866772,184.315509 177.940744,184.350072 L177.811744,184.29272 C177.91669,184.338636 178.019445,184.387213 178.122255,184.439543 C178.569701,184.667293 179.018209,184.966138 179.653167,185.426096 C180.868647,186.306523 181.445196,186.607041 182.504513,186.760191 L182.505461,177.27549 Z M204.126141,179.164508 C204.549171,179.164508 204.891943,179.50728 204.891943,179.93031 L204.891943,183.213851 C204.891943,183.63688 204.549171,183.979652 204.126141,183.979652 C203.703112,183.979652 203.36034,183.63688 203.36034,183.213851 L203.36034,179.93031 C203.36034,179.50728 203.703112,179.164508 204.126141,179.164508 Z M179.873849,179.164508 C180.296812,179.164508 180.639651,179.507316 180.639651,179.93031 L180.639651,183.213851 C180.639651,183.63688 180.296879,183.979652 179.873849,183.979652 C179.45082,183.979652 179.108048,183.63688 179.108048,183.213851 L179.108048,179.93031 C179.108048,179.50728 179.45082,179.164508 179.873849,179.164508 Z M194.570585,177.27549 L189.429405,177.27549 L189.422779,178.38844 C189.422779,178.458425 189.47961,178.515256 189.549595,178.515256 L194.450395,178.515256 C194.520381,178.515256 194.577212,178.458425 194.577212,178.38844 L194.570585,177.27549 Z M212.509048,171.890223 L171.490942,171.890223 L171.484316,175.73726 L212.509048,175.743886 L212.509048,171.890223 Z M196.097727,168.381235 L187.902263,168.381235 L187.895636,170.351993 L196.097727,170.358619 L196.097727,168.381235 Z M205.203833,159.360434 C205.626827,159.360434 205.969635,159.703274 205.969635,160.126236 L205.969635,161.259852 C205.969635,161.682814 205.626827,162.025653 205.203833,162.025653 C204.780839,162.025653 204.438031,161.682814 204.438031,161.259852 L204.438031,160.126236 C204.438031,159.703274 204.780839,159.360434 205.203833,159.360434 Z M178.796054,159.360434 C179.219048,159.360434 179.561856,159.703274 179.561856,160.126236 L179.561856,161.259852 C179.561856,161.682814 179.219048,162.025653 178.796054,162.025653 C178.37306,162.025653 178.030253,161.682814 178.030253,161.259852 L178.030253,160.126236 C178.030253,159.703274 178.37306,159.360434 178.796054,159.360434 Z M189.359166,159.360434 C189.78216,159.360434 190.124968,159.703274 190.124968,160.126236 L190.124968,161.259852 C190.124968,161.682814 189.78216,162.025653 189.359166,162.025653 C188.936172,162.025653 188.593364,161.682814 188.593364,161.259852 L188.593364,160.126236 C188.593364,159.703274 188.936172,159.360434 189.359166,159.360434 Z M199.92238,159.360434 C200.345374,159.360434 200.688182,159.703274 200.688182,160.126236 L200.688182,161.259852 C200.688182,161.682814 200.345374,162.025653 199.92238,162.025653 C199.499386,162.025653 199.156579,161.682814 199.156579,161.259852 L199.156579,160.126236 C199.156579,159.703274 199.499386,159.360434 199.92238,159.360434 Z M194.640825,159.360434 C195.063819,159.360434 195.406626,159.703274 195.406626,160.126236 L195.406626,161.259852 C195.406626,161.682814 195.063819,162.025653 194.640825,162.025653 C194.217831,162.025653 193.875023,161.682814 193.875023,161.259852 L193.875023,160.126236 C193.875023,159.703274 194.217831,159.360434 194.640825,159.360434 Z M184.07761,159.360434 C184.500604,159.360434 184.843412,159.703274 184.843412,160.126236 L184.843412,161.259852 C184.843412,161.682814 184.500604,162.025653 184.07761,162.025653 C183.654616,162.025653 183.311808,161.682814 183.311808,161.259852 L183.311808,160.126236 C183.311808,159.703274 183.654616,159.360434 184.07761,159.360434 Z M200.921079,154.630116 L194.898301,154.630116 L194.891674,156.208686 L200.921079,156.215312 L200.921079,154.630116 Z M188.247456,154.662165 L186.329465,156.20352 L186.339018,156.203173 L187.221018,156.208173 L188.46974,156.215312 L188.468018,156.208173 L188.251607,154.667331 L188.248018,154.669173 Z M182.198168,150.723104 L181.421826,156.207654 L181.428018,156.207173 L181.727018,156.208173 L183.867304,156.215209 L187.337804,153.428165 L187.331018,153.424173 L182.204729,150.724033 L182.204018,150.725173 Z M202.243785,147.540769 L194.898198,147.540769 L194.891571,153.091783 L204.989201,153.098409 L204.986018,153.091173 L203.478018,150.040173 L202.243785,147.540769 Z M187.177728,147.099527 L183.265224,149.532676 L183.272018,149.536173 L184.960018,150.428173 L187.865087,151.964443 L187.864018,151.956173 L187.181227,147.105154 L187.178018,147.106173 Z M197.294167,148.988267 C197.717161,148.988267 198.059969,149.331106 198.059969,149.754069 L198.059969,150.13122 C198.059969,150.554182 197.717161,150.897021 197.294167,150.897021 C196.871173,150.897021 196.528366,150.554182 196.528366,150.13122 L196.528366,149.754069 C196.528366,149.331106 196.871173,148.988267 197.294167,148.988267 Z M200.638988,148.988267 C201.061915,148.988267 201.40479,149.331142 201.40479,149.754069 L201.40479,150.13122 C201.40479,150.554182 201.061982,150.897021 200.638988,150.897021 C200.215994,150.897021 199.873186,150.554182 199.873186,150.13122 L199.873186,149.754069 C199.873186,149.331106 200.215994,148.988267 200.638988,148.988267 Z M183.231883,143.419846 L182.561827,148.153698 L182.569018,148.148173 L184.012018,147.256173 L186.313324,145.833494 L186.307018,145.828173 L183.238444,143.420774 L183.237018,143.424173 Z M186.177715,140.041648 L183.954254,142.01752 L183.959018,142.021173 L184.425018,142.388173 L186.770018,144.234156 L186.769018,144.224173 L186.182117,140.046602 L186.178018,140.049173 Z M184.712958,139.278773 L183.823739,139.278773 L183.689263,140.188315 L183.696018,140.182173 L184.712958,139.285399 L184.704018,139.285173 L184.712958,139.278773 Z" id="mining"></path>
            </g>
        </g>
    </g>
</svg>