<?xml version="1.0" encoding="UTF-8"?>
<svg viewBox="0 0 54 54" version="1.1" xmlns="http://www.w3.org/2000/svg" xmlns:xlink="http://www.w3.org/1999/xlink">
    <title>vault</title>
    <g id="Argon-Commander" stroke="none" stroke-width="1" fill="none" fill-rule="evenodd">
        <g id="Dashboard-Copy-2" transform="translate(-1088, -188)" fill="#000000" fill-rule="nonzero">
            <g id="WALLET-OVERLAY" transform="translate(237, 53.4999)">
                <path d="M893.5,135.357173 C899.575132,135.357173 904.5,140.282041 904.5,146.357173 L904.5,177.357173 C904.5,183.432305 899.575132,188.357173 893.5,188.357173 L862.5,188.357173 C857.245947,188.357173 852.852243,184.673576 851.760563,179.748056 L862.772388,179.747351 L862.772388,172.232425 L851.5,172.232173 L851.5,150.854173 L862.772388,150.854643 L862.772388,143.339717 L851.919196,143.339092 C853.231011,138.731334 857.471467,135.357173 862.5,135.357173 L893.5,135.357173 Z M893.5,136.757173 L862.5,136.757173 C858.93358,136.757173 855.752442,138.719333 854.097411,141.707491 L853.973,141.938173 L862.772469,141.939717 L864.172388,141.939798 L864.172388,152.254701 L862.77233,152.254643 L852.9,152.253173 L852.9,170.832173 L864.172388,170.832457 L864.172388,181.147261 L853.677,181.147173 L853.729019,181.268805 C855.202603,184.573193 858.471504,186.844265 862.218128,186.953084 L862.5,186.957173 L893.5,186.957173 C898.801934,186.957173 903.1,182.659107 903.1,177.357173 L903.1,146.357173 C903.1,141.05524 898.801934,136.757173 893.5,136.757173 Z M861.834781,173.189743 L861.834781,178.520306 L851.551199,178.520306 L851.551199,173.189743 L861.834781,173.189743 Z M860.634199,174.389743 L852.751199,174.389743 L852.751199,177.319743 L860.634199,177.319743 L860.634199,174.389743 Z M879.779851,169.669594 L879.384328,176.709892 L876.615672,176.709892 L876.220149,169.669594 C876.813433,169.836351 877.406716,169.91973 878,169.91973 C878.593284,169.91973 879.186567,169.836351 879.779851,169.669594 Z M878.497851,171.101892 L878.351915,171.111509 L878,171.11973 C877.882644,171.11973 877.765335,171.116988 877.648085,171.111509 L877.502851,171.101892 L877.749851,175.509892 L878.250851,175.509892 L878.497851,171.101892 Z M878,154.79563 C881.896223,154.79563 885.054736,157.954143 885.054736,161.850366 C885.054736,165.746589 881.896223,168.905102 878,168.905102 C874.103777,168.905102 870.945264,165.746589 870.945264,161.850366 C870.945264,157.954143 874.103777,154.79563 878,154.79563 Z M878,156.19563 C874.876975,156.19563 872.345264,158.727341 872.345264,161.850366 C872.345264,164.97339 874.876975,167.505102 878,167.505102 C881.123025,167.505102 883.654736,164.97339 883.654736,161.850366 C883.654736,158.727341 881.123025,156.19563 878,156.19563 Z M878,157.460067 C880.424695,157.460067 882.390299,159.425671 882.390299,161.850366 C882.390299,164.275061 880.424695,166.240664 878,166.240664 C875.575305,166.240664 873.609701,164.275061 873.609701,161.850366 C873.609701,159.425671 875.575305,157.460067 878,157.460067 Z M878,158.660067 C876.238047,158.660067 874.809701,160.088413 874.809701,161.850366 C874.809701,163.612319 876.238047,165.040664 878,165.040664 C879.761953,165.040664 881.190299,163.612319 881.190299,161.850366 C881.190299,160.088413 879.761953,158.660067 878,158.660067 Z M878,158.725739 C879.725684,158.725739 881.124627,160.124682 881.124627,161.850366 C881.124627,163.57605 879.725684,164.974993 878,164.974993 C876.274316,164.974993 874.875373,163.57605 874.875373,161.850366 C874.875373,160.124682 876.274316,158.725739 878,158.725739 Z M878,160.125739 C877.047515,160.125739 876.275373,160.897881 876.275373,161.850366 C876.275373,162.802851 877.047515,163.574993 878,163.574993 C878.952485,163.574993 879.724627,162.802851 879.724627,161.850366 C879.724627,160.897881 878.952485,160.125739 878,160.125739 Z M865.612848,153.323404 L871.907687,156.501021 C871.466628,156.931441 871.097778,157.40355 870.801136,157.917349 C870.504495,158.431147 870.280061,158.986635 870.127836,159.583813 L864.22852,155.721131 L865.612848,153.323404 Z M890.387152,153.104726 L891.77148,155.502453 L885.872164,159.365134 C885.719939,158.767957 885.495505,158.212469 885.198864,157.69867 C884.902222,157.184871 884.533372,156.712762 884.092313,156.282342 L890.387152,153.104726 Z M866.084989,154.905632 L865.834489,155.339511 L869.528429,157.757419 L869.593068,157.626227 L869.761906,157.317349 C869.820584,157.215716 869.881614,157.115494 869.944983,157.016692 L870.025929,156.895724 L866.084989,154.905632 Z M889.91466,154.686346 L885.97372,156.676438 L886.055017,156.798013 L886.238094,157.09867 C886.296772,157.200303 886.353052,157.303267 886.406932,157.407548 L886.47122,157.538133 L890.16516,155.120225 L889.91466,154.686346 Z M861.834781,144.314286 L861.834781,149.64485 L851.551199,149.64485 L851.551199,144.314286 L861.834781,144.314286 Z M860.634199,145.514286 L852.751199,145.514286 L852.751199,148.444286 L860.634199,148.444286 L860.634199,145.514286 Z" id="vault"></path>
            </g>
        </g>
    </g>
</svg>