<svg viewBox="0 0 24 24" version="1.1" xmlns="http://www.w3.org/2000/svg" xmlns:xlink="http://www.w3.org/1999/xlink">
    <g stroke="none" stroke-width="1" fill="none" fill-rule="evenodd">
        <g transform="translate(-737, -301)" fill="currentColor" fill-rule="nonzero">
            <path d="M748.812,301 C742.289,301 737,306.289 737,312.812 C737,319.335 742.289,324.625 748.812,324.625 C755.335,324.625 760.625,319.335 760.625,312.812 C760.625,306.289 755.335,301 748.812,301 Z M751.271,319.307 C750.663,319.547 750.179,319.729 749.816,319.855 C749.454,319.981 749.033,320.044 748.554,320.044 C747.818,320.044 747.245,319.864 746.837,319.505 C746.429,319.146 746.226,318.691 746.226,318.138 C746.226,317.923 746.241,317.703 746.271,317.479 C746.302,317.255 746.351,317.003 746.418,316.72 L747.179,314.032 C747.246,313.774 747.304,313.529 747.35,313.301 C747.396,313.071 747.418,312.86 747.418,312.668 C747.418,312.326 747.347,312.086 747.206,311.951 C747.063,311.816 746.794,311.75 746.393,311.75 C746.197,311.75 745.995,311.779 745.788,311.84 C745.583,311.903 745.405,311.96 745.259,312.016 L745.46,311.188 C745.958,310.985 746.435,310.811 746.89,310.667 C747.345,310.521 747.775,310.449 748.18,310.449 C748.911,310.449 749.475,310.627 749.872,310.979 C750.267,311.332 750.466,311.791 750.466,312.355 C750.466,312.472 750.452,312.678 750.425,312.972 C750.398,313.267 750.347,313.536 750.273,313.783 L749.516,316.463 C749.454,316.678 749.399,316.924 749.349,317.199 C749.3,317.474 749.276,317.684 749.276,317.825 C749.276,318.181 749.355,318.424 749.515,318.553 C749.673,318.682 749.95,318.747 750.342,318.747 C750.527,318.747 750.734,318.714 750.968,318.65 C751.2,318.586 751.368,318.529 751.474,318.48 L751.271,319.307 Z M751.137,308.429 C750.784,308.757 750.359,308.921 749.862,308.921 C749.366,308.921 748.938,308.757 748.582,308.429 C748.228,308.101 748.049,307.702 748.049,307.236 C748.049,306.771 748.229,306.371 748.582,306.04 C748.938,305.708 749.366,305.543 749.862,305.543 C750.359,305.543 750.785,305.708 751.137,306.04 C751.49,306.371 751.667,306.771 751.667,307.236 C751.667,307.703 751.49,308.101 751.137,308.429 Z"></path>
        </g>
    </g>
</svg>