<?xml version="1.0" encoding="UTF-8"?>
<svg viewBox="0 0 420 410" version="1.1" xmlns="http://www.w3.org/2000/svg" xmlns:xlink="http://www.w3.org/1999/xlink">
    <g stroke="none" stroke-width="1" fill="none" fill-rule="evenodd">
        <path d="M30.8000039,0.20000387 C13.9551095,0.20000387 0.0800023221,14.0751343 0.0800023221,30.9200054 L0.0800023221,379.079983 C0.0800023221,395.924877 13.9551095,409.799985 30.8000039,409.799985 L245.94006,409.799985 C238.771028,400.251415 234.770984,388.264131 235.479972,375.860024 L235.479972,375.778749 C235.873188,354.583592 234.630068,332.61769 236.120109,310.138854 C236.141502,309.850779 236.175075,309.563737 236.220736,309.278501 C239.152827,289.930724 253.711882,274.703434 272.100652,269.278485 C273.334484,241.678509 290.924631,215.956245 318.240682,208.038573 C324.273374,206.18024 330.514634,205.240895 336.760731,205.138489 C337.155108,205.138489 337.547163,205.179513 337.940766,205.179513 C338.333982,205.179513 338.726037,205.138489 339.120801,205.138489 C342.170547,205.189576 345.217198,205.460105 348.240781,205.918767 L348.240781,123.080006 L256.080776,123.080006 C239.235882,123.080006 225.360775,109.204907 225.360775,92.3600046 L225.360775,0.20000387 L30.8000039,0.20000387 Z M245.840015,6.20000816 L245.840015,92.3600046 C245.840015,98.1366963 250.303326,102.600004 256.080002,102.600004 L342.239979,102.600004 L245.840015,6.20000816 Z M87.1199938,102.600004 L179.279998,102.600004 C184.935389,102.600011 189.519986,107.184612 189.519986,112.840003 C189.519986,118.495395 184.935391,123.079999 179.279998,123.080006 L87.1199938,123.080006 C81.4646016,123.079999 76.8800062,118.495395 76.8800062,112.840003 C76.8800062,107.184612 81.4646031,102.600011 87.1199938,102.600004 L87.1199938,102.600004 Z M87.1199938,164.040003 L256.080002,164.040003 C261.735395,164.04001 266.31999,168.624614 266.31999,174.280006 C266.31999,179.935397 261.735393,184.519999 256.080002,184.520005 L87.1199938,184.520005 C81.4646031,184.519999 76.8800062,179.935397 76.8800062,174.280006 C76.8800062,168.624614 81.4646016,164.04001 87.1199938,164.040003 L87.1199938,164.040003 Z M87.1199938,225.480006 L215.120013,225.480006 C220.775404,225.480013 225.360001,230.064615 225.360001,235.720005 C225.360001,241.375395 220.775402,245.959994 215.120013,245.960001 L87.1199938,245.960001 C81.4646046,245.959994 76.8800062,241.375395 76.8800062,235.720005 C76.8800062,230.064615 81.4646031,225.480013 87.1199938,225.480006 L87.1199938,225.480006 Z M338.000019,225.480006 C312.648848,225.480006 291.920017,246.208818 291.920017,271.559989 L291.920017,286.91999 L286.800004,286.91999 C269.955109,286.91999 256.080002,300.795097 256.080002,317.639991 L256.080002,379.079983 C256.080002,395.924877 269.955109,409.799985 286.800004,409.799985 L389.199996,409.799985 C406.044891,409.799985 419.919998,395.924877 419.919998,379.079983 L419.919998,317.639991 C419.919998,300.795097 406.044891,286.91999 389.199996,286.91999 L384.079983,286.91999 L384.079983,271.559989 C384.079983,246.208818 363.351152,225.480006 338.000019,225.480006 Z M338.000019,245.960001 C352.359564,245.960001 363.600008,257.200445 363.600008,271.559989 L363.600008,286.91999 L312.399992,286.91999 L312.399992,271.559989 C312.399992,257.200445 323.640436,245.960001 338.000019,245.960001 Z M87.1199938,286.91999 L194.639999,286.91999 C197.355818,286.919993 199.960403,287.998852 201.880774,289.91923 C203.801145,291.839608 204.879987,294.444197 204.879987,297.160016 C204.879987,302.815402 200.295385,307.399997 194.639999,307.400004 L87.1199938,307.400004 C81.4646076,307.399997 76.8800062,302.815402 76.8800062,297.160016 C76.8800062,294.444197 77.9588485,291.839608 79.8792191,289.91923 C81.7995897,287.998852 84.4041745,286.919993 87.1199938,286.91999 L87.1199938,286.91999 Z M338.000019,326.740001 C343.655401,326.740001 348.239994,331.324595 348.240007,336.979977 L348.240007,359.740025 C348.24,365.395411 343.655406,369.980012 338.000019,369.980012 C335.2842,369.980012 332.679611,368.90117 330.759233,366.980799 C328.838855,365.060429 327.759996,362.455844 327.759993,359.740025 L327.759993,336.979977 C327.759999,334.26416 328.83886,331.659578 330.759237,329.73921 C332.679615,327.818842 335.284202,326.740001 338.000019,326.740001 L338.000019,326.740001 Z" fill="currentColor" fill-rule="nonzero"></path>
    </g>
</svg>