<svg viewBox="0 0 79 78" version="1.1" xmlns="http://www.w3.org/2000/svg" xmlns:xlink="http://www.w3.org/1999/xlink">
    <g id="Argon-Commander" stroke="none" stroke-width="1" fill="none" fill-rule="evenodd">
        <g id="Dashboard-Copy-2" transform="translate(-298, -624)" fill="currentColor" fill-rule="nonzero">
            <g id="Group" transform="translate(189, 289.6428)">
                <path d="M148.388049,334.357173 C158.801934,334.357173 168.592478,338.412618 175.956364,345.7762 C183.319946,353.140087 187.375391,362.93063 187.375391,373.344515 C187.375391,383.758399 183.319946,393.548943 175.956364,400.91283 C168.592478,408.276412 158.801934,412.331857 148.388049,412.331857 C137.974165,412.331857 128.183621,408.276412 120.819734,400.91283 C113.456153,393.548943 109.400708,383.758399 109.400708,373.344515 C109.400708,366.316285 111.291746,359.426643 114.869596,353.42046 C118.343124,347.588807 123.299999,342.739299 129.204297,339.39583 C129.753471,339.085302 130.450369,339.278107 130.76105,339.826975 C131.071882,340.375844 130.878773,341.072895 130.329905,341.383728 C124.770401,344.531803 120.102885,349.098348 116.83206,354.589471 C113.464986,360.242179 111.685122,366.727632 111.685122,373.344515 C111.685122,383.148308 115.502836,392.36516 122.43512,399.297444 C129.367405,406.229729 138.584256,410.047442 148.388049,410.047442 C158.191843,410.047442 167.408694,406.229729 174.340979,399.297444 C181.273263,392.36516 185.090977,383.148308 185.090977,373.344515 C185.090977,363.540721 181.273263,354.32387 174.340979,347.391586 C167.408694,340.459301 158.191843,336.641588 148.388049,336.641588 C143.573113,336.641588 138.892804,337.559313 134.477335,339.369331 C133.893591,339.608433 133.226542,339.329278 132.987288,338.745534 C132.747881,338.161789 133.027189,337.49474 133.610933,337.255486 C138.302664,335.332314 143.274463,334.357173 148.388049,334.357173 Z M148.388049,339.248105 C157.495553,339.248105 166.057844,342.794734 172.497913,349.234651 C178.93783,355.674721 182.48446,364.237011 182.48446,373.344515 C182.48446,382.452019 178.93783,391.014309 172.497913,397.454378 C166.057844,403.894295 157.495553,407.440925 148.388049,407.440925 C144.427331,407.440925 140.546111,406.767632 136.85206,405.439626 C136.258417,405.226261 135.950174,404.572005 136.163538,403.978514 C136.376902,403.384719 137.031159,403.076627 137.624802,403.289992 C141.070308,404.528449 144.691562,405.156511 148.388049,405.156511 C165.929155,405.156511 180.200045,390.885621 180.200045,373.344515 C180.200045,355.803409 165.929155,341.532519 148.388049,341.532519 C130.846944,341.532519 116.576054,355.803409 116.576054,373.344515 C116.576054,385.020158 122.955662,395.738783 133.225324,401.317628 C133.779523,401.618714 133.984816,402.31211 133.68373,402.866461 C133.382644,403.42066 132.689248,403.625953 132.134897,403.324867 C121.12874,397.346097 114.291639,385.858233 114.291639,373.344515 C114.291639,364.237011 117.838269,355.674721 124.278186,349.234651 C130.718255,342.794734 139.280545,339.248105 148.388049,339.248105 Z M152.299042,352.818868 L152.549605,353.515335 L157.613763,367.592868 L164.233377,367.593192 L164.233377,372.857677 L159.507763,372.856868 L160.408763,375.361868 L164.233377,375.362659 L164.233377,380.627145 L162.302763,380.626868 L165.64531,389.916145 L166.152335,391.325472 L158.074623,391.325472 L157.829611,390.616476 L154.376763,380.626868 L142.396763,380.626868 L138.946485,390.616485 L138.701469,391.325472 L130.623763,391.325472 L131.130788,389.916145 L134.472763,380.626868 L132.542722,380.627145 L132.542722,375.362659 L136.366763,375.361868 L137.267763,372.856868 L132.542722,372.857677 L132.542722,367.593192 L139.161763,367.592868 L144.226493,353.515335 L144.477057,352.818868 L152.299042,352.818868 Z M151.690763,372.856868 L145.081763,372.856868 L144.215763,375.361868 L152.556763,375.361868 L151.690763,372.856868 Z M148.386674,363.295193 L146.900763,367.592868 L149.871763,367.592868 L148.386674,363.295193 Z" id="argn"></path>
            </g>
        </g>
    </g>
</svg>