<svg viewBox="0 0 36 35" version="1.1" xmlns="http://www.w3.org/2000/svg" xmlns:xlink="http://www.w3.org/1999/xlink">
    <g id="Logos" stroke="none" stroke-width="1" fill="none" fill-rule="evenodd">
        <g id="Artboard" transform="translate(-451, -65)" fill="currentColor" fill-rule="nonzero">
            <path d="M469.332639,65 C474.007053,65 478.401672,66.8203418 481.707053,70.1255859 C485.012297,73.4309668 486.832639,77.8255859 486.832639,82.5 C486.832639,87.1744141 485.012297,91.5690332 481.707053,94.8744141 C478.401672,98.1796582 474.007053,100 469.332639,100 C464.658225,100 460.263606,98.1796582 456.958225,94.8744141 C453.652981,91.5690332 451.832639,87.1744141 451.832639,82.5 C451.832639,79.3452832 452.681457,76.2527734 454.287424,73.5568164 C455.846565,70.9391992 458.071526,68.7624316 460.72175,67.2616699 C460.968254,67.1222852 461.281067,67.2088281 461.42052,67.4551953 C461.560041,67.7015625 461.473362,68.0144434 461.226994,68.1539648 C458.731535,69.5670215 456.636457,71.6167773 455.168303,74.081543 C453.656946,76.6188379 452.85803,79.5299219 452.85803,82.5 C452.85803,86.9005664 454.571662,91.0376758 457.683313,94.1493262 C460.794963,97.2609766 464.932072,98.9746094 469.332639,98.9746094 C473.733205,98.9746094 477.870315,97.2609766 480.981965,94.1493262 C484.093615,91.0376758 485.807248,86.9005664 485.807248,82.5 C485.807248,78.0994336 484.093615,73.9623242 480.981965,70.8506738 C477.870315,67.7390234 473.733205,66.0253906 469.332639,66.0253906 C467.171389,66.0253906 465.070569,66.4373242 463.088625,67.2497754 C462.826604,67.3570996 462.52719,67.2317969 462.419797,66.9697754 C462.312336,66.7077539 462.437707,66.4083398 462.699729,66.3009473 C464.805676,65.4377051 467.037336,65 469.332639,65 Z M469.332639,67.1953613 C473.420666,67.1953613 477.263967,68.7873145 480.15468,71.677959 C483.045324,74.5686719 484.637278,78.4119727 484.637278,82.5 C484.637278,86.5880273 483.045324,90.4313281 480.15468,93.322041 C477.263967,96.2126855 473.420666,97.8046387 469.332639,97.8046387 C467.554817,97.8046387 465.812678,97.5024219 464.154553,96.9063281 C463.888088,96.8105566 463.749729,96.5168848 463.8455,96.2504883 C463.941272,95.9839551 464.234944,95.8456641 464.501408,95.9414355 C466.047971,96.497334 467.67342,96.779248 469.332639,96.779248 C477.206203,96.779248 483.611887,90.3735645 483.611887,82.5 C483.611887,74.6264355 477.206203,68.220752 469.332639,68.220752 C461.459074,68.220752 455.053391,74.6264355 455.053391,82.5 C455.053391,87.7407715 457.916965,92.5519727 462.526643,95.0561133 C462.775403,95.1912598 462.867551,95.5025 462.732405,95.7513281 C462.597258,96.0000879 462.286018,96.0922363 462.03719,95.9570898 C457.096926,93.2734375 454.028,88.1169531 454.028,82.5 C454.028,78.4119727 455.619953,74.5686719 458.510598,71.677959 C461.401311,68.7873145 465.244612,67.1953613 469.332639,67.1953613 Z M479.121853,80.2546567 C480.628568,81.4847344 481.492884,83.305928 481.492884,85.2509992 C481.492884,88.5067034 478.843955,91.1556331 475.588251,91.1556331 L473.130748,91.1556331 L472.342072,92.864432 C472.191096,93.1915683 471.803456,93.3344104 471.476277,93.1834344 C471.149097,93.0324585 471.006298,92.6447752 471.157274,92.3176389 L472.997215,88.331065 C473.14084,88.0056251 472.998215,87.6243793 472.674384,87.4749692 C472.346857,87.3240368 471.959304,87.4667049 471.808371,87.7937977 L470.256855,91.1556331 L468.607081,91.1556331 L467.818405,92.864432 C467.667429,93.1915683 467.279789,93.3344104 466.952609,93.1834344 C466.625429,93.0324585 466.482631,92.6447752 466.633607,92.3176389 L468.468284,88.3425481 C468.618869,88.0157162 468.475766,87.628381 468.149021,87.4776225 C467.821928,87.32669 467.434375,87.4693582 467.283443,87.7968859 L465.733232,91.1556766 L464.083457,91.1556766 L463.294781,92.8644755 C463.143805,93.1916117 462.756165,93.3344539 462.428985,93.1834779 C462.101806,93.032502 461.959007,92.6448187 462.109983,92.3176824 L463.945095,88.3410692 C464.096028,88.0135414 463.95336,87.6259887 463.626267,87.4750562 C463.299174,87.3241238 462.911186,87.4667919 462.760254,87.7938847 L461.208738,91.1557201 L459.875139,91.1557201 C459.654177,91.1557201 459.448004,91.0439344 459.327954,90.8582048 C459.207469,90.6729102 459.189201,90.4393347 459.279238,90.2375114 L460.266171,88.0265903 L459.252271,84.7821952 C459.12126,84.3623681 459.435347,83.9353206 459.875139,83.9353206 L472.261169,83.9353206 C474.711755,83.9353206 476.962693,82.5991117 478.136225,80.4477807 C478.229307,80.2772749 478.393289,80.1572248 478.583803,80.119818 C478.774317,80.0824111 478.971356,80.1319969 479.121853,80.2546567 Z M468.778517,71.5 C470.610608,71.5 472.101162,72.9812015 472.101162,74.8017981 L472.101162,75.9503474 L472.12378,75.9503474 C472.607814,75.9503474 473.001375,76.3414385 473.001375,76.8224356 L473.001375,81.6279117 C473.001375,82.1089089 472.607814,82.5 472.12378,82.5 L465.378969,82.5 C464.894935,82.5 464.501375,82.1089089 464.501375,81.6279117 L464.501375,76.8246833 C464.501375,76.3436861 464.894935,75.952595 465.378969,75.952595 L465.455872,75.952595 L465.455872,74.8040458 C465.455872,72.9834491 466.946425,71.5022477 468.778517,71.5 Z M468.923275,77.9777278 C468.563642,77.905803 468.181391,78.1080915 468.025324,78.451982 C467.864733,78.8048631 467.971039,79.2071925 468.292221,79.4431957 C468.355552,79.4903964 468.371385,79.5375971 468.371385,79.6095219 C468.369124,79.9624029 468.369124,80.315284 468.369124,80.6681651 C468.369124,80.9626073 468.678996,81.182877 468.988868,81.0255415 C469.120055,80.9603596 469.194696,80.81651 469.18791,80.6704128 L469.185648,79.6140172 C469.185648,79.5353494 469.203743,79.4881488 469.271598,79.4387004 C469.495521,79.2768696 469.606351,79.0521046 469.606351,78.7756436 C469.601827,78.3778096 469.323621,78.0586432 468.923275,77.9777278 Z M468.778517,72.9474867 C467.749379,72.9474867 466.910236,73.7791173 466.910236,74.8040458 L466.910236,75.952595 L470.646798,75.952595 L470.646798,74.8040458 C470.646798,73.7813649 469.809917,72.9474867 468.778517,72.9474867 Z" id="Combined-Shape"></path>
        </g>
    </g>
</svg>