<svg viewBox="0 0 79 78" version="1.1" xmlns="http://www.w3.org/2000/svg" xmlns:xlink="http://www.w3.org/1999/xlink">
    <g id="Argon-Commander" stroke="none" stroke-width="1" fill="none" fill-rule="evenodd">
        <g id="Dashboard-Copy-2" transform="translate(-298, -747)" fill="currentColor" fill-rule="nonzero">
            <g id="Group" transform="translate(189, 289.6428)">
                <path d="M148.388049,457.38249 C158.801934,457.38249 168.592478,461.437935 175.956364,468.801517 C183.319946,476.165403 187.375391,485.955947 187.375391,496.369831 C187.375391,506.783716 183.319946,516.57426 175.956364,523.938146 C168.592478,531.301728 158.801934,535.357173 148.388049,535.357173 C137.974165,535.357173 128.183621,531.301728 120.819734,523.938146 C113.456153,516.57426 109.400708,506.783716 109.400708,496.369831 C109.400708,489.341602 111.291746,482.45196 114.869596,476.445777 C118.343124,470.614123 123.299999,465.764616 129.204297,462.421147 C129.753471,462.110619 130.450369,462.303423 130.76105,462.852292 C131.071882,463.401161 130.878773,464.098212 130.329905,464.409044 C124.770401,467.55712 120.102885,472.123664 116.83206,477.614788 C113.464986,483.267496 111.685122,489.752948 111.685122,496.369831 C111.685122,506.173625 115.502836,515.390476 122.43512,522.322761 C129.367405,529.255045 138.584256,533.072759 148.388049,533.072759 C158.191843,533.072759 167.408694,529.255045 174.340979,522.322761 C181.273263,515.390476 185.090977,506.173625 185.090977,496.369831 C185.090977,486.566038 181.273263,477.349187 174.340979,470.416902 C167.408694,463.484618 158.191843,459.666904 148.388049,459.666904 C143.573113,459.666904 138.892804,460.58463 134.477335,462.394647 C133.893591,462.63375 133.226542,462.354594 132.987288,461.77085 C132.747881,461.187106 133.027189,460.520057 133.610933,460.280803 C138.302664,458.35763 143.274463,457.38249 148.388049,457.38249 Z M148.388049,462.273421 C157.495553,462.273421 166.057844,465.820051 172.497913,472.259968 C178.93783,478.700037 182.48446,487.262327 182.48446,496.369831 C182.48446,505.477335 178.93783,514.039626 172.497913,520.479695 C166.057844,526.919612 157.495553,530.466242 148.388049,530.466242 C144.427331,530.466242 140.546111,529.792948 136.85206,528.464942 C136.258417,528.251578 135.950174,527.597322 136.163538,527.003831 C136.376902,526.410035 137.031159,526.101944 137.624802,526.315308 C141.070308,527.553765 144.691562,528.181827 148.388049,528.181827 C165.929155,528.181827 180.200045,513.910937 180.200045,496.369831 C180.200045,478.828726 165.929155,464.557836 148.388049,464.557836 C130.846944,464.557836 116.576054,478.828726 116.576054,496.369831 C116.576054,508.045474 122.955662,518.7641 133.225324,524.342945 C133.779523,524.64403 133.984816,525.337426 133.68373,525.891778 C133.382644,526.445977 132.689248,526.651269 132.134897,526.350183 C121.12874,520.371414 114.291639,508.88355 114.291639,496.369831 C114.291639,487.262327 117.838269,478.700037 124.278186,472.259968 C130.718255,465.820051 139.280545,462.273421 148.388049,462.273421 Z M146.020519,472.434575 C146.823266,472.434575 147.474069,473.085377 147.474069,473.888125 L147.474069,476.310708 L156.873692,476.310708 C158.512328,476.310708 159.956187,477.500681 160.937818,479.660656 C162.625874,483.375639 162.625874,489.207863 160.937818,492.922846 C159.956187,495.082821 158.512328,496.272794 156.873692,496.272794 L147.474069,496.272794 L147.474069,499.567508 L154.912369,499.567508 C160.371903,499.567508 165.38665,496.590637 168.001102,491.797798 C168.208475,491.417937 168.573801,491.150484 168.998237,491.067147 C169.422674,490.98381 169.861646,491.09428 170.196932,491.367548 C173.553663,494.107974 175.479229,498.165316 175.479229,502.49864 C175.479229,509.751854 169.577816,515.653267 162.324602,515.653267 L156.84966,515.653267 L155.092609,519.460211 C154.756258,520.189021 153.892655,520.507252 153.163748,520.170901 C152.434841,519.834549 152.116708,518.97085 152.453059,518.24204 L156.552167,509.360559 C156.872142,508.635528 156.554396,507.78617 155.832951,507.453307 C155.103269,507.117053 154.23986,507.434895 153.903605,508.163609 L150.447063,515.653267 L146.771617,515.653267 L145.014566,519.460211 C144.678214,520.189021 143.814612,520.507252 143.085705,520.170901 C142.356798,519.834549 142.038664,518.97085 142.375016,518.24204 L146.462398,509.386141 C146.797878,508.658009 146.479066,507.795085 145.751128,507.459218 C145.022415,507.122964 144.159006,507.440807 143.822752,508.170489 L140.369117,515.653364 L136.69367,515.653364 L134.936619,519.460308 C134.600268,520.189118 133.736665,520.507349 133.007758,520.170997 C132.278851,519.834646 131.960718,518.970947 132.297069,518.242137 L136.385421,509.382846 C136.721675,508.653164 136.403832,507.789755 135.675119,507.453501 C134.946406,507.117246 134.082029,507.435089 133.745774,508.163802 L130.289232,515.653461 L127.318176,515.653461 C126.825907,515.653461 126.366585,515.404419 126.099132,514.990642 C125.83071,514.577834 125.79001,514.057463 125.9906,513.607832 L128.189337,508.682235 L125.93052,501.454216 C125.638647,500.518905 126.338386,499.567508 127.318176,499.567508 L144.566969,499.567508 L144.566969,496.272794 L133.616893,496.272794 C132.814533,496.272794 132.163343,495.621604 132.163343,494.819244 C132.163343,494.016885 132.814533,493.365694 133.616893,493.365694 C133.939581,493.365694 134.520032,492.851138 135.034588,491.720276 C136.37292,488.775577 136.37292,483.807925 135.034588,480.863226 C134.520032,479.732365 133.939581,479.217808 133.616893,479.217808 C132.814533,479.217808 132.163343,478.566617 132.163343,477.764258 C132.163343,476.961898 132.814533,476.310708 133.616893,476.310708 L144.566969,476.310708 L144.566969,473.888125 C144.566969,473.085377 145.217772,472.434575 146.020519,472.434575 Z" id="argnot"></path>
            </g>
        </g>
    </g>
</svg>