<svg viewBox="0 0 36 35" version="1.1" xmlns="http://www.w3.org/2000/svg" xmlns:xlink="http://www.w3.org/1999/xlink">
    <g id="Logos" stroke="none" stroke-width="1" fill="none" fill-rule="evenodd">
        <g id="Artboard" transform="translate(-590, -65)" fill="currentColor" fill-rule="nonzero">
            <path d="M607.636763,65 C612.311177,65 616.705796,66.8203418 620.011177,70.1255859 C623.316421,73.4309668 625.136763,77.8255859 625.136763,82.5 C625.136763,87.1744141 623.316421,91.5690332 620.011177,94.8744141 C616.705796,98.1796582 612.311177,100 607.636763,100 C602.962349,100 598.56773,98.1796582 595.262349,94.8744141 C591.957105,91.5690332 590.136763,87.1744141 590.136763,82.5 C590.136763,79.3452832 590.985582,76.2527734 592.591548,73.5568164 C594.150689,70.9391992 596.37565,68.7624316 599.025874,67.2616699 C599.272378,67.1222852 599.585191,67.2088281 599.724644,67.4551953 C599.864166,67.7015625 599.777486,68.0144434 599.531119,68.1539648 C597.03566,69.5670215 594.940582,71.6167773 593.472427,74.081543 C591.96107,76.6188379 591.162154,79.5299219 591.162154,82.5 C591.162154,86.9005664 592.875787,91.0376758 595.987437,94.1493262 C599.099087,97.2609766 603.236197,98.9746094 607.636763,98.9746094 C612.03733,98.9746094 616.174439,97.2609766 619.286089,94.1493262 C622.39774,91.0376758 624.111373,86.9005664 624.111373,82.5 C624.111373,78.0994336 622.39774,73.9623242 619.286089,70.8506738 C616.174439,67.7390234 612.03733,66.0253906 607.636763,66.0253906 C605.475513,66.0253906 603.374693,66.4373242 601.392749,67.2497754 C601.130728,67.3570996 600.831314,67.2317969 600.723921,66.9697754 C600.61646,66.7077539 600.741832,66.4083398 601.003853,66.3009473 C603.1098,65.4377051 605.34146,65 607.636763,65 Z M607.636763,67.1953613 C611.724791,67.1953613 615.568091,68.7873145 618.458804,71.677959 C621.349449,74.5686719 622.941402,78.4119727 622.941402,82.5 C622.941402,86.5880273 621.349449,90.4313281 618.458804,93.322041 C615.568091,96.2126855 611.724791,97.8046387 607.636763,97.8046387 C605.858941,97.8046387 604.116802,97.5024219 602.458677,96.9063281 C602.192212,96.8105566 602.053853,96.5168848 602.149624,96.2504883 C602.245396,95.9839551 602.539068,95.8456641 602.805533,95.9414355 C604.352095,96.497334 605.977544,96.779248 607.636763,96.779248 C615.510328,96.779248 621.916011,90.3735645 621.916011,82.5 C621.916011,74.6264355 615.510328,68.220752 607.636763,68.220752 C599.763199,68.220752 593.357515,74.6264355 593.357515,82.5 C593.357515,87.7407715 596.221089,92.5519727 600.830767,95.0561133 C601.079527,95.1912598 601.171675,95.5025 601.036529,95.7513281 C600.901382,96.0000879 600.590142,96.0922363 600.341314,95.9570898 C595.40105,93.2734375 592.332124,88.1169531 592.332124,82.5 C592.332124,78.4119727 593.924078,74.5686719 596.814722,71.677959 C599.705435,68.7873145 603.548736,67.1953613 607.636763,67.1953613 Z M614.329551,90.5588147 L615.379551,91.2588117 C615.444295,91.301992 615.492814,91.3655042 615.517451,91.4393234 L615.867451,92.4893189 C615.891383,92.5611699 615.891383,92.6388421 615.867451,92.710693 L615.517451,93.7606885 C615.469806,93.9036127 615.336046,94 615.185388,94 L613.085388,94 C612.892089,94 612.735388,93.8433003 612.735388,93.6500015 L612.735388,91.5500104 C612.735388,91.4329969 612.793868,91.323725 612.891226,91.2588117 L613.941226,90.5588147 C614.058799,90.480423 614.211978,90.480423 614.329551,90.5588147 Z M609.779551,87.0590484 L611.879551,88.4590424 C611.976844,88.5239127 612.035388,88.6330863 612.035388,88.7500224 L612.035388,92.600006 C612.035388,92.722948 611.970886,92.836876 611.865463,92.9001297 L610.115463,93.9501252 C610.061067,93.9827617 609.998824,94 609.935388,94 L605.385388,94 C605.268374,94 605.159102,93.9415205 605.094188,93.8441632 L604.631007,93.1493724 L603.882882,93.8974942 C603.817242,93.9631309 603.728216,94 603.635388,94 L600.485388,94 C600.334731,94 600.200971,93.9036127 600.153326,93.7606885 L599.453326,91.6606975 C599.423979,91.5726239 599.430825,91.4764993 599.472357,91.3934736 L600.172357,89.9934796 C600.202122,89.9339492 600.248244,89.8841398 600.305313,89.8498927 L602.055313,88.7998972 C602.151682,88.7420829 602.269951,88.7340595 602.373245,88.7783285 L604.335388,89.6192437 L604.335388,88.7500224 C604.335387,88.6270803 604.399891,88.5131524 604.505313,88.4498987 L606.255313,87.3999032 C606.298467,87.3740123 606.346697,87.3577319 606.396713,87.3521721 L609.546713,87.0021736 C609.628601,86.993138 609.711051,87.013278 609.779551,87.0590484 Z M617.285388,88.4000239 C617.478688,88.4000239 617.635388,88.5567236 617.635388,88.7500224 L617.635388,90.1500164 C617.635388,90.3433153 617.478688,90.5000149 617.285388,90.5000149 L615.885388,90.5000149 C615.692089,90.5000149 615.535388,90.3433153 615.535388,90.1500164 L615.535388,88.7500224 C615.535388,88.5567236 615.692089,88.4000239 615.885388,88.4000239 L617.285388,88.4000239 Z M615.136763,73.7512878 C616.241333,73.7512878 617.136763,74.6467183 617.136763,75.7512878 L617.136763,81.7512878 C617.136763,82.8558573 616.241333,83.7512878 615.136763,83.7512878 L608.749763,83.751 L608.750063,86.7577404 L606.523463,87.0000615 L606.522763,83.751 L600.136763,83.7512878 C599.032194,83.7512878 598.136763,82.8558573 598.136763,81.7512878 L598.136763,75.7512878 C598.136763,74.6467183 599.032194,73.7512878 600.136763,73.7512878 L615.136763,73.7512878 Z M604.494288,75.8723816 L601.697413,75.8723816 L601.697413,81.6301941 L604.306788,81.6301941 C604.601059,81.6301941 604.873846,81.6041524 605.125148,81.5520691 C605.37645,81.4999857 605.594549,81.4036316 605.779445,81.2630066 C605.943507,81.1406107 606.080226,80.9895691 606.189601,80.8098816 C606.361476,80.5390482 606.447413,80.2330586 606.447413,79.8919128 C606.447413,79.5611836 606.372544,79.2799336 606.222804,79.0481628 C606.073064,78.816392 605.851059,78.6471211 605.556788,78.5403503 C605.749497,78.441392 605.89533,78.332017 605.994288,78.2122253 C606.171372,77.9986836 606.259913,77.7161316 606.259913,77.3645691 C606.259913,77.0234232 606.171372,76.7304545 605.994288,76.4856628 C605.700018,76.0872253 605.200018,75.8827982 604.494288,75.8723816 Z M608.556788,75.8723816 L607.361476,75.8723816 L607.361476,81.6301941 L608.556788,81.6301941 L608.556788,75.8723816 Z M612.158351,75.8723816 L609.677882,75.8723816 L609.677882,81.6301941 L612.158351,81.6301941 C613.028143,81.6301941 613.671372,81.2721211 614.088038,80.5559753 C614.39533,80.0247253 614.548976,79.3762878 614.548976,78.6106628 C614.548976,78.3085795 614.512518,77.9908711 614.439601,77.6575378 C614.366684,77.3242045 614.229965,77.0143086 614.029445,76.7278503 C613.779445,76.3736836 613.452622,76.1301941 613.048976,75.9973816 C612.811997,75.9192566 612.515122,75.8775899 612.158351,75.8723816 Z M604.279445,79.0950378 C604.529445,79.097642 604.723455,79.1301941 604.861476,79.1926941 C605.108872,79.3046732 605.23257,79.5104024 605.23257,79.8098816 C605.23257,80.1640482 605.104965,80.4036316 604.849757,80.5286316 C604.709132,80.5963399 604.512518,80.6301941 604.259913,80.6301941 L602.845851,80.6301941 L602.845851,79.0950378 L604.279445,79.0950378 Z M611.955226,76.8723816 C612.502101,76.8723816 612.867986,77.0286316 613.052882,77.3411316 C613.235174,77.6562357 613.32632,78.1067566 613.32632,78.6926941 C613.32632,79.1171732 613.265122,79.4830586 613.142726,79.7903503 C612.918768,80.3502461 612.522934,80.6301941 611.955226,80.6301941 L610.845851,80.6301941 L610.845851,76.8723816 L611.955226,76.8723816 Z M604.111476,76.8723816 C604.390122,76.8723816 604.619288,76.9023295 604.798976,76.9622253 C605.007309,77.0481628 605.111476,77.2252461 605.111476,77.4934753 C605.111476,77.7356628 605.033351,77.9036316 604.877101,77.9973816 C604.718247,78.0937357 604.512518,78.1419128 604.259913,78.1419128 L602.845851,78.1419128 L602.845851,76.8723816 L604.111476,76.8723816 Z" id="Combined-Shape"></path>
        </g>
    </g>
</svg>