<svg viewBox="0 0 36 35" version="1.1" xmlns="http://www.w3.org/2000/svg" xmlns:xlink="http://www.w3.org/1999/xlink">
    <g id="Logos" stroke="none" stroke-width="1" fill="none" fill-rule="evenodd">
        <g id="Artboard" transform="translate(-521, -65)" fill="currentColor" fill-rule="nonzero">
            <path d="M538.537471,65 C543.211885,65 547.606504,66.8203418 550.911885,70.1255859 C554.217129,73.4309668 556.037471,77.8255859 556.037471,82.5 C556.037471,87.1744141 554.217129,91.5690332 550.911885,94.8744141 C547.606504,98.1796582 543.211885,100 538.537471,100 C533.863057,100 529.468438,98.1796582 526.163057,94.8744141 C522.857813,91.5690332 521.037471,87.1744141 521.037471,82.5 C521.037471,79.3452832 521.886289,76.2527734 523.492256,73.5568164 C525.051397,70.9391992 527.276357,68.7624316 529.926582,67.2616699 C530.173086,67.1222852 530.485898,67.2088281 530.625352,67.4551953 C530.764873,67.7015625 530.678193,68.0144434 530.431826,68.1539648 C527.936367,69.5670215 525.841289,71.6167773 524.373135,74.081543 C522.861777,76.6188379 522.062861,79.5299219 522.062861,82.5 C522.062861,86.9005664 523.776494,91.0376758 526.888145,94.1493262 C529.999795,97.2609766 534.136904,98.9746094 538.537471,98.9746094 C542.938037,98.9746094 547.075147,97.2609766 550.186797,94.1493262 C553.298447,91.0376758 555.01208,86.9005664 555.01208,82.5 C555.01208,78.0994336 553.298447,73.9623242 550.186797,70.8506738 C547.075147,67.7390234 542.938037,66.0253906 538.537471,66.0253906 C536.376221,66.0253906 534.2754,66.4373242 532.293457,67.2497754 C532.031436,67.3570996 531.732022,67.2317969 531.624629,66.9697754 C531.517168,66.7077539 531.642539,66.4083398 531.904561,66.3009473 C534.010508,65.4377051 536.242168,65 538.537471,65 Z M538.537471,67.1953613 C542.625498,67.1953613 546.468799,68.7873145 549.359512,71.677959 C552.250156,74.5686719 553.842109,78.4119727 553.842109,82.5 C553.842109,86.5880273 552.250156,90.4313281 549.359512,93.322041 C546.468799,96.2126855 542.625498,97.8046387 538.537471,97.8046387 C536.759648,97.8046387 535.01751,97.5024219 533.359385,96.9063281 C533.09292,96.8105566 532.954561,96.5168848 533.050332,96.2504883 C533.146104,95.9839551 533.439775,95.8456641 533.70624,95.9414355 C535.252803,96.497334 536.878252,96.779248 538.537471,96.779248 C546.411035,96.779248 552.816719,90.3735645 552.816719,82.5 C552.816719,74.6264355 546.411035,68.220752 538.537471,68.220752 C530.663906,68.220752 524.258223,74.6264355 524.258223,82.5 C524.258223,87.7407715 527.121797,92.5519727 531.731475,95.0561133 C531.980234,95.1912598 532.072383,95.5025 531.937236,95.7513281 C531.80209,96.0000879 531.49085,96.0922363 531.242022,95.9570898 C526.301758,93.2734375 523.232832,88.1169531 523.232832,82.5 C523.232832,78.4119727 524.824785,74.5686719 527.71543,71.677959 C530.606143,68.7873145 534.449443,67.1953613 538.537471,67.1953613 Z M545.230258,90.5588147 L546.280258,91.2588117 C546.345002,91.301992 546.393522,91.3655042 546.418158,91.4393234 L546.768158,92.4893189 C546.792091,92.5611699 546.792091,92.6388421 546.768158,92.710693 L546.418158,93.7606885 C546.370513,93.9036127 546.236753,94 546.086096,94 L543.986096,94 C543.792796,94 543.636096,93.8433003 543.636096,93.6500015 L543.636096,91.5500104 C543.636096,91.4329969 543.694576,91.323725 543.791933,91.2588117 L544.841933,90.5588147 C544.959506,90.480423 545.112686,90.480423 545.230258,90.5588147 Z M540.680258,87.0590484 L542.780258,88.4590424 C542.877552,88.5239127 542.936096,88.6330863 542.936096,88.7500224 L542.936096,92.600006 C542.936096,92.722948 542.871593,92.836876 542.766171,92.9001297 L541.016171,93.9501252 C540.961775,93.9827617 540.899532,94 540.836096,94 L536.286096,94 C536.169082,94 536.05981,93.9415205 535.994896,93.8441632 L535.531715,93.1493724 L534.78359,93.8974942 C534.717949,93.9631309 534.628923,94 534.536096,94 L531.386096,94 C531.235439,94 531.101679,93.9036127 531.054033,93.7606885 L530.354033,91.6606975 C530.324687,91.5726239 530.331532,91.4764993 530.373065,91.3934736 L531.073065,89.9934796 C531.102829,89.9339492 531.148951,89.8841398 531.206021,89.8498927 L532.956021,88.7998972 C533.05239,88.7420829 533.170658,88.7340595 533.273952,88.7783285 L535.236096,89.6192437 L535.236096,88.7500224 C535.236095,88.6270803 535.300599,88.5131524 535.406021,88.4498987 L537.156021,87.3999032 C537.199175,87.3740123 537.247404,87.3577319 537.297421,87.3521721 L540.447421,87.0021736 C540.529308,86.993138 540.611759,87.013278 540.680258,87.0590484 Z M548.186096,88.4000239 C548.379396,88.4000239 548.536096,88.5567236 548.536096,88.7500224 L548.536096,90.1500164 C548.536096,90.3433153 548.379396,90.5000149 548.186096,90.5000149 L546.786096,90.5000149 C546.592796,90.5000149 546.436096,90.3433153 546.436096,90.1500164 L546.436096,88.7500224 C546.436096,88.5567236 546.592796,88.4000239 546.786096,88.4000239 L548.186096,88.4000239 Z M544.566615,73.0866704 L544.995933,73.4623938 C546.49702,74.7760127 547.394359,76.6472738 547.478877,78.6401843 C547.897767,78.7638071 548.185497,79.1481688 548.186096,79.5849177 L548.186096,81.8151957 C548.185536,82.2634968 547.882773,82.6550543 547.44904,82.7684167 L547.192533,84.8202829 C547.024458,86.1650354 546.195358,87.3367864 544.983158,87.9427508 L544.142415,88.363099 C544.013691,88.4274472 543.858698,88.4064432 543.751743,88.3101567 C543.644787,88.2138702 543.607672,88.061929 543.65819,87.9271759 L543.72504,87.7488954 C544.325166,86.1513377 544.648934,84.4632701 544.682465,82.7570417 C544.373684,82.6617828 544.130936,82.4216494 544.03234,82.1139194 L529.111096,82.7770354 C529.088871,82.7780562 529.06669,82.778552 529.044552,82.7785229 C528.644501,82.7785925 528.260812,82.6197194 527.977913,82.3368624 C527.695014,82.0540054 527.536096,81.670341 527.536096,81.2702918 L527.536096,80.1298217 C527.536096,79.7181803 527.704343,79.3244238 528.001812,79.0398859 C528.29928,78.7553479 528.700121,78.6047538 529.111358,78.6230343 L544.032558,79.2862378 C544.131355,78.9781548 544.374595,78.7378736 544.683865,78.642853 C544.662644,77.1427262 544.488078,75.6487013 544.16289,74.1840908 L543.994408,73.425994 C543.961549,73.2782648 544.027362,73.1261502 544.157535,73.0489566 C544.287708,72.9717631 544.45275,72.9869786 544.566615,73.0866704 Z" id="Combined-Shape"></path>
        </g>
    </g>
</svg>